<?xml version="1.0" encoding="utf-8"?>
<svg id="icon-quality-indicator" xmlns="http://www.w3.org/2000/svg" viewBox="0 0 48 48">
  <defs />
  <g class="fill-background-color">
    <path d="M25.22,24.62a1.4,1.4,0,0,0,.22-1.49,1.92,1.92,0,0,1,.17-1.88,1.89,1.89,0,0,1,1.7-.83,1.42,1.42,0,0,0,1.5-1.33,1.92,1.92,0,0,1,2.91-1.53,1.43,1.43,0,0,0,2-.48,1.93,1.93,0,0,1,3.29,0,1.53,1.53,0,0,0,.35.37l.21.16,4-1.26-.18-.49a20.14,20.14,0,0,0-3.27-5.77l-.34-.41L34.15,13,34,12.9l3.3-3.67L37,8.9A20.13,20.13,0,0,0,23.89,2.67l-.5,0-.34,5.21h-.23l0-5.24h-1.3a20.23,20.23,0,0,0-6.25,1l-.45.15L16.09,8.4l-.21.06L14.33,3.92l-.49.2A20.2,20.2,0,0,0,7.4,8.38L7,8.73l3.67,3.72-.12.14-4-3.41-.33.37a20.31,20.31,0,0,0-3.36,5.32l-.17.41,4.52,2.57L7.23,18l-4.71-2-.17.52a20.19,20.19,0,0,0-1,6.37v2H25.07ZM28.91,9.7l1.46-4.2.49.19L29.1,9.77ZM18.31,6.86l.1-.73.36.63c.14.23,3.27,5.66,4.16,10.11.81,4.05.46,6.08-1.1,6.4h0a1.69,1.69,0,0,1-.33,0,2,2,0,0,1-1.6-1,12.62,12.62,0,0,1-1.54-4.49C17.47,13.34,18.28,7.12,18.31,6.86Z" />
    <path d="M45.7,25.46a1.92,1.92,0,0,1-1-2.53,1.41,1.41,0,0,0-.13-1.4,1.44,1.44,0,0,0-1.25-.61,1.94,1.94,0,0,1-2-1.8A1.38,1.38,0,0,0,40.56,18a1.41,1.41,0,0,0-1.39,0,1.93,1.93,0,0,1-2,0,1.59,1.59,0,0,1-.33-.25,1.85,1.85,0,0,1-.33-.39,1.41,1.41,0,0,0-1.22-.66h0a1.38,1.38,0,0,0-1.21.66,1.94,1.94,0,0,1-2.64.65,1.42,1.42,0,0,0-2.15,1.13,1.93,1.93,0,0,1-2,1.8,1.41,1.41,0,0,0-1.26.61,1.44,1.44,0,0,0-.13,1.39,1.87,1.87,0,0,1,.1,1.26,1.92,1.92,0,0,1-.71,1.08,2.08,2.08,0,0,1-.35.2,1.42,1.42,0,0,0-.83,1.13,1.4,1.4,0,0,0,.54,1.28,1.93,1.93,0,0,1,.33,2.7,1.42,1.42,0,0,0,.86,2.27,2,2,0,0,1,1.54,2.24,1.41,1.41,0,0,0,.43,1.3l.09.07a1.42,1.42,0,0,0,1.14.27l.26,0A1.92,1.92,0,0,1,31.59,38a1.42,1.42,0,0,0,2.36.59,1.91,1.91,0,0,1,.35-.27,1.85,1.85,0,0,1,.52-.22l.33-.06a1.82,1.82,0,0,1,.33,0l.33.06a1.68,1.68,0,0,1,.51.22,2,2,0,0,1,.35.26,1.36,1.36,0,0,0,1,.42,1.45,1.45,0,0,0,.35,0A1.42,1.42,0,0,0,39,38a1.94,1.94,0,0,1,2.41-1.27l.18,0a1.41,1.41,0,0,0,1.11-.28l.07-.05a1.42,1.42,0,0,0,.46-1.3V35a1.93,1.93,0,0,1,1.55-2.15A1.37,1.37,0,0,0,45.87,32a1.4,1.4,0,0,0-.21-1.38A1.92,1.92,0,0,1,46,27.88h0a1.41,1.41,0,0,0,.53-1.29A1.43,1.43,0,0,0,45.7,25.46ZM41.41,27.8a6.1,6.1,0,1,1-12.19,0,5.93,5.93,0,0,1,.34-2,5.75,5.75,0,0,1,.6-1.25h0a6.07,6.07,0,0,1,9.35-1.17,5.51,5.51,0,0,1,.57.62c.14.18.26.36.38.55a5.79,5.79,0,0,1,.61,1.25A6.2,6.2,0,0,1,41.41,27.8Z" />
  </g>
  <g class="fill-color">
    <path d="M19.52,9.22,18.7,7.59l-.13,1.82a33.68,33.68,0,0,0,.28,8.27A12.4,12.4,0,0,0,20.31,22a1.51,1.51,0,0,0,1.2.81.83.83,0,0,0,.22,0c.66-.13,1-.79,1.1-2A16.05,16.05,0,0,0,22.44,17,34.34,34.34,0,0,0,19.52,9.22Z" />
    <path d="M32.49,39.39a1.89,1.89,0,0,1-1.37-1.28,1.46,1.46,0,0,0-.71-.85,1.4,1.4,0,0,0-1-.1l-.13,0a1.6,1.6,0,0,1-1,0l-.38-.11-3,5.18,3.93-.55,1.48,3.67,3-5.18.39-.71-.81,0A1.47,1.47,0,0,1,32.49,39.39Z" />
    <path d="M42.76,37.06l-.38.11a1.84,1.84,0,0,1-1.09,0,1.43,1.43,0,0,0-1.78.93,1.9,1.9,0,0,1-1.37,1.29,2.52,2.52,0,0,1-.37,0l-.82,0,3.4,5.88,1.48-3.67,3.92.55Z" />
    <path d="M40.91,27.8A5.67,5.67,0,0,0,39.35,24a4.74,4.74,0,0,0-.69-.61,5.36,5.36,0,0,0-1.26-.72,5.56,5.56,0,0,0-7.14,2.82,5.45,5.45,0,0,0-.54,2.35,5.6,5.6,0,1,0,11.19,0Z" />
  </g>
  <g class="stroke-color">
    <path d="M19.21,6.51,18.1,4.61l-.29,2.18c0,.27-.85,6.56.06,11.09a13.08,13.08,0,0,0,1.61,4.67,2.42,2.42,0,0,0,2,1.25,2.86,2.86,0,0,0,.43,0c2.49-.5,2-4.23,1.49-7C22.52,12.25,19.34,6.74,19.21,6.51Zm2.42,15.77c-.13,0-.45.09-.91-.57a12.21,12.21,0,0,1-1.38-4.12,33.23,33.23,0,0,1-.27-8.14A33.45,33.45,0,0,1,22,17.06C22.57,20.17,22.45,22.12,21.63,22.28Z" />
    <path d="M31.52,5.42c-.47-.2-1-.39-1.45-.56L28.27,10c.38.13.74.27,1.1.42Z" />
    <path d="M43.76,36.8a2.38,2.38,0,0,0,.48-1.9A.92.92,0,0,1,45,33.83,2.44,2.44,0,0,0,46.45,30a.92.92,0,0,1,.16-1.29,2.43,2.43,0,0,0-.51-4.11.92.92,0,0,1-.45-1.22,2.43,2.43,0,0,0-2.36-3.41h0A21.13,21.13,0,0,0,22.38,1.73h-.84A21.11,21.11,0,0,0,.45,22.82v2.84H23.38a2.5,2.5,0,0,0-.27.81A2.41,2.41,0,0,0,24,28.66a.93.93,0,0,1,.16,1.3,2.42,2.42,0,0,0,1.47,3.87.92.92,0,0,1,.74,1.07,2.38,2.38,0,0,0,.47,1.9L23,43.52l5.18-.73,2,4.85,5-8.62a.79.79,0,0,1,.43,0l5,8.62,2-4.85,5.17.73Zm-13.4,7.42-1.25-3.08-3.29.47,2.28-4a2.19,2.19,0,0,0,1.29,0l.1,0a.91.91,0,0,1,1.15.61,2.4,2.4,0,0,0,1.73,1.62,1.88,1.88,0,0,0,.47,0ZM25.92,32.35a.9.9,0,0,1-.7-.58.92.92,0,0,1,.14-.89,2.44,2.44,0,0,0-.41-3.4.91.91,0,0,1,.19-1.56,2.58,2.58,0,0,0,.43-.26,2.44,2.44,0,0,0,.91-1.36,2.41,2.41,0,0,0-.13-1.58.93.93,0,0,1,.08-.9.91.91,0,0,1,.82-.4,2.42,2.42,0,0,0,2.56-2.27.91.91,0,0,1,.49-.76.92.92,0,0,1,.91,0,2.43,2.43,0,0,0,3.32-.82.94.94,0,0,1,1.57,0h0a2.48,2.48,0,0,0,.41.49,2.12,2.12,0,0,0,.42.32,2.44,2.44,0,0,0,2.49,0,.92.92,0,0,1,1.4.74,2.44,2.44,0,0,0,2.56,2.26h0a.92.92,0,0,1,.86,1.3,2.44,2.44,0,0,0,1.22,3.2.9.9,0,0,1,.54.73,1,1,0,0,1-.35.84,2.42,2.42,0,0,0-.41,3.39.92.92,0,0,1-.57,1.47,2.42,2.42,0,0,0-1.94,2.7v.12a.91.91,0,0,1-.29.85h0a.91.91,0,0,1-.74.21.5.5,0,0,1-.13,0,2.44,2.44,0,0,0-3,1.6.89.89,0,0,1-.65.61.93.93,0,0,1-.88-.24,1.79,1.79,0,0,0-.44-.34,2.18,2.18,0,0,0-.65-.27,1.85,1.85,0,0,0-.41-.07,1.41,1.41,0,0,0-.41,0,2,2,0,0,0-.42.07,2.42,2.42,0,0,0-.65.27,3.46,3.46,0,0,0-.44.34.92.92,0,0,1-1.53-.38,2.45,2.45,0,0,0-2.29-1.71,2,2,0,0,0-.64.1l-.1,0a.25.25,0,0,1-.12,0,.89.89,0,0,1-.75-.2h0a.9.9,0,0,1-.3-.86.37.37,0,0,0,0-.11A2.43,2.43,0,0,0,25.92,32.35Zm11.87,7.59a2.32,2.32,0,0,0,.46-.06A2.41,2.41,0,0,0,40,38.25a.92.92,0,0,1,1.15-.6,2.4,2.4,0,0,0,1.38,0l2.29,4-3.3-.47-1.24,3.08ZM1.81,24.3V24l5-.09v-.68l-5,.09v-.45a19.62,19.62,0,0,1,1-6.21l4.65,2A9.4,9.4,0,0,1,8,17.66L3.4,15.07A19.84,19.84,0,0,1,6.68,9.88l4,3.41c.25-.29.51-.57.79-.84L7.75,8.74A19.78,19.78,0,0,1,14,4.58l1.53,4.51c.38-.13.75-.24,1.14-.35L15.44,4.06a19.87,19.87,0,0,1,6.1-1h.8l0,5.23c.4,0,.8,0,1.2,0l.34-5.21a19.72,19.72,0,0,1,12.8,6.08l-3.32,3.69c.27.25.54.51.79.78l3.57-3.3A20,20,0,0,1,40.89,16l-3.28,1a1.39,1.39,0,0,1-.23-.25,2.39,2.39,0,0,0-2.07-1.16,2.41,2.41,0,0,0-2.07,1.16.92.92,0,0,1-1.27.31,2.42,2.42,0,0,0-3.66,1.93.9.9,0,0,1-1,.86A2.42,2.42,0,0,0,25,23.33a.92.92,0,0,1-.14,1Z" />
    <path d="M35.31,34.4a6.57,6.57,0,0,0,6.23-8.74,7.09,7.09,0,0,0-.65-1.36c-.13-.2-.27-.4-.42-.59a6.47,6.47,0,0,0-.61-.67A6.57,6.57,0,0,0,29.74,24.3a6.08,6.08,0,0,0-.65,1.36,6.33,6.33,0,0,0-.37,2.14A6.6,6.6,0,0,0,35.31,34.4Zm-4.6-8.74a5.29,5.29,0,0,1,.93-1.36,5,5,0,0,1,5.58-1.21,5,5,0,0,1,1.14.66,5.52,5.52,0,0,1,.63.55,5.29,5.29,0,0,1,.93,1.36,5.1,5.1,0,1,1-9.21,0Z" />
  </g>
</svg>
