<?xml version="1.0" encoding="utf-8"?>
<svg id="icon-morning" xmlns="http://www.w3.org/2000/svg" viewBox="0 0 48 48">
  <defs />
  <path d="M24,19.18a10.36,10.36,0,0,0-8,17l.15.18H31.79l.15-.18a10.37,10.37,0,0,0-8-17Z" class="fill-color" />
  <g class="stroke-color">
    <path d="M24,16.68a.75.75,0,0,0,.75-.75V9a.75.75,0,0,0-1.5,0v7A.75.75,0,0,0,24,16.68Z" />
    <path d="M36.82,29.55a.75.75,0,0,0,.75.75h7a.75.75,0,0,0,0-1.5h-7A.76.76,0,0,0,36.82,29.55Z" />
    <path d="M3.38,30.3h7a.75.75,0,1,0,0-1.5H3.38a.75.75,0,1,0,0,1.5Z" />
    <path d="M33.58,20.67a.71.71,0,0,0,.53-.22l3.67-3.66a.75.75,0,1,0-1.06-1.06l-3.67,3.66a.75.75,0,0,0,0,1.06A.74.74,0,0,0,33.58,20.67Z" />
    <path d="M13.79,20.45a.75.75,0,0,0,1.06,0,.75.75,0,0,0,0-1.06l-3.66-3.66a.75.75,0,0,0-1.06,0,.74.74,0,0,0,0,1.06Z" />
    <path d="M46.75,35.84H33.41a11.37,11.37,0,1,0-18.92,0H1.16a.75.75,0,1,0,0,1.5H46.75a.75.75,0,0,0,0-1.5Zm-30.4,0a9.87,9.87,0,1,1,15.2,0Z" />
  </g>
</svg>