<?xml version="1.0" encoding="utf-8"?>
<svg id="icon_doctors-letter" xmlns="http://www.w3.org/2000/svg" viewBox="0 0 48 48">
  <defs />
  <path d="M36.62,23.7V4.18H10.7v19.9l10.89,8L24,30.5l2.36,1.57,11.4-8.37Zm-19-4.77a1.5,1.5,0,0,1-.83-.25,1.82,1.82,0,0,1-.55-.64A2.92,2.92,0,0,1,16,17.3a5.39,5.39,0,0,1-.06-.87A6.73,6.73,0,0,1,16,15.6a2.6,2.6,0,0,1,.22-.74,1.63,1.63,0,0,1,.51-.65,1.48,1.48,0,0,1,.85-.27h3.49V10.09a1.54,1.54,0,0,1,.24-.83,1.64,1.64,0,0,1,.7-.6,2.87,2.87,0,0,1,.76-.21,7.49,7.49,0,0,1,1.77,0,2.94,2.94,0,0,1,.74.21,1.55,1.55,0,0,1,.71.62,1.58,1.58,0,0,1,.23.81v3.85h3.49a1.52,1.52,0,0,1,.8.23,1.67,1.67,0,0,1,.57.69,2.62,2.62,0,0,1,.22.73,7,7,0,0,1,.05.84,6.65,6.65,0,0,1-.05.84,2.65,2.65,0,0,1-.24.78,1.78,1.78,0,0,1-.57.64,1.6,1.6,0,0,1-.82.24H26.23v3.86a1.54,1.54,0,0,1-.24.82,2,2,0,0,1-.22.24,1.61,1.61,0,0,1-.49.34,2.71,2.71,0,0,1-.74.21,7.49,7.49,0,0,1-1.77,0,3,3,0,0,1-.75-.21,2.16,2.16,0,0,1-.54-.4l-.11-.12a1.35,1.35,0,0,1-.22-.45,1.42,1.42,0,0,1-.07-.43V18.93Z" class="fill-background-color" />
  <g class="fill-color">
    <polygon points="5.96 43.1 41.95 43.1 23.95 31.1 5.96 43.1" />
    <polygon points="26.75 32.37 42.52 42.88 42.52 20.79 26.75 32.37" />
    <polygon points="37.12 20.55 37.12 24.14 42.01 20.55 37.12 20.55" />
    <polygon points="5.38 20.79 5.38 42.88 21.15 32.37 5.38 20.79" />
    <polygon points="10.2 20.55 5.89 20.55 10.2 23.71 10.2 20.55" />
    <polygon points="10.2 16.16 5.57 20.05 10.2 20.05 10.2 16.16" />
    <polygon points="37.12 15.66 37.12 20.05 42.33 20.05 37.12 15.66" />
    <path d="M16.71,17.81a1.14,1.14,0,0,0,.38.45,1,1,0,0,0,.55.17h3.94v4.36a1,1,0,0,0,.19.59,1.11,1.11,0,0,0,.37.3l.09.05a2,2,0,0,0,.61.17,5.08,5.08,0,0,0,.82.05,4.88,4.88,0,0,0,.81-.05,2.17,2.17,0,0,0,.6-.16,1.19,1.19,0,0,0,.5-.4,1,1,0,0,0,.16-.55V18.43h3.95a1.1,1.1,0,0,0,.55-.16,1.23,1.23,0,0,0,.39-.45,2,2,0,0,0,.19-.63,5.15,5.15,0,0,0,.05-.76,5.58,5.58,0,0,0-.05-.76,2.15,2.15,0,0,0-.17-.6,1.18,1.18,0,0,0-.4-.48,1,1,0,0,0-.52-.15h-4V10.09a1.16,1.16,0,0,0-.16-.56,1.08,1.08,0,0,0-.48-.41A2.09,2.09,0,0,0,24.48,9a6.27,6.27,0,0,0-1.62,0,2.06,2.06,0,0,0-.63.17,1.16,1.16,0,0,0-.49.41,1,1,0,0,0-.16.56v4.35h-4a1,1,0,0,0-.56.18,1.1,1.1,0,0,0-.35.45,1.86,1.86,0,0,0-.17.6,5.42,5.42,0,0,0,0,1.54A1.77,1.77,0,0,0,16.71,17.81Z" />
  </g>
  <g class="stroke-color">
    <path d="M43.23,19.55l0,0-5.64-4.74V3.18H9.7V15.27l-5,4.25,0,0H4.38V44.1H43.52V19.55ZM7.61,42.6,24,31.7,40.3,42.6ZM9.7,17.23v2.32H6.94ZM11.2,14V4.68H36.12V24.2h.07L26.3,31.46,24,29.9,21.6,31.46,11.72,24.2l-.52-.38V14ZM42,42l-14.39-9.6L42,21.78ZM9.7,21.05v1.67L7.42,21.05Zm27.92,0h2.86l-2.86,2.1Zm0-1.5V16.74L41,19.55ZM5.88,21.78l14.4,10.57L5.88,42Z" />
    <path d="M15.82,18.28a2.15,2.15,0,0,0,.71.81,2,2,0,0,0,1.11.34h2.94v3.36a1.84,1.84,0,0,0,.09.57A2,2,0,0,0,21,24a2.5,2.5,0,0,0,.23.23,2,2,0,0,0,.63.44,3,3,0,0,0,.88.25,6.55,6.55,0,0,0,1,.06,6.41,6.41,0,0,0,.95-.06,3.4,3.4,0,0,0,.88-.24,2.06,2.06,0,0,0,.63-.45,1.67,1.67,0,0,0,.28-.31,2.05,2.05,0,0,0,.33-1.1V19.43h2.95a2,2,0,0,0,1.08-.32,2.16,2.16,0,0,0,.75-.83,2.91,2.91,0,0,0,.29-.93,7,7,0,0,0,0-1.83h0a3.31,3.31,0,0,0-.26-.87,2.19,2.19,0,0,0-.74-.88,2,2,0,0,0-1.08-.32h-3V10.09A2.14,2.14,0,0,0,26.44,9a2,2,0,0,0-.94-.82A3.24,3.24,0,0,0,24.62,8a7.63,7.63,0,0,0-1.91,0,3.19,3.19,0,0,0-.9.25A2.16,2.16,0,0,0,20.9,9a2,2,0,0,0-.32,1.1v3.35h-3a2,2,0,0,0-1.13.36,2,2,0,0,0-.68.84,2.76,2.76,0,0,0-.26.88,6.22,6.22,0,0,0-.06.91,5.39,5.39,0,0,0,.07,1A3.32,3.32,0,0,0,15.82,18.28Zm6.26-8.19a.6.6,0,0,1,.08-.29.71.71,0,0,1,.28-.23,1.82,1.82,0,0,1,.49-.13,6,6,0,0,1,1.47,0,1.84,1.84,0,0,1,.48.13.63.63,0,0,1,.26.21.61.61,0,0,1,.09.31v4.85h4.49A.52.52,0,0,1,30,15a.64.64,0,0,1,.22.28,1.72,1.72,0,0,1,.13.46,4.52,4.52,0,0,1,0,.68,4.41,4.41,0,0,1,0,.69,1.48,1.48,0,0,1-.14.46.65.65,0,0,1-.22.26.49.49,0,0,1-.28.09H25.23v4.86a.48.48,0,0,1-.08.27.64.64,0,0,1-.28.22,1.75,1.75,0,0,1-.48.13,6,6,0,0,1-1.47,0,1.84,1.84,0,0,1-.48-.13h0a.74.74,0,0,1-.25-.19.5.5,0,0,1-.09-.29V17.93H17.64a.5.5,0,0,1-.27-.08.76.76,0,0,1-.22-.27,1.48,1.48,0,0,1-.14-.46,3.42,3.42,0,0,1-.05-.69,4.52,4.52,0,0,1,0-.68,1.42,1.42,0,0,1,.13-.46.63.63,0,0,1,.19-.26.48.48,0,0,1,.27-.09h4.49Z" />
  </g>
</svg>
