<?xml version="1.0" encoding="utf-8"?>
<svg id="icon-specialist-information" xmlns="http://www.w3.org/2000/svg" viewBox="0 0 48 48">
  <defs />
  <path d="M24,3.07A20.87,20.87,0,1,0,44.82,23.93,20.89,20.89,0,0,0,24,3.07Zm-3.06,18.2a.67.67,0,0,1,.21-.49,1.33,1.33,0,0,1,.56-.28,5.07,5.07,0,0,1,.91-.16c.36,0,.87-.05,1.38-.05s1,0,1.39.05a5.1,5.1,0,0,1,.9.16,1.33,1.33,0,0,1,.56.28.67.67,0,0,1,.21.49V36.78a.66.66,0,0,1-.2.48,1.22,1.22,0,0,1-.57.29,5.32,5.32,0,0,1-.91.14,23.1,23.1,0,0,1-2.76,0,5.32,5.32,0,0,1-.91-.14,1.22,1.22,0,0,1-.57-.29.64.64,0,0,1-.2-.48Zm5.77-6a4.42,4.42,0,0,1-2.73.64,4.29,4.29,0,0,1-2.72-.62,2.72,2.72,0,0,1-.75-2.19,2.91,2.91,0,0,1,.77-2.29A4.4,4.4,0,0,1,24,10.17a4.29,4.29,0,0,1,2.71.62A2.79,2.79,0,0,1,27.44,13,2.82,2.82,0,0,1,26.66,15.27Z" class="fill-background-color" />
  <g class="fill-color">
    <path d="M23.93,15.41a4,4,0,0,0,2.41-.52,2.39,2.39,0,0,0,.6-1.89,2.33,2.33,0,0,0-.58-1.82h0A3.8,3.8,0,0,0,24,10.67a3.83,3.83,0,0,0-2.41.52A2.44,2.44,0,0,0,21,13.1a2.34,2.34,0,0,0,.57,1.81A4,4,0,0,0,23.93,15.41Z" />
    <path d="M26.1,21a4.31,4.31,0,0,0-.81-.14,17,17,0,0,0-2.67,0,4.43,4.43,0,0,0-.89.16l-.34.11V36.57l0,.4.37.1a5.26,5.26,0,0,0,.81.12c.35,0,.85,0,1.34,0s1,0,1.34,0a5,5,0,0,0,.84-.13l.38-.1V21.47l-.05-.39Z" />
  </g>
  <g class="stroke-color">
    <path d="M24,2.07A21.87,21.87,0,1,0,45.82,23.93,21.88,21.88,0,0,0,24,2.07ZM3.59,23.93A20.37,20.37,0,1,1,24,44.3,20.38,20.38,0,0,1,3.59,23.93Z" />
    <path d="M24,9.67a4.66,4.66,0,0,0-3.06.77A3.32,3.32,0,0,0,20,13.1a3.17,3.17,0,0,0,.93,2.57,4.68,4.68,0,0,0,3,.74A4.82,4.82,0,0,0,27,15.66a3.29,3.29,0,0,0,1-2.66A3.25,3.25,0,0,0,27,10.41,4.68,4.68,0,0,0,24,9.67ZM26,14.51a3.42,3.42,0,0,1-2.09.4c-1.47,0-1.94-.27-2.07-.38a1.9,1.9,0,0,1-.4-1.43,2.1,2.1,0,0,1,.42-1.53c.14-.12.63-.4,2.09-.4s1.93.27,2.07.39a1.93,1.93,0,0,1,.4,1.44A2,2,0,0,1,26,14.51Z" />
    <path d="M26.38,20a5.2,5.2,0,0,0-1-.18,19.64,19.64,0,0,0-2.87,0,5.18,5.18,0,0,0-1,.18,1.86,1.86,0,0,0-.77.4,1.2,1.2,0,0,0-.36.85V36.78a1.16,1.16,0,0,0,.36.84,1.7,1.7,0,0,0,.78.41,6.35,6.35,0,0,0,1,.16c.37,0,.85,0,1.42,0s1.05,0,1.43,0a5.48,5.48,0,0,0,1-.15,1.74,1.74,0,0,0,.79-.41,1.15,1.15,0,0,0,.35-.84V21.27a1.16,1.16,0,0,0-.36-.85A1.86,1.86,0,0,0,26.38,20ZM26,36.57h0a4.39,4.39,0,0,1-.73.11,22.55,22.55,0,0,1-2.6,0,4.08,4.08,0,0,1-.72-.11h0V21.47h.05a3.16,3.16,0,0,1,.72-.12,15.87,15.87,0,0,1,2.58,0,3.16,3.16,0,0,1,.72.12H26Z" />
  </g>
</svg>
