<svg xmlns="http://www.w3.org/2000/svg" viewBox="0 0 48 48">
  <path class="fill-color stroke-color"
        d="M9.94,5.57H39.7a0,0,0,0,1,0,0V41a0,0,0,0,1,0,0H9.94a2,2,0,0,1-2-2V7.57A2,2,0,0,1,9.94,5.57Z"/>
  <rect class="fill-background-color stroke-color" x="4.55" y="9.26" width="6.79" height="3.11" rx="1.1"/>
  <rect class="fill-background-color stroke-color" x="4.55" y="17.66" width="6.79" height="3.11" rx="1.1"/>
  <rect class="fill-background-color stroke-color" x="4.55" y="26.06" width="6.79" height="3.11" rx="1.1"/>
  <rect class="fill-background-color stroke-color" x="4.55" y="34.46" width="6.79" height="3.11" rx="1.1"/>
  <rect class="fill-background-color stroke-color" x="14.8" y="5.57" width="24.9" height="35.47"/>
  <rect class="fill-color stroke-color" x="17.46" y="11.8" width="19.31" height="5.07"/>
  <polygon class="fill-background-color stroke-color"
           points="41.69 16.87 46.78 21.96 28.5 40.25 19.82 43.83 23.41 35.16 41.69 16.87"/>
  <rect class="fill-color stroke-color" style="stroke-linejoin: bevel;" x="31.44" y="15.56" width="7.2" height="25.85"
        transform="translate(39.72 73.48) rotate(-135)"/>
  <line class="fill-none stroke-color" style="stroke-linecap: round;" x1="35.7" y1="26.85" x2="41.14" y2="21.41"/>
  <line class="fill-none stroke-color" style="stroke-linecap: round;" x1="32.05" y1="30.5" x2="34.05" y2="28.5"/>
  <polygon class="fill-color stroke-color" points="23.45 42.33 19.82 43.83 21.32 40.2 23.45 42.33"/>
</svg>
