<?xml version="1.0" encoding="utf-8"?>
<svg id="icon-midday" xmlns="http://www.w3.org/2000/svg" viewBox="0 0 48 48">
  <defs />
  <circle class="fill-color" cx="23.95" cy="23.93" r="11.22" />
  <g class="stroke-color">
    <path d="M24,35.9a12,12,0,1,1,12-12A12,12,0,0,1,24,35.9Zm0-22.44A10.47,10.47,0,1,0,34.42,23.93,10.49,10.49,0,0,0,24,13.46Z" />
    <path d="M24,10.29a.76.76,0,0,1-.75-.75V2.19a.75.75,0,0,1,1.5,0V9.54A.76.76,0,0,1,24,10.29Z" />
    <path d="M24,46.42a.76.76,0,0,1-.75-.75V38.33a.75.75,0,0,1,1.5,0v7.34A.76.76,0,0,1,24,46.42Z" />
    <path d="M45.69,24.68H38.35a.75.75,0,0,1,0-1.5h7.34a.75.75,0,0,1,0,1.5Z" />
    <path d="M9.56,24.68H2.21a.75.75,0,0,1,0-1.5H9.56a.75.75,0,1,1,0,1.5Z" />
    <path d="M34.13,14.5a.74.74,0,0,1-.53-.22.75.75,0,0,1,0-1.06l3.87-3.87a.75.75,0,1,1,1.06,1.06l-3.87,3.87A.74.74,0,0,1,34.13,14.5Z" />
    <path d="M9.9,38.73a.74.74,0,0,1-.53-.22.75.75,0,0,1,0-1.06l3.87-3.87a.75.75,0,0,1,1.06,0,.74.74,0,0,1,0,1.06l-3.87,3.87A.73.73,0,0,1,9.9,38.73Z" />
    <path d="M38,38.73a.74.74,0,0,1-.53-.22L33.6,34.64a.75.75,0,1,1,1.06-1.06l3.87,3.87a.75.75,0,0,1,0,1.06A.74.74,0,0,1,38,38.73Z" />
    <path d="M13.77,14.5a.74.74,0,0,1-.53-.22L9.37,10.41a.75.75,0,1,1,1.06-1.06l3.87,3.87a.74.74,0,0,1,0,1.06A.73.73,0,0,1,13.77,14.5Z" />
  </g>
</svg>
