<?xml version="1.0" encoding="utf-8"?>
<svg id="icon-import" xmlns="http://www.w3.org/2000/svg" viewBox="0 0 48 48">
  <defs />
  <g class="fill-color">
    <path d="M41.07,27H27.39L24,30l-3.44-3H6.84a3.75,3.75,0,0,0-3.75,3.75V37a3.76,3.76,0,0,0,3.75,3.75H41.07A3.76,3.76,0,0,0,44.82,37V30.79A3.76,3.76,0,0,0,41.07,27Zm-2.78,8.79a1.57,1.57,0,1,1,1.56,1.57A1.56,1.56,0,0,1,38.29,35.83Zm-2.63,0a1.57,1.57,0,1,1-1.56-1.56A1.56,1.56,0,0,1,35.66,35.83Zm-5.76,0a1.56,1.56,0,1,1-1.56-1.56A1.56,1.56,0,0,1,29.9,35.83Z" />
    <polygon points="23.66 26.79 23.95 27.04 24.25 26.79 24.82 26.29 31.64 20.39 28.14 20.39 28.14 8.26 19.76 8.26 19.76 20.39 16.27 20.39 23.08 26.29 23.66 26.79" />
  </g>
  <g class="fill-background-color">
    <path d="M28.34,37.65a1.82,1.82,0,1,0-1.81-1.82A1.81,1.81,0,0,0,28.34,37.65Z" />
    <path d="M34.1,37.65a1.82,1.82,0,1,0-1.82-1.82A1.81,1.81,0,0,0,34.1,37.65Z" />
    <path d="M39.85,37.65A1.82,1.82,0,1,0,38,35.83,1.81,1.81,0,0,0,39.85,37.65Z" />
  </g>
  <g class="stroke-color">
    <path d="M41.07,26H28.55l-1.73,1.5H41.07a3.26,3.26,0,0,1,3.25,3.25V37a3.26,3.26,0,0,1-3.25,3.25H6.84A3.25,3.25,0,0,1,3.59,37V30.79a3.25,3.25,0,0,1,3.25-3.25H21.09L19.36,26H6.84a4.75,4.75,0,0,0-4.75,4.75V37a4.75,4.75,0,0,0,4.75,4.75H41.07A4.75,4.75,0,0,0,45.82,37V30.79A4.75,4.75,0,0,0,41.07,26Z" />
    <path d="M35,19.14h-5.6V7H18.51V19.14H12.92L24,28.7Zm-15,1.5V8.51h7.88V20.64H31l-7,6.07-7-6.07Z" />
  </g>
</svg>
