<?xml version="1.0" encoding="utf-8"?>
<svg id="icon-down" xmlns="http://www.w3.org/2000/svg" viewBox="0 0 48 48">
  <path d="M26.7,35.74l18.42-20a3,3,0,0,0-2.21-5H6.07a3,3,0,0,0-2.21,5l18.43,20A3,3,0,0,0,26.7,35.74Z" class="fill-color" />
  <path d="M24.49,37.46a3.78,3.78,0,0,1-2.76-1.22l-18.42-20A3.75,3.75,0,0,1,6.07,9.93H42.91a3.75,3.75,0,0,1,2.76,6.29l-18.42,20A3.76,3.76,0,0,1,24.49,37.46Zm-18.42-26A2.24,2.24,0,0,0,4.42,15.2l18.42,20a2.3,2.3,0,0,0,3.31,0l18.42-20a2.25,2.25,0,0,0-1.66-3.77Z" class="stroke-color" />
</svg>
