<?xml version="1.0" encoding="utf-8"?>
<svg id="icon-recipe" xmlns="http://www.w3.org/2000/svg" viewBox="0 0 48 48">
  <defs />
  <polygon id="fill-background-color" points="41.09 44.16 6.81 44.16 6.81 3.34 13.51 3.34 41.09 3.34 41.09 44.16" />
  <path d="M33.72,25.2A34,34,0,0,0,30,20.74l3.74-4.31a.94.94,0,0,0,.14-.38.26.26,0,0,0-.13-.23,1.07,1.07,0,0,0-.45-.1c-.2,0-.48,0-.83,0s-1.41,0-1.59,0a1.81,1.81,0,0,0-.41.07.7.7,0,0,0-.23.11.59.59,0,0,0-.1.17l-2.2,2.7c-.66-.59-1.53-1.39-1.8-1.61a4.78,4.78,0,0,0-.86-.54,6.81,6.81,0,0,0,1.7-.79,5.14,5.14,0,0,0,1.25-1.16A4.69,4.69,0,0,0,29,13.16a6.24,6.24,0,0,0,.26-1.88,6.06,6.06,0,0,0-.36-2.17,4.74,4.74,0,0,0-1.06-1.63,5.1,5.1,0,0,0-1.68-1.12,8.56,8.56,0,0,0-2.23-.61L23,5.67c-.35,0-.8,0-1.33,0H16.33a1.33,1.33,0,0,0-.88.31,1.27,1.27,0,0,0-.36,1V25.61a.42.42,0,0,0,.1.28.59.59,0,0,0,.33.21,4.43,4.43,0,0,0,.64.13,9.62,9.62,0,0,0,1,0,9.37,9.37,0,0,0,1,0,4.43,4.43,0,0,0,.64-.13.66.66,0,0,0,.34-.21.42.42,0,0,0,.1-.28V17.78h1.31a3.05,3.05,0,0,1,1.17.21,2.61,2.61,0,0,1,.9.61c.12.13,1.05,1,2.66,2.65l-3.12,4.57a.71.71,0,0,0-.1.33.25.25,0,0,0,.15.21,1.21,1.21,0,0,0,.44.11c.21,0,1.35,0,1.69,0l.8,0a1.88,1.88,0,0,0,.48-.07.83.83,0,0,0,.25-.13c.05-.05,1.92-2.53,1.92-2.53a16.81,16.81,0,0,1,1.66,2.15.67.67,0,0,0,.32.22,2.2,2.2,0,0,0,.63.12c.26,0,.62,0,1.06,0s.95,0,1.25,0a3.1,3.1,0,0,0,.7-.11.48.48,0,0,0,.3-.2.54.54,0,0,0,.07-.29A1.88,1.88,0,0,0,33.72,25.2Zm-9-12.29a2.44,2.44,0,0,1-.66.93,3.11,3.11,0,0,1-1.11.6,5.24,5.24,0,0,1-1.56.22H19.26V8.83h1.88a10.59,10.59,0,0,1,1.12.05A4.43,4.43,0,0,1,23,9a2.49,2.49,0,0,1,1.51,1,3.36,3.36,0,0,1,.23,2.92Z" class="fill-color" />
  <g class="stroke-color">
    <path d="M6.06,2.59V44.91H41.84V2.59ZM40.34,43.41H7.56V4.09H40.34Z" />
    <path d="M19.34,29.83a.75.75,0,0,0,.75.75H35.4a.75.75,0,0,0,0-1.5H20.09A.74.74,0,0,0,19.34,29.83Z" />
    <path d="M35.4,33.68H20.09a.75.75,0,1,0,0,1.5H35.4a.75.75,0,0,0,0-1.5Z" />
    <path d="M35.4,38.29H20.09a.75.75,0,1,0,0,1.5H35.4a.75.75,0,0,0,0-1.5Z" />
    <path d="M12.38,30.58h3.45a.75.75,0,0,0,0-1.5H12.38a.75.75,0,0,0,0,1.5Z" />
    <path d="M12.38,35.18h3.45a.75.75,0,0,0,0-1.5H12.38a.75.75,0,0,0,0,1.5Z" />
    <path d="M12.38,39.79h3.45a.75.75,0,0,0,0-1.5H12.38a.75.75,0,0,0,0,1.5Z" />
    <path d="M23.18,15.16a3.86,3.86,0,0,0,1.37-.76,3.23,3.23,0,0,0,.87-1.2,4,4,0,0,0,.28-1.5,3.77,3.77,0,0,0-.59-2.12,3.24,3.24,0,0,0-1.95-1.3,5.57,5.57,0,0,0-.82-.14,9.28,9.28,0,0,0-1.2-.06H18.51v7.33h2.88A6.09,6.09,0,0,0,23.18,15.16ZM20,9.58h1.13a9.43,9.43,0,0,1,1,0c.23,0,.44.07.61.11a1.79,1.79,0,0,1,1.08.67,2.29,2.29,0,0,1,.34,1.3,2.36,2.36,0,0,1-.17.92,1.6,1.6,0,0,1-.47.65,2.32,2.32,0,0,1-.84.46,4.37,4.37,0,0,1-1.33.18H20Z" />
    <path d="M15.29,26.81a4.08,4.08,0,0,0,.78.16,11.65,11.65,0,0,0,2.21,0,4.43,4.43,0,0,0,.78-.16,1.52,1.52,0,0,0,.68-.44,1.18,1.18,0,0,0,.27-.76V18.53h.56a2.4,2.4,0,0,1,.89.15,1.84,1.84,0,0,1,.64.44l.22.21c.31.3,1,1,2,2l-2.82,4.14a1.33,1.33,0,0,0-.19.71,1,1,0,0,0,.52.82,1.67,1.67,0,0,0,.75.21c.3,0,1.75,0,1.76,0l.84,0a3.42,3.42,0,0,0,.66-.1,1.41,1.41,0,0,0,.54-.3c.05,0,.09-.09,1.45-1.89a15.2,15.2,0,0,1,.94,1.3l.07.1a1.37,1.37,0,0,0,.67.48,3,3,0,0,0,.82.17c.28,0,.66,0,1.13,0s1,0,1.3,0a3.27,3.27,0,0,0,.89-.15,1.21,1.21,0,0,0,.73-.56,1.34,1.34,0,0,0,.15-.64,2.52,2.52,0,0,0-.11-.64h0A28.26,28.26,0,0,0,31,20.71l3.29-3.79.09-.13a1.68,1.68,0,0,0,.23-.71,1,1,0,0,0-.49-.9,1.64,1.64,0,0,0-.78-.21c-.22,0-.52,0-.89,0,0,0-1.4,0-1.65,0a2.45,2.45,0,0,0-.57.1,1.34,1.34,0,0,0-.54.3,1.61,1.61,0,0,0-.21.3l-1.65,2-.18-.17-.82-.73c.19-.1.37-.21.54-.32a6.13,6.13,0,0,0,1.44-1.33,5.67,5.67,0,0,0,.89-1.75,7.35,7.35,0,0,0,.29-2.1,6.86,6.86,0,0,0-.41-2.44,5.51,5.51,0,0,0-1.23-1.9,6.13,6.13,0,0,0-1.91-1.27A9.64,9.64,0,0,0,24,5c-.29,0-.62-.06-1-.08s-.82,0-1.37,0H16.33A2,2,0,0,0,15,5.38,2,2,0,0,0,14.34,7V25.61a1.27,1.27,0,0,0,.25.74A1.39,1.39,0,0,0,15.29,26.81ZM15.84,7c0-.26.05-.4.1-.44a.53.53,0,0,1,.39-.13h5.32c.52,0,1,0,1.28,0s.64,0,.9.08a7.93,7.93,0,0,1,2,.54,4.55,4.55,0,0,1,1.45,1,4,4,0,0,1,.89,1.37,5.26,5.26,0,0,1,.31,1.9,5.42,5.42,0,0,1-.23,1.66,3.87,3.87,0,0,1-.65,1.28,4.21,4.21,0,0,1-1.07,1,5.86,5.86,0,0,1-1.51.71l-1.8.57,1.7.82a4.22,4.22,0,0,1,.73.45c.16.13.55.49,1,.87l.78.71.58.52,2.75-3.36.18,0,1.52,0h.27L29,20.8l.54.49A35.81,35.81,0,0,1,33,25.46l-.32,0q-.43,0-1.2,0c-.42,0-.75,0-1,0a1.86,1.86,0,0,1-.43-.07,15.35,15.35,0,0,0-1.69-2.19l-.61-.64-.53.71-1.82,2.4-.27,0-.76,0H23.14l3.13-4.57-.42-.44c-1.28-1.34-2.14-2.15-2.5-2.49l-.17-.16A3.28,3.28,0,0,0,22,17.29,3.94,3.94,0,0,0,20.57,17H18.51v8.38a3,3,0,0,1-.42.07,9.43,9.43,0,0,1-1.84,0l-.41-.07Z" />
  </g>
</svg>
