<svg xmlns="http://www.w3.org/2000/svg" viewBox="0 0 48 48">
  <rect class="fill-color stroke-color" x="2.88" y="16.7" width="42.16" height="25.4"/>
  <path class="fill-background-color stroke-color" d="M4.88,9H43a2,2,0,0,1,2,2v6.35a0,0,0,0,1,0,0H2.88a0,0,0,0,1,0,0V11A2,2,0,0,1,4.88,9Z"/>
  <rect class="fill-background-color stroke-color" x="5.82" y="4.71" width="2.38" height="8.46" rx="0.84"/>
  <rect class="fill-background-color stroke-color" x="14.02" y="4.71" width="2.38" height="8.46" rx="0.84"/>
  <rect class="fill-background-color stroke-color" x="22.78" y="4.71" width="2.38" height="8.46" rx="0.84"/>
  <rect class="fill-background-color stroke-color" x="31.61" y="4.71" width="2.38" height="8.46" rx="0.84"/>
  <rect class="fill-background-color stroke-color" x="40.02" y="4.71" width="2.38" height="8.46" rx="0.84"/>
  <path class="fill-none stroke-color" d="M37,33.26c.81,4.22-1.5,8.79-5.16,8.79" transform="translate(0.05 0.07)"/>
  <path class="fill-none stroke-color" d="M37.35,33.65c4,.69,7.67-1.9,7.67-5.69" transform="translate(0.05 0.07)"/>
  <path class="fill-none stroke-color" d="M44.4,30.94a65.49,65.49,0,0,1-3.92,5.75c-1.88,2.27-6.32,4.73-6.32,4.73"
        transform="translate(0.05 0.07)"/>
  <rect class="fill-background-color stroke-color" x="7.01" y="20.94" width="9.38" height="6.28"/>
</svg>
