<svg xmlns="http://www.w3.org/2000/svg" viewBox="0 0 48 48">
  <rect class="fill-none" width="48" height="48"/>
  <path class="fill-color stroke-color"
        d="M24.87,17.33,37,8.77,35.66,6.46,19.4,15.31,3.13,6.46,1.78,8.77,13.51,17v8.74L8.93,42.57,12.26,44l7.21-15.79L26.69,44,30,42.57,24.91,25.78Z"
        transform="translate(0.05 0.07)"/>
  <ellipse class="fill-color stroke-color" cx="19.17" cy="5.96" rx="3.28" ry="4.49"/>
  <path class="fill-background-color stroke-color"
        d="M47,37.12V32.29H45.15A10.72,10.72,0,0,0,43.77,29l1.28-1.28-3.42-3.42-1.27,1.26A10.56,10.56,0,0,0,37,24.12V22.34H32.17v1.78a10.75,10.75,0,0,0-3.35,1.39l-1.26-1.26-3.42,3.42L25.41,29A10.7,10.7,0,0,0,24,32.29H22.23v4.83h1.84a10.84,10.84,0,0,0,1.38,3.3l-1.31,1.32,3.42,3.42,1.33-1.33a10.54,10.54,0,0,0,3.28,1.36v1.88H37V45.19a10.5,10.5,0,0,0,3.29-1.36l1.33,1.33,3.42-3.42-1.32-1.32a10.61,10.61,0,0,0,1.39-3.3Z"
        transform="translate(0.05 0.07)"/>
  <circle class="fill-background-color stroke-color" cx="34.64" cy="34.72" r="6.99"/>
  <circle class="fill-color stroke-color" cx="34.64" cy="34.72" r="2.44"/>
</svg>
