<svg xmlns="http://www.w3.org/2000/svg" viewBox="0 0 48 48">
  <rect class="fill-background-color stroke-color" x="6.69" y="20.3" width="34.61" height="25.04"/>
  <polygon class="fill-color stroke-color" points="42.06 6.84 5.94 6.84 2.98 20.3 45.02 20.3 42.06 6.84"/>
  <rect class="fill-color stroke-color" x="27.99" y="24.35" width="8.85" height="11"/>
  <path class="fill-color stroke-color" d="M12,45.27V33.66a5.15,5.15,0,0,1,5.14-5.14h0a5.15,5.15,0,0,1,5.13,5.14V45.27Z"
        transform="translate(0.05 0.07)"/>
  <line class="fill-none stroke-color" style="stroke-linecap: round;" x1="19.76" y1="37.52" x2="20.56" y2="37.52"/>
  <rect class="fill-background-color stroke-color" x="33.66" y="3.58" width="5.28" height="8.32"/>
  <rect class="fill-color stroke-color" x="32.21" y="1.77" width="8.18" height="2.82" rx="0.99"/>
  <line class="fill-none stroke-color" style="stroke-linecap: round;" x1="8.24" y1="10.6" x2="29.98" y2="10.6"/>
  <line class="fill-none stroke-color" style="stroke-linecap: round;" x1="7.37" y1="13.57" x2="29.04" y2="13.57"/>
  <line class="fill-none stroke-color" style="stroke-linecap: round;" x1="6.32" y1="16.75" x2="27.99" y2="16.75"/>
</svg>
