<?xml version="1.0" encoding="utf-8"?>
<svg id="icon-partially-taken" xmlns="http://www.w3.org/2000/svg" viewBox="0 0 48 48">
  <defs />
  <circle class="fill-color" cx="24" cy="24" r="21" />
  <path d="M35.32,22.78a4.09,4.09,0,0,0-.29-1,2.12,2.12,0,0,0-.73-.87,1.85,1.85,0,0,0-1-.31H14.72a1.86,1.86,0,0,0-1.07.34,2,2,0,0,0-.67.84,3.79,3.79,0,0,0-.3,1A8.33,8.33,0,0,0,12.6,24a6.63,6.63,0,0,0,.1,1.26,3.36,3.36,0,0,0,.33,1,2.14,2.14,0,0,0,.7.82,1.91,1.91,0,0,0,1.06.32H33.21a1.91,1.91,0,0,0,1-.3,2.14,2.14,0,0,0,.75-.83,3.67,3.67,0,0,0,.32-1.07A7.2,7.2,0,0,0,35.4,24,7.26,7.26,0,0,0,35.32,22.78Z" class="fill-background-color" />
  <g class="stroke-color">
    <path d="M24,45.75A21.75,21.75,0,1,1,45.75,24,21.78,21.78,0,0,1,24,45.75Zm0-42A20.25,20.25,0,1,0,44.25,24,20.27,20.27,0,0,0,24,3.75Z" />
    <path d="M14.78,28.19a2.54,2.54,0,0,1-1.46-.45,3,3,0,0,1-1-1.1,4.34,4.34,0,0,1-.4-1.25A7.12,7.12,0,0,1,11.85,24a9.84,9.84,0,0,1,.09-1.31,4.1,4.1,0,0,1,.35-1.24,2.87,2.87,0,0,1,.91-1.13,2.62,2.62,0,0,1,1.52-.49H33.28a2.58,2.58,0,0,1,1.43.43,2.83,2.83,0,0,1,1,1.2,4.2,4.2,0,0,1,.36,1.22h0A8.54,8.54,0,0,1,36.15,24a8.63,8.63,0,0,1-.08,1.33,4.5,4.5,0,0,1-.4,1.29,2.9,2.9,0,0,1-1,1.13,2.65,2.65,0,0,1-1.44.42H14.78Zm18.49-6.86H14.72a1.13,1.13,0,0,0-.64.2,1.48,1.48,0,0,0-.42.53,3.14,3.14,0,0,0-.24.83A8.48,8.48,0,0,0,13.35,24a5.42,5.42,0,0,0,.09,1.15,2.62,2.62,0,0,0,.26.82,1.52,1.52,0,0,0,.47.54,1.11,1.11,0,0,0,.62.18H33.21a1.19,1.19,0,0,0,.64-.18,1.48,1.48,0,0,0,.48-.54,3,3,0,0,0,.25-.83A7,7,0,0,0,34.65,24a7,7,0,0,0-.07-1.13h0a3.22,3.22,0,0,0-.23-.82,1.53,1.53,0,0,0-.47-.57A1.14,1.14,0,0,0,33.27,21.33Z" />
  </g>
</svg>
