<svg xmlns="http://www.w3.org/2000/svg" viewBox="0 0 48 48">
  <path class="fill-color stroke-color"
        d="M42.23,11.21c0,25.32-19,32.68-19,32.68s-19-10.24-19-32.68a48.54,48.54,0,0,0,19-8.13C30.53,9.36,42.23,11.21,42.23,11.21Z"
        transform="translate(0.05 0.07)"/>
  <path class="fill-background-color" d="M34.79,46.28a9.75,9.75,0,1,1,9.75-9.75A9.76,9.76,0,0,1,34.79,46.28Z"
        transform="translate(0.05 0.07)"/>
  <path class="fill-background-color"
        d="M34.79,27.28a9.25,9.25,0,1,1-9.24,9.25,9.26,9.26,0,0,1,9.24-9.25m0-1A10.25,10.25,0,1,0,45,36.53,10.25,10.25,0,0,0,34.79,26.28Z"
        transform="translate(0.05 0.07)"/>
  <polyline class="fill-none stroke-color" style="stroke-linecap: round" points="28.36 36.97 33.85 43.2 40.34 30.74"/>
  <path class="fill-background-color stroke-color" d="M23.25,43.89s-19-7-19-32.68a48.54,48.54,0,0,0,19-8.13"
        transform="translate(0.05 0.07)"/>
  <path class="fill-none stroke-primary-color" style="stroke-linecap: round" d="M18.13,36.53a40.05,40.05,0,0,1-7.95-10.25" transform="translate(0.05 0.07)"/>
  <line class="fill-none stroke-color" style="stroke-linecap: round" x1="23.3" y1="11.66" x2="23.3" y2="34.27"/>
</svg>
