<?xml version="1.0" encoding="utf-8"?>
<svg id="icon-novelties" xmlns="http://www.w3.org/2000/svg" viewBox="0 0 48 48">
  <defs />
  <path d="M4.09,7.66V38.23A2.75,2.75,0,0,0,6.84,41H39.66V7.66ZM8.55,18.6l-.14-.5H8.26l0-6.22h.79a.93.93,0,0,1,.32,0,1.38,1.38,0,0,1,.12.17l.08.13.06.12,1.65,3.1c.08.15.15.3.22.45l.22.46c.07.14.14.28.2.43l.14.3h.85l0-.53c0-.25,0-.52,0-.8s0-.54,0-.79V11.86h.32l0,6.22h-.63a.53.53,0,0,1-.27-.06.64.64,0,0,1-.13-.16c-.07-.11-.14-.25-.23-.43l-1.79-3.35-.31-.63c-.1-.22-.19-.44-.28-.65l-.13-.32H8.5l0,.53,0,.78c0,.26,0,.53,0,.81v3.49h0l0,.5Zm-1,12.61V22.1H21.09v9.11ZM19,12H16.21v2.76H18.6v.12H16.21v3H19v.15l-3.26,0V11.88H19V12Zm4.75,18.29a.25.25,0,0,1,.25-.25H35.45a.25.25,0,0,1,0,.5H24A.25.25,0,0,1,23.74,30.31Zm0-3.68a.25.25,0,0,1,.25-.25H35.45a.25.25,0,0,1,0,.5H24A.25.25,0,0,1,23.74,26.63Zm0-3.68A.25.25,0,0,1,24,22.7H35.45a.25.25,0,0,1,0,.5H24A.25.25,0,0,1,23.74,23Zm4.2-4.89s-.05,0-.16,0a6.75,6.75,0,0,1-.9,0h-.1l-1.15-4.55-.1-.38h-.79l-1.18,4.94h-.08a7.21,7.21,0,0,1-.93,0h-.11l-1.62-6.23h.51l1.25,5.41.09.39h.79l1.39-5.8a5.85,5.85,0,0,1,.73,0l1.34,5.42.11.38h.79l1.33-5.8h.39Zm6-6.08a2.38,2.38,0,0,0-1.27,0,1.27,1.27,0,0,0-.47.26,1.16,1.16,0,0,0-.32.44,1.33,1.33,0,0,0-.09.49,1.16,1.16,0,0,0,.23.71,1.61,1.61,0,0,0,.49.44,4.16,4.16,0,0,0,.56.29l.55.25a5.12,5.12,0,0,1,.52.27,1.76,1.76,0,0,1,.39.32,1.69,1.69,0,0,1,.26.41,1.53,1.53,0,0,1,.09.56,1.73,1.73,0,0,1-.16.78,1.54,1.54,0,0,1-.43.54,1.89,1.89,0,0,1-.68.34,3.42,3.42,0,0,1-1.49.08,3.8,3.8,0,0,1-.49-.13,1.7,1.7,0,0,1-.33-.15l-.1-.06a1.09,1.09,0,0,1,0-.17l.07,0a3.35,3.35,0,0,0,.62.24,2.71,2.71,0,0,0,1.47,0,1.64,1.64,0,0,0,.53-.26,1.24,1.24,0,0,0,.37-.48,1.45,1.45,0,0,0,.12-.59,1.19,1.19,0,0,0-.23-.72,2,2,0,0,0-.48-.43,4.68,4.68,0,0,0-.55-.29l-.56-.25a3.53,3.53,0,0,1-.5-.28,1.43,1.43,0,0,1-.38-.31,1.49,1.49,0,0,1-.26-.42,1.75,1.75,0,0,1,0-1.27,1.61,1.61,0,0,1,.27-.36l.11-.12a1.68,1.68,0,0,1,.6-.29,3,3,0,0,1,1.23-.08,2.26,2.26,0,0,1,.41.09l.32.12.07,0v.16A2.82,2.82,0,0,0,33.9,12ZM7.8,34.24A.25.25,0,0,1,7.55,34a.26.26,0,0,1,.25-.25H35.45a.26.26,0,0,1,.25.25.25.25,0,0,1-.25.25Zm0,3.19H35.45a.25.25,0,0,1,.25.25.26.26,0,0,1-.25.25H7.8a.26.26,0,0,1-.25-.25A.25.25,0,0,1,7.8,37.43Z" class="fill-background-color" />
  <g class="fill-color">
    <path d="M40.16,11.42V38.76A2.2,2.2,0,0,0,42.27,41h1.22a2.29,2.29,0,0,0,2.33-2.22V11.42Zm3.15,3.68V36.78c0,.27-.5.27-.5,0V15.1a.25.25,0,0,1,.5,0Z" />
    <polygon points="42.38 41.23 42.38 41.23 42.38 41.23 42.38 41.23" />
    <rect x="8.05" y="22.6" width="12.54" height="8.11" />
  </g>
  <g class="stroke-color">
    <path d="M40.66,10.42V6.66H3.09V38.23A3.76,3.76,0,0,0,6.84,42H43.49a3.28,3.28,0,0,0,3.33-3.22V10.42Zm4.66,28.34a1.78,1.78,0,0,1-1.83,1.72H42.31a1.72,1.72,0,0,1-1.65-1.71V11.92h4.66ZM4.59,8.16H39.16V40.48H6.84a2.25,2.25,0,0,1-2.25-2.25ZM42.38,41.23Z" />
    <path d="M43.06,37.53a.76.76,0,0,0,.75-.75V15.1a.75.75,0,0,0-1.5,0V36.78A.75.75,0,0,0,43.06,37.53Z" />
    <path d="M7.8,18.48a.28.28,0,0,0,.08.06l.2.05h.65a.81.81,0,0,0,.21-.05.21.21,0,0,0,.1-.08.14.14,0,0,0,0-.09V14.6c0-.28,0-.55,0-.82L9,13H9c.08.22.18.45.29.68s.21.45.32.65l1.79,3.36a3.47,3.47,0,0,0,.25.45,1.11,1.11,0,0,0,.23.28.55.55,0,0,0,.26.14,1.06,1.06,0,0,0,.33,0h.63a.76.76,0,0,0,.21,0,.42.42,0,0,0,.17-.1.48.48,0,0,0,.12-.16.59.59,0,0,0,0-.23V11.59a.19.19,0,0,0,0-.1.29.29,0,0,0-.1-.08.69.69,0,0,0-.19,0l-.32,0-.33,0-.21,0-.11.08a.19.19,0,0,0,0,.1V15c0,.25,0,.52,0,.8s0,.56,0,.82h0l-.21-.45L12,15.69l-.24-.46-.24-.47-1.4-2.63c0-.09-.08-.14-.11-.21l-.09-.16a1,1,0,0,0-.22-.23.89.89,0,0,0-.26-.12,1.69,1.69,0,0,0-.35,0H8.28a.52.52,0,0,0-.37.13.49.49,0,0,0-.11.14.62.62,0,0,0,0,.25v6.47a.14.14,0,0,0,0,.09S7.8,18.47,7.8,18.48Z" />
    <path d="M15.69,18.57H19.3a.17.17,0,0,0,.1,0,.19.19,0,0,0,.06-.1.58.58,0,0,0,.05-.17,3.65,3.65,0,0,0,0-.54.78.78,0,0,0-.05-.18.2.2,0,0,0-.06-.09.18.18,0,0,0-.1,0H16.71v-2h2.18a.16.16,0,0,0,.09,0,.22.22,0,0,0,.07-.09.71.71,0,0,0,0-.17,2.1,2.1,0,0,0,0-.27,2,2,0,0,0,0-.26.69.69,0,0,0,0-.18.22.22,0,0,0-.07-.09.16.16,0,0,0-.09,0H16.71V12.52h2.57l.09,0a.2.2,0,0,0,.07-.1.61.61,0,0,0,0-.17,2.1,2.1,0,0,0,0-.27v0a1.7,1.7,0,0,0,0-.24.8.8,0,0,0,0-.18.2.2,0,0,0-.07-.1.15.15,0,0,0-.09,0H15.69a.46.46,0,0,0-.31.1.47.47,0,0,0-.12.36v6.27a.45.45,0,0,0,.12.35A.47.47,0,0,0,15.69,18.57Z" />
    <path d="M20.33,11.92,22,18.2a.71.71,0,0,0,.08.21.27.27,0,0,0,.17.12,1,1,0,0,0,.3.06h1a1,1,0,0,0,.29-.06.34.34,0,0,0,.16-.12,1,1,0,0,0,.08-.21l1.09-4.56h0L26.3,18.2a.51.51,0,0,0,.08.21.23.23,0,0,0,.16.12,1,1,0,0,0,.3.06h1a1.13,1.13,0,0,0,.3-.06.3.3,0,0,0,.17-.12.51.51,0,0,0,.09-.21L30,11.94v0a1.5,1.5,0,0,0,.05-.31.21.21,0,0,0-.05-.18.34.34,0,0,0-.2-.07l-.38,0-.4,0a.66.66,0,0,0-.23.05.17.17,0,0,0-.1.1,1.31,1.31,0,0,0-.05.15l-.06.26-1.2,5.23h0l-1.3-5.23-.06-.24A.48.48,0,0,0,26,11.5a.24.24,0,0,0-.12-.1,1.09,1.09,0,0,0-.25-.05H25.2l-.4,0a.72.72,0,0,0-.24.05.18.18,0,0,0-.12.1.38.38,0,0,0-.06.17l-.06.24-1.25,5.23h0l-1.2-5.23-.06-.28a1.23,1.23,0,0,0,0-.16.2.2,0,0,0-.11-.09,1,1,0,0,0-.23,0H21l-.44,0a.45.45,0,0,0-.23.07.24.24,0,0,0-.06.18,1.17,1.17,0,0,0,.06.31Z" />
    <path d="M30.77,18.14a1.07,1.07,0,0,0,.24.17,3.31,3.31,0,0,0,.41.18,3.47,3.47,0,0,0,.56.15,3.88,3.88,0,0,0,.7.06,3.47,3.47,0,0,0,1-.15,2.53,2.53,0,0,0,.85-.43,2.08,2.08,0,0,0,.57-.71,2.26,2.26,0,0,0,.21-1,2.1,2.1,0,0,0-.13-.75,2.12,2.12,0,0,0-.35-.56,2.44,2.44,0,0,0-.5-.4,3.91,3.91,0,0,0-.57-.31l-.56-.25a3.88,3.88,0,0,1-.5-.25,1.36,1.36,0,0,1-.35-.32.63.63,0,0,1-.13-.41.81.81,0,0,1,.06-.31.81.81,0,0,1,.17-.24.72.72,0,0,1,.3-.16,1.33,1.33,0,0,1,.42-.06,2,2,0,0,1,.56.07,3.28,3.28,0,0,1,.45.17l.33.17a.51.51,0,0,0,.19.08.12.12,0,0,0,.1,0s0-.05.06-.1a.92.92,0,0,0,0-.19,2.1,2.1,0,0,0,0-.27V12s0-.08,0-.12v0a.23.23,0,0,0,0-.1.26.26,0,0,0-.07-.1.94.94,0,0,0-.23-.14l-.39-.15a3.39,3.39,0,0,0-.48-.1,2.92,2.92,0,0,0-.51,0,3.19,3.19,0,0,0-.94.13,2.22,2.22,0,0,0-.77.38c-.06.05-.1.11-.16.16a1.75,1.75,0,0,0-.35.49,2,2,0,0,0-.2.91,2,2,0,0,0,.14.77,1.82,1.82,0,0,0,.34.56,2.37,2.37,0,0,0,.49.41,6,6,0,0,0,.56.3l.56.26a2.49,2.49,0,0,1,.49.25,1.52,1.52,0,0,1,.35.31.68.68,0,0,1,.13.42.85.85,0,0,1-.08.39.67.67,0,0,1-.22.28,1.23,1.23,0,0,1-.36.19,1.75,1.75,0,0,1-.48.06,2.5,2.5,0,0,1-.71-.09,2.44,2.44,0,0,1-.53-.21,3.91,3.91,0,0,1-.37-.2.46.46,0,0,0-.22-.09.19.19,0,0,0-.1,0,.44.44,0,0,0-.06.1.78.78,0,0,0,0,.19,2.53,2.53,0,0,0,0,.29,1.92,1.92,0,0,0,0,.39A.51.51,0,0,0,30.77,18.14Z" />
    <path d="M8.55,31.71h13V21.6H7.05V31.71h1.5Zm11.54-1.5H8.55V23.1H20.09Z" />
    <path d="M23.24,23a.75.75,0,0,0,.75.75H35.45a.75.75,0,0,0,0-1.5H24A.75.75,0,0,0,23.24,23Z" />
    <path d="M35.45,25.88H24a.75.75,0,0,0,0,1.5H35.45a.75.75,0,0,0,0-1.5Z" />
    <path d="M35.45,29.56H24a.75.75,0,0,0,0,1.5H35.45a.75.75,0,0,0,0-1.5Z" />
    <path d="M7.8,34.74H35.45a.75.75,0,0,0,0-1.5H7.8a.75.75,0,1,0,0,1.5Z" />
    <path d="M7.8,38.43H35.45a.75.75,0,0,0,0-1.5H7.8a.75.75,0,1,0,0,1.5Z" />
  </g>
</svg>
