<?xml version="1.0" encoding="utf-8"?>
<svg id="icon-up" xmlns="http://www.w3.org/2000/svg" viewBox="0 0 48 48">
  <defs />
  <path d="M21.84,11l-18.42,20a3,3,0,0,0,2.21,5H42.47a3,3,0,0,0,2.21-5L26.26,11A3,3,0,0,0,21.84,11Z" class="fill-color" />
  <path d="M42.47,36.83H5.63a3.75,3.75,0,0,1-2.76-6.28l18.42-20a3.77,3.77,0,0,1,2.76-1.21h0a3.75,3.75,0,0,1,2.76,1.21l18.42,20a3.74,3.74,0,0,1-2.76,6.28ZM22.4,11.53,4,31.56a2.24,2.24,0,0,0,1.65,3.77H42.47a2.25,2.25,0,0,0,1.66-3.77l-18.42-20a2.22,2.22,0,0,0-1.66-.72h0a2.21,2.21,0,0,0-1.65.72Z" class="stroke-color" />
</svg>