<?xml version="1.0" encoding="utf-8"?>
<svg id="icon-all-taken" xmlns="http://www.w3.org/2000/svg" viewBox="0 0 48 48">
  <defs />
  <circle class="fill-color" cx="24" cy="24" r="21" />
  <path class="fill-background-color" d="M37.25,16.35l-.89-.9a2.81,2.81,0,0,0-4,0h0l-12.2,12.2-4.59-4.6a2.79,2.79,0,0,0-3.95,0h0l-.9.9a2.81,2.81,0,0,0,0,4h0l7.44,7.44a2.89,2.89,0,0,0,4,0l15-15a2.81,2.81,0,0,0,0-4Z" />
  <g class="stroke-color">
    <path d="M24,45.75A21.75,21.75,0,1,1,45.75,24,21.78,21.78,0,0,1,24,45.75Zm0-42A20.25,20.25,0,1,0,44.25,24,20.27,20.27,0,0,0,24,3.75Z" />
    <path d="M20.19,36.93a3.62,3.62,0,0,1-2.53-1l-7.45-7.44a3.56,3.56,0,0,1,0-5l.9-.9a3.56,3.56,0,0,1,5,0l4.05,4.07L31.86,14.92a3.56,3.56,0,0,1,5,0l.94.95a3.46,3.46,0,0,1,1,2.47,3.52,3.52,0,0,1-1,2.51l-15,15A3.67,3.67,0,0,1,20.19,36.93ZM13.62,23a2,2,0,0,0-1.44.59l-.91.91a2.06,2.06,0,0,0,0,2.9l7.45,7.45a2.13,2.13,0,0,0,3,0l15-15a2.05,2.05,0,0,0,0-2.9l.52-.54-.53.53-.89-.9a2.05,2.05,0,0,0-2.9,0L20.19,28.71l-5.12-5.13A2,2,0,0,0,13.62,23Z" />
  </g>
</svg>
