<?xml version="1.0" encoding="utf-8"?>
<svg id="Layer_1" data-name="Layer 1" xmlns="http://www.w3.org/2000/svg" viewBox="0 0 48 48">
  <defs />
  <path d="M42.24,5.61,24.4,7.45l.39,3.79-6,.62-.39-3.79L2.21,9.75l3.6,34.78,40-4.14ZM12,33.06l25.44-2.63h0a.26.26,0,0,1,.15.05.28.28,0,0,1,.09.18.22.22,0,0,1-.06.18.26.26,0,0,1-.16.09L12,33.56a.25.25,0,0,1-.25-.22A.26.26,0,0,1,12,33.06Zm-.56-5.47,25.23-4.15a.25.25,0,0,1,.29.21.26.26,0,0,1-.21.29L11.48,28.09a.26.26,0,0,1-.25-.21A.25.25,0,0,1,11.44,27.59Zm25-10.19a.24.24,0,0,1,.15.05.3.3,0,0,1,.1.18.34.34,0,0,1-.06.18.27.27,0,0,1-.17.09L11,20.37a.25.25,0,0,1-.24-.23.23.23,0,0,1,.22-.27L36.44,17.4Z" class="fill-background-color" />
  <rect class="fill-color" x="18.76" y="1.67" width="5.01" height="9.41" transform="translate(-0.54 2.22) rotate(-5.9)" />
  <g class="stroke-color">
    <path d="M43.13,4.51,24.8,6.41,24.17.34l-7,.72.62,6.07L1.12,8.85l3.8,36.78,42-4.35ZM18.84,2.4l4-.41.47,4.57.08.75.08.74.24,2.3-4,.41-.24-2.3-.08-.74L19.31,7Zm-.47,10,7-.72L25,7.9,41.79,6.16l3.5,33.78-39,4L2.76,10.19,18,8.62Z" />
    <path d="M11,20.87h.08L36.53,18.4a.75.75,0,0,0-.15-1.5L10.93,19.37a.75.75,0,0,0,.07,1.5Z" />
    <path d="M36.59,23,11.36,27.1a.75.75,0,0,0,.12,1.49h.12l25.24-4.15a.75.75,0,0,0,.61-.86A.74.74,0,0,0,36.59,23Z" />
    <path d="M12,32.57A.75.75,0,0,0,12,34.06h.08l25.44-2.63a.75.75,0,0,0,.67-.82.74.74,0,0,0-.83-.67Z" />
  </g>
</svg>
