<svg xmlns="http://www.w3.org/2000/svg" viewBox="0 0 48 48">
  <path class="fill-color stroke-color"
        d="M27.47,14.9H2.54A1.86,1.86,0,0,0,.72,16.81V32.52a1.86,1.86,0,0,0,1.82,1.9H7.62L12.76,40l5.15-5.62h9.56a1.86,1.86,0,0,0,1.81-1.9V16.81A1.86,1.86,0,0,0,27.47,14.9Z"
        transform="translate(0.05 0.07)"/>
  <line class="fill-none stroke-color" style="stroke-linecap: round" x1="7.91" y1="21.14" x2="12.88" y2="21.14"/>
  <line class="fill-none stroke-color" style="stroke-linecap: round" x1="7.91" y1="27.65" x2="12.88" y2="27.65"/>
  <path class="fill-background-color stroke-color"
        d="M18.55,6.42H45.38a1.86,1.86,0,0,1,1.8,1.91V24a1.85,1.85,0,0,1-1.8,1.9h-5l-5.11,5.61-5.11-5.61H18.55A1.85,1.85,0,0,1,16.76,24V8.33A1.85,1.85,0,0,1,18.55,6.42Z"
        transform="translate(0.05 0.07)"/>
  <line class="fill-none stroke-color" style="stroke-linecap: round" x1="40.14" y1="12.65" x2="23.89" y2="12.65"/>
  <line class="fill-none stroke-color" style="stroke-linecap: round" x1="40.14" y1="19.17" x2="23.89" y2="19.17"/>
</svg>
