<?xml version="1.0" encoding="utf-8"?>
<svg id="icon-date" xmlns="http://www.w3.org/2000/svg" viewBox="0 0 48 48">
  <defs />
  <g class="fill-background-color">
    <path d="M4.66,16.94V37.15H22.84l.49-1.2,2.58-2.58H22.6V31.12h3.86v1.7l4.9-4.9H29.72V25.67h3.89l5.76-5.75v-3Zm3.7,5.53V20.22h3.85v2.25Zm0,5.45V25.67h3.85v2.25Zm0,5.45V31.12h3.85v2.25Zm7.12-10.9V20.22h3.85v2.25Zm0,5.45V25.67h3.85v2.25Zm0,5.45V31.12h3.85v2.25Zm7.12-10.9V20.22h3.86v2.25Zm0,5.45V25.67h3.86v2.25Zm7.12-5.45V20.22h3.86v2.25Z" />
    <polygon points="39.37 37.15 39.37 30.8 33.02 37.15 39.37 37.15" />
    <polygon points="8.6 12.95 8.6 6.33 7.06 6.46 7.12 13.07 8.6 12.95" />
    <polygon points="15.44 12.95 15.44 6.33 13.9 6.46 13.96 13.07 15.44 12.95" />
    <polygon points="22.75 12.95 22.75 6.33 21.22 6.46 21.27 13.07 22.75 12.95" />
    <polygon points="30.14 12.95 30.14 6.33 28.6 6.46 28.65 13.07 30.14 12.95" />
    <polygon points="37.15 12.95 37.15 6.33 35.62 6.46 35.67 13.07 37.15 12.95" />
    <polygon points="21.75 41.08 23.65 42.97 28.2 41.09 23.63 36.53 21.75 41.08" />
  </g>
  <g class="fill-color">
    <rect x="7.86" y="19.72" width="4.86" height="3.25" />
    <rect x="7.86" y="25.17" width="4.86" height="3.25" />
    <rect x="7.86" y="30.62" width="4.86" height="3.25" />
    <rect x="14.98" y="19.72" width="4.86" height="3.25" />
    <rect x="14.98" y="25.17" width="4.86" height="3.25" />
    <rect x="14.98" y="30.62" width="4.86" height="3.25" />
    <rect x="22.1" y="19.72" width="4.86" height="3.25" />
    <rect x="22.1" y="25.17" width="4.86" height="3.25" />
    <polygon points="22.1 33.87 24.7 33.87 26.96 31.62 26.96 30.62 22.1 30.62 22.1 33.87" />
    <rect x="29.22" y="19.72" width="4.86" height="3.25" />
    <polygon points="29.22 28.42 30.16 28.42 33.41 25.17 29.22 25.17 29.22 28.42" />
    <path d="M39.37,11.72a1.74,1.74,0,0,0-1-1.57l-.72-.35v2.73a1,1,0,0,1-.95,1h-.58a1,1,0,0,1-.95-1V10H30.63v2.56a.94.94,0,0,1-.95,1h-.57a1,1,0,0,1-1-1V10h-4.9v2.56a.94.94,0,0,1-.95,1h-.57a1,1,0,0,1-1-1V10H15.94v2.56a1,1,0,0,1-1,1h-.57a1,1,0,0,1-1-1V10H9.1v2.56a1,1,0,0,1-1,1H7.57a1,1,0,0,1-1-1V9.88L6,10a1.75,1.75,0,0,0-1.33,1.68v4.72H39.37Z" />
    <path d="M41.83,18.16,23.9,36.09l4.74,4.74L46.57,22.9Zm-.37,4.37L36,28a.25.25,0,0,1-.36,0,.24.24,0,0,1-.07-.17.26.26,0,0,1,.07-.18l5.44-5.44a.24.24,0,0,1,.18-.07.26.26,0,0,1,.18.07A.27.27,0,0,1,41.46,22.53Zm-7,6.91a.24.24,0,0,1-.07.17l-2,2a.26.26,0,0,1-.35,0,.25.25,0,0,1,0-.36l2-2a.27.27,0,0,1,.36,0A.26.26,0,0,1,34.44,29.44Z" />
    <polygon points="21.72 42.46 21.34 43.38 21.34 43.38 22.26 43 22.26 43 21.72 42.46" />
  </g>
  <g class="stroke-color">
    <path d="M47.45,22.37l-5.09-5.09-.53-.53-1.46,1.46V11.72A2.76,2.76,0,0,0,38.15,9V6.88A1.45,1.45,0,0,0,36.7,5.42h-.58a1.45,1.45,0,0,0-1.45,1.46V9H31.13V6.88a1.45,1.45,0,0,0-1.45-1.46h-.57a1.46,1.46,0,0,0-1.46,1.46V9h-3.9V6.88A1.45,1.45,0,0,0,22.3,5.42h-.57a1.46,1.46,0,0,0-1.46,1.46V9H16.44V6.88A1.46,1.46,0,0,0,15,5.42h-.57A1.46,1.46,0,0,0,13,6.88V9H9.6V6.88A1.46,1.46,0,0,0,8.14,5.42H7.57A1.46,1.46,0,0,0,6.11,6.88V9a2.74,2.74,0,0,0-2.45,2.72V38.15H21.88l-1.22,3-2.08,5h0l10.48-4.33,3.14-3.14.53-.53h7.64V30.51l7.08-7.08L48,22.9Zm-7.08,6-.75.75-.75.75-6.76,6.76-.75.75-.75.75-2,2-2-2-.75-.75-.75-.75-.56-.56h0l2.22-2.22.13-.13,2.26-2.27.86-.85,2.2-2.2,1.8-1.8,4.79-4.79.75-.75.75-.75,1.46-1.46,4,4Zm-1.5,8.26H34.23L38.87,32ZM21.34,43.38l.38-.92.54.54h0l-.92.38Zm2.42-1L22.34,41l1.17-2.81.3-.74.73.74,2.77,2.77ZM5.16,15.43V11.72a1.22,1.22,0,0,1,1-1.19v2A1.46,1.46,0,0,0,7.57,14h.57A1.46,1.46,0,0,0,9.6,12.53V10.47H13v2.06A1.46,1.46,0,0,0,14.41,14H15a1.45,1.45,0,0,0,1.46-1.45V10.47h3.83v2.06A1.45,1.45,0,0,0,21.73,14h.57a1.45,1.45,0,0,0,1.45-1.45V10.47h3.9v2.06A1.45,1.45,0,0,0,29.11,14h.57a1.45,1.45,0,0,0,1.45-1.45V10.47h3.54v2.06A1.45,1.45,0,0,0,36.12,14h.58a1.45,1.45,0,0,0,1.45-1.45V10.6a1.24,1.24,0,0,1,.72,1.12v4.22H5.16ZM7.58,9V6.92l.53,0v5.61l-.49,0V9Zm6.85,0,0-2.05.53,0v5.61l-.49,0V9Zm7.31,0V6.92l.52,0v5.61l-.48,0,0-2.06V9Zm7.38,0V6.92l.52,0v5.61l-.48,0,0-2.06V9Zm7,0,0-2.05.53,0v5.61l-.48,0,0-2.06V9Zm-31,8.47H38.87v2.27l-5.46,5.46-3.25,3.25L27,31.62,24.7,33.87,23,35.56l-.11.1-.41,1H5.16Z" />
    <path d="M40.75,21.82l-.38.38-.75.75-.75.75-3.56,3.56a.75.75,0,0,0,0,1.06.75.75,0,0,0,1.06,0l2.5-2.5.75-.75.75-.75,1.44-1.44a.75.75,0,0,0-1.06-1.06Z" />
    <path d="M33.66,28.91,32,30.62l-.28.28a.74.74,0,0,0,0,1.06.71.71,0,0,0,.53.22.74.74,0,0,0,.53-.22l1.34-1.34.65-.65a.75.75,0,0,0,0-1.06A.74.74,0,0,0,33.66,28.91Z" />
  </g>
</svg>
