<svg xmlns="http://www.w3.org/2000/svg" viewBox="0 0 48 48">
  <path class="fill-color"
        d="M4.66,44.89c.61-3.8,4.34-17.54,8.27-17.72.93.31,8.35,2.79,11,2.79s10.1-2.48,11-2.79c4.25.15,8.09,12.34,8.33,17.72Z"
        transform="translate(0.05 0.07)"/>
  <path class="fill-stroke-color"
        d="M35,27.67c3.51.3,7.29,11.1,7.73,16.72H5.26C6.09,40,9.59,28,12.87,27.67c1.43.49,8.4,2.78,11.08,2.78s9.67-2.3,11.09-2.78m-.15-1S26.69,29.45,24,29.45,13,26.67,13,26.67c-4.9,0-8.74,16.88-8.92,18.72H43.81c0-5.15-4-18.72-8.92-18.72Z"
        transform="translate(0.05 0.07)"/>
  <line class="fill-none stroke-color" style="stroke-linecap: round" x1="14.13" y1="35.39" x2="14.13" y2="44.75"/>
  <line class="fill-none stroke-color" style="stroke-linecap: round" x1="33.87" y1="35.39" x2="33.87" y2="44.75"/>
  <path class="fill-color"
        d="M20.07,3.21A6.46,6.46,0,0,0,21.89,7.5c-.11,3.22-3.58,5.41-7.06,5.5a12.58,12.58,0,0,1-.09-1.5C14.74,7.28,16.92,4.44,20.07,3.21Z"
        transform="translate(0.05 0.07)"/>
  <path class="fill-color"
        d="M21.89,7.5a6.46,6.46,0,0,1-1.82-4.29A10.46,10.46,0,0,1,24,2.5c5.09,0,9.21,3.2,9.21,9C28.35,11.5,24.15,10,21.89,7.5Z"
        transform="translate(0.05 0.07)"/>
  <path class="fill-none stroke-color"
        d="M33.16,11.5c0,5.8-4.12,12-9.21,12-4.64,0-8.49-5.19-9.12-10.51a12.58,12.58,0,0,1-.09-1.5c0-4.22,2.18-7.06,5.33-8.29A10.46,10.46,0,0,1,24,2.5C29,2.5,33.16,5.7,33.16,11.5Z"
        transform="translate(0.05 0.07)"/>
  <path class="fill-none stroke-color" d="M20.06,3a1.09,1.09,0,0,0,0,.18A6.46,6.46,0,0,0,21.89,7.5c2.26,2.49,6.46,4,11.27,4"
        transform="translate(0.05 0.07)"/>
  <path class="fill-none stroke-color" d="M21.89,7.35V7.5c-.11,3.22-3.58,5.41-7.06,5.5h-.24" transform="translate(0.05 0.07)"/>
</svg>
