<?xml version="1.0" encoding="utf-8"?>
<svg id="icon-not-taken" xmlns="http://www.w3.org/2000/svg" viewBox="0 0 48 48">
  <defs />
  <circle class="fill-color" cx="24" cy="24" r="21" />
  <path d="M28.86,24,34,18.91a2.81,2.81,0,0,0,0-4h0l-.9-.89a2.81,2.81,0,0,0-4,0h0L24,19.14l-5.09-5.09a2.81,2.81,0,0,0-4,0h0l-.89.9a2.8,2.8,0,0,0,0,4h0L19.14,24l-5.09,5.08a2.81,2.81,0,0,0,0,4h0L15,34a2.8,2.8,0,0,0,4,0h0L24,28.86,29.1,34a2.8,2.8,0,0,0,4,0h0l.89-.89a2.8,2.8,0,0,0,0-4h0Z" class="fill-background-color" />
  <g class="stroke-color">
    <path d="M24,45.75A21.75,21.75,0,1,1,45.75,24,21.78,21.78,0,0,1,24,45.75Zm0-42A20.25,20.25,0,1,0,44.25,24,20.27,20.27,0,0,0,24,3.75Z" />
    <path d="M31.08,35.53h0a3.49,3.49,0,0,1-2.5-1.05L24,29.92l-4.57,4.57a3.54,3.54,0,0,1-5,0l-.9-.89a3.56,3.56,0,0,1,0-5L18.08,24l-4.56-4.56a3.56,3.56,0,0,1-1-2.53,3.49,3.49,0,0,1,1-2.5l.89-.9a3.57,3.57,0,0,1,2.52-1h0a3.52,3.52,0,0,1,2.51,1L24,18.08l4.55-4.56a3.56,3.56,0,0,1,2.51-1h0a3.52,3.52,0,0,1,2.51,1l.89.89a3.55,3.55,0,0,1,0,5L29.92,24l4.57,4.56a3.55,3.55,0,0,1,0,5l-.93.93A3.5,3.5,0,0,1,31.08,35.53ZM24,27.8l5.62,5.62a2,2,0,0,0,1.45.61,2,2,0,0,0,1.45-.6l.9-.9a2.05,2.05,0,0,0,0-2.9L27.79,24l5.63-5.62a2.05,2.05,0,0,0,0-2.9l-.9-.89A2,2,0,0,0,31.07,14h0a2,2,0,0,0-1.44.6L24,20.21l-5.62-5.63a2.05,2.05,0,0,0-2.9,0l-.9.9a2,2,0,0,0,0,2.9L20.2,24l-5.62,5.61a2.05,2.05,0,0,0,0,2.9l.9.9a2,2,0,0,0,2.9,0Z" />
  </g>
</svg>
