<?xml version="1.0" encoding="utf-8"?>
<svg id="icon-export" xmlns="http://www.w3.org/2000/svg" viewBox="0 0 48 48">
  <defs />
  <g class="fill-color">
    <path d="M41.07,26.79H30.64V29.7H17.26V26.79H6.84a4,4,0,0,0-4,4V37a4,4,0,0,0,4,4H41.07a4,4,0,0,0,4-4V30.79A4,4,0,0,0,41.07,26.79Z" />
    <polygon points="19.26 15.58 19.26 27.7 28.64 27.7 28.64 15.58 32.98 15.58 23.95 7.76 14.93 15.58 19.26 15.58" />
  </g>
  <g class="fill-background-color">
    <circle cx="28.34" cy="35.83" r="1.81" />
    <circle cx="34.1" cy="35.83" r="1.81" />
    <circle cx="39.85" cy="35.83" r="1.81" />
  </g>
  <g class="stroke-color">
    <path d="M41.07,41.75H6.84A4.75,4.75,0,0,1,2.09,37V30.79A4.75,4.75,0,0,1,6.84,26h10.4v1.5H6.84a3.25,3.25,0,0,0-3.25,3.25V37a3.25,3.25,0,0,0,3.25,3.25H41.07A3.26,3.26,0,0,0,44.32,37V30.79a3.26,3.26,0,0,0-3.25-3.25H30.69V26H41.07a4.75,4.75,0,0,1,4.75,4.75V37A4.75,4.75,0,0,1,41.07,41.75Z" />
    <path d="M29.39,28.45H18.51V16.33h-5.6L24,6.77l11,9.56h-5.6ZM20,27h7.88V14.83H31L24,8.76l-7,6.07H20Z" />
  </g>
</svg>
