<svg xmlns="http://www.w3.org/2000/svg" viewBox="0 0 48 48">
  <path class="fill-color stroke-color" d="M16.88,9H31.12a8,8,0,0,1,8,8V42.52a4,4,0,0,1-4,4H12.88a4,4,0,0,1-4-4V17a8,8,0,0,1,8-8Z"/>
  <rect class="fill-background-color stroke-color" x="11.11" y="1.48" width="25.79" height="8.67" rx="3.08"/>
  <line class="fill-none stroke-color" style="stroke-linecap: round" x1="16.04" y1="4.63" x2="16.04" y2="7.41"/>
  <line class="fill-none stroke-color" style="stroke-linecap: round" x1="20.07" y1="4.63" x2="20.07" y2="7.41"/>
  <line class="fill-none stroke-color" style="stroke-linecap: round" x1="24.1" y1="4.63" x2="24.1" y2="7.41"/>
  <line class="fill-none stroke-color" style="stroke-linecap: round" x1="28.13" y1="4.63" x2="28.13" y2="7.41"/>
  <line class="fill-none stroke-color" style="stroke-linecap: round" x1="32.16" y1="4.63" x2="32.16" y2="7.41"/>
  <rect class="fill-background-color stroke-color" x="11.66" y="16.67" width="24.68" height="22.82" rx="3"/>
  <path class="fill-color" d="M23,21.55A4.43,4.43,0,1,0,16.94,28L20,30.9s-.39-2.13,1.92-4.37A6.71,6.71,0,0,1,26.71,25Z"
        transform="translate(0.05 0.07)"/>
  <rect class="fill-none stroke-color" x="18.94" y="18.9" width="8.87" height="18.43" rx="3.15"
        transform="translate(-12.98 24.83) rotate(-45)"/>
  <path class="fill-none stroke-color" d="M19.87,30.88c0-3.14,3.43-6.62,6.86-5.68" transform="translate(0.05 0.07)"/>
  <path class="fill-none stroke-color" style="stroke-linecap: round" d="M26.29,28.19l1.64,1.64a2.48,2.48,0,0,1,0,3.51h0" transform="translate(0.05 0.07)"/>
</svg>
