<?xml version="1.0" encoding="utf-8"?>
<!-- Generator: Adobe Illustrator 25.1.0, SVG Export Plug-In . SVG Version: 6.00 Build 0)  -->
<svg version="1.1" id="icon-evening" xmlns="http://www.w3.org/2000/svg" xmlns:xlink="http://www.w3.org/1999/xlink" x="0px" y="0px" viewBox="0 0 48 48" style="enable-background:new 0 0 48 48;" xml:space="preserve">

<path class="fill-color" d="M33.9,35.7c-1.3-4.3-5.4-7.4-9.9-7.4c-4.5,0-8.6,3-9.9,7.4l-0.2,0.6h20.2L33.9,35.7z" />
<path class="stroke-color" d="M46.7,35.8h-6.4h-5.4c-1.3-5-5.8-8.5-11-8.5c-5.2,0-9.7,3.5-11,8.5H7.5H1.2  c-0.4,0-0.8,0.3-0.8,0.8s0.3,0.8,0.8,0.8h45.6c0.4,0,0.8-0.3,0.8-0.8S47.2,35.8,46.7,35.8z M24,28.8c4.4,0,8.2,2.9,9.4,7H14.5  C15.7,31.7,19.6,28.8,24,28.8z" />
</svg>