<svg xmlns="http://www.w3.org/2000/svg" viewBox="0 0 48 48">
  <path class="fill-color stroke-color" d="M10.65,7H40.4a0,0,0,0,1,0,0V42.46a0,0,0,0,1,0,0H10.65a2,2,0,0,1-2-2V9A2,2,0,0,1,10.65,7Z"/>
  <rect class="fill-background-color stroke-color" x="5.25" y="10.67" width="6.79" height="3.11" rx="1.1"/>
  <rect class="fill-background-color stroke-color" x="5.25" y="19.07" width="6.79" height="3.11" rx="1.1"/>
  <rect class="fill-background-color stroke-color" x="5.25" y="27.47" width="6.79" height="3.11" rx="1.1"/>
  <rect class="fill-background-color stroke-color" x="5.25" y="35.87" width="6.79" height="3.11" rx="1.1"/>
  <rect class="fill-background-color stroke-color" x="15.5" y="6.98" width="24.9" height="35.47"/>
  <rect class="fill-color stroke-color" x="18.17" y="13.21" width="19.31" height="5.07"/>
</svg>
