<?xml version="1.0" encoding="utf-8"?>
<svg id="icon-emergency-call" xmlns="http://www.w3.org/2000/svg" viewBox="0 0 48 48">
  <defs />
  <g class="fill-background-color">
    <path d="M42.25,1.54H21.56a1.54,1.54,0,0,0-1.5,1.59V18.31a1.55,1.55,0,0,0,1.5,1.6h5l4.87,5.3,4.86-5.3h5.94a1.55,1.55,0,0,0,1.5-1.6V3.13A1.54,1.54,0,0,0,42.25,1.54ZM34,12.9V16a1.29,1.29,0,0,1-.19.69,1.53,1.53,0,0,1-.56.48,3.28,3.28,0,0,1-.61.18,7.06,7.06,0,0,1-1.45,0,2.35,2.35,0,0,1-.67-.19,1.26,1.26,0,0,1-.54-.42,1.24,1.24,0,0,1-.24-.75V12.9H27a1.24,1.24,0,0,1-.69-.21,1.34,1.34,0,0,1-.46-.53,2,2,0,0,1-.2-.59,4.15,4.15,0,0,1-.06-.73,3.76,3.76,0,0,1,.06-.71,2.23,2.23,0,0,1,.15-.58A1.69,1.69,0,0,1,26.27,9,1.29,1.29,0,0,1,27,8.77h2.77V5.7A1.29,1.29,0,0,1,30,5a1.31,1.31,0,0,1,.6-.5,2.27,2.27,0,0,1,.58-.16,5.25,5.25,0,0,1,1.48,0,2.13,2.13,0,0,1,.59.15A1.3,1.3,0,0,1,34,5.7V8.77h2.79a1.35,1.35,0,0,1,.63.17,1.59,1.59,0,0,1,.53.63,2.76,2.76,0,0,1,.17.58,4.58,4.58,0,0,1,0,.69,4.49,4.49,0,0,1,0,.69,2.24,2.24,0,0,1-.18.6,1.42,1.42,0,0,1-.53.58,1.17,1.17,0,0,1-.66.19Z" />
    <path d="M26,35.26a6.53,6.53,0,0,0-1.27,2l-.07.23-.22,0c-.2,0-4.84-.89-9.4-5.8s-4.8-7.33-4.81-7.43v-.07l0-.06a10,10,0,0,1,1.55-1.74l.24-.25L6.67,9.92,6.26,10a4.34,4.34,0,0,0-.72.24A6.27,6.27,0,0,0,2.68,13l-.09.17A7.08,7.08,0,0,0,2.2,14l-.06.15,0,.15A61.63,61.63,0,0,0,6.87,27.08l.32.48.47-.36a.29.29,0,0,1,.18,0,.25.25,0,0,1,.14.13A23.73,23.73,0,0,0,9.7,30.19a.25.25,0,0,1-.1.36l-.52.26.34.47c.16.23.33.46.5.68l.35.46.4-.42s.05-.05,0,0a.28.28,0,0,1,.36,0,25.06,25.06,0,0,0,2.61,2.82l.06.06a23.6,23.6,0,0,0,6.12,4.2.24.24,0,0,1,.11.31l-.14.41.37.2a87.43,87.43,0,0,0,12.65,5.55l.18.06.16-.06a7.32,7.32,0,0,0,.75-.29l.17-.09A5.8,5.8,0,0,0,36,43.68a12.48,12.48,0,0,0,1.25-1.84l.23-.43-11.2-6.48Z" />
  </g>
  <g class="fill-color">
    <path d="M26.32,11.93h0a.86.86,0,0,0,.3.35.73.73,0,0,0,.41.12h3.24V16a.77.77,0,0,0,.15.46.73.73,0,0,0,.33.25,2.26,2.26,0,0,0,.56.16l.56,0a5.64,5.64,0,0,0,.73,0,1.86,1.86,0,0,0,.5-.15.86.86,0,0,0,.33-.3.7.7,0,0,0,.1-.4V12.4h3.25a.7.7,0,0,0,.4-.11.94.94,0,0,0,.34-.39,1.59,1.59,0,0,0,.13-.46,3.39,3.39,0,0,0,0-.6,3.74,3.74,0,0,0,0-.61,1.44,1.44,0,0,0-.13-.45v0l0-.06-.19-.18-.14-.12-.3.36L37,9.3l-3.5,0V5.7a.82.82,0,0,0-.12-.43A.8.8,0,0,0,33,5a1.9,1.9,0,0,0-.45-.12,5.29,5.29,0,0,0-1.32,0,1.84,1.84,0,0,0-.46.13.76.76,0,0,0-.38.31.79.79,0,0,0-.14.44V9.27H27a.72.72,0,0,0-.45.15,1.12,1.12,0,0,0-.27.36,1.82,1.82,0,0,0-.11.43,4,4,0,0,0-.05.63,4,4,0,0,0,.05.64A1.69,1.69,0,0,0,26.32,11.93Z" />
    <path d="M37.78,37.72l-.07-.15L29,32.65l-.25.17a11.41,11.41,0,0,0-1.63,1.27l-.49.46L37.66,41l.17-.62A3.8,3.8,0,0,0,37.78,37.72Z" />
    <path d="M12.94,21.15a12.08,12.08,0,0,0,1.35-1.94l.12-.22-4-8.75-.22-.07A9.29,9.29,0,0,0,8,9.84H7.18l5.24,11.93Z" />
    <path d="M20.66,39.12l-.51-.27-.21.6a.27.27,0,0,1-.32.09,24.68,24.68,0,0,1-6.25-4.3l-.11-.1a27.24,27.24,0,0,1-2.61-2.83.24.24,0,0,1,0-.31l.29-.31-.26-.34-.48-.65L10,30.35l-.38.19a.18.18,0,0,1-.11,0,.26.26,0,0,1-.21-.11,23.3,23.3,0,0,1-1.75-2.93.26.26,0,0,1,.09-.3L8,27l-.19-.37A60.41,60.41,0,0,1,3.15,14.08l-.38-1.5L2.2,14a8.08,8.08,0,0,0-.48,1.59c-.75,3.92,1.05,12.7,9,20.82l.19.2.22.21.9.86A34,34,0,0,0,23.6,44.92l.15,0a18.6,18.6,0,0,0,6,1.12,10.37,10.37,0,0,0,3.4-.53l1.36-.47-1.36-.47A87.7,87.7,0,0,1,20.66,39.12Z" />
  </g>
  <g class="stroke-color">
    <path d="M42.25.54H21.56a2.55,2.55,0,0,0-2.5,2.59V18.31a2.56,2.56,0,0,0,2.5,2.6h4.58l5.31,5.78,5.3-5.78h5.5a2.56,2.56,0,0,0,2.5-2.6V3.13A2.55,2.55,0,0,0,42.25.54Zm1,17.77a1.05,1.05,0,0,1-1,1.1H36.09l-4.64,5.06L26.8,19.41H21.56a1.05,1.05,0,0,1-1-1.1V3.13a1.05,1.05,0,0,1,1-1.09H42.25a1.05,1.05,0,0,1,1,1.09Z" />
    <path d="M38.64,10.06a2.81,2.81,0,0,0-.22-.72,2,2,0,0,0-.68-.81,1.86,1.86,0,0,0-.92-.26H34.53V5.7a1.85,1.85,0,0,0-.26-.94A1.93,1.93,0,0,0,33.45,4a3,3,0,0,0-.74-.2,6.21,6.21,0,0,0-1.61,0,2.59,2.59,0,0,0-.72.21A1.82,1.82,0,0,0,29.27,5.7V8.27H27a1.67,1.67,0,0,0-1,.33,1.9,1.9,0,0,0-.6.72,2.74,2.74,0,0,0-.21.75,4.22,4.22,0,0,0-.06.77,4.79,4.79,0,0,0,.06.81,2.65,2.65,0,0,0,.26.75,2,2,0,0,0,.62.71,1.8,1.8,0,0,0,1,.29h2.24V16a1.78,1.78,0,0,0,1.08,1.63,3.83,3.83,0,0,0,.79.23,7.64,7.64,0,0,0,.77,0,6.64,6.64,0,0,0,.81-.05,3.23,3.23,0,0,0,.75-.22,2,2,0,0,0,.78-.65,1.75,1.75,0,0,0,.28-1V13.4h2.25a1.71,1.71,0,0,0,.95-.27,2.06,2.06,0,0,0,.68-.77,2.75,2.75,0,0,0,.23-.75,4.25,4.25,0,0,0,0-.77,4.32,4.32,0,0,0,0-.77Zm-1.48,1.3a1.47,1.47,0,0,1-.09.34.52.52,0,0,1-.16.17.21.21,0,0,1-.13,0H33V16a.49.49,0,0,1,0,.14.51.51,0,0,1-.15.12,1.4,1.4,0,0,1-.35.1,7.57,7.57,0,0,1-1.16,0,1.66,1.66,0,0,1-.39-.11.39.39,0,0,1-.14-.1.23.23,0,0,1-.05-.16V11.9H27a.33.33,0,0,1-.14,0,.48.48,0,0,1-.13-.16,1.41,1.41,0,0,1-.1-.31,3,3,0,0,1,0-.55,3.16,3.16,0,0,1,0-.55,1.48,1.48,0,0,1,.07-.3.79.79,0,0,1,.13-.18.25.25,0,0,1,.14,0h3.77V5.7a.35.35,0,0,1,.06-.17A.28.28,0,0,1,31,5.41a1.51,1.51,0,0,1,.35-.1,4.92,4.92,0,0,1,1.15,0,1.18,1.18,0,0,1,.34.09c.1,0,.14.09.15.12A.34.34,0,0,1,33,5.7V9.77h3.79s.12,0,.09,0a.54.54,0,0,1,.16.2,1.49,1.49,0,0,1,.09.34,3.84,3.84,0,0,1,0,.52A3.74,3.74,0,0,1,37.16,11.36Z" />
    <path d="M20.05,38.63a23.22,23.22,0,0,1-6-4.12L14,34.44a24.77,24.77,0,0,1-2.54-2.75.76.76,0,0,0-1.06-.12l-.07.09a.74.74,0,0,0-.05,1,28.19,28.19,0,0,0,2.66,2.87.67.67,0,0,0,.16.14A24.74,24.74,0,0,0,19.41,40a.71.71,0,0,0,.32.07.76.76,0,0,0,.68-.43.15.15,0,0,0,0-.07A.73.73,0,0,0,20.05,38.63Z" />
    <path d="M10.11,29.91a20.63,20.63,0,0,1-1.67-2.8.75.75,0,0,0-1-.36.57.57,0,0,0-.13.1.74.74,0,0,0-.23.9,22.87,22.87,0,0,0,1.79,3,.74.74,0,0,0,.62.33A.63.63,0,0,0,9.82,31l.1,0A.75.75,0,0,0,10.11,29.91Z" />
    <path d="M38.4,36.81,29,31.52l-.36.19a12.06,12.06,0,0,0-3,2.4A10.45,10.45,0,0,0,24,36.34,18.69,18.69,0,0,1,15.75,31c-3.46-3.71-4.3-5.9-4.49-6.59.21-.24.66-.75,1.6-1.69a12.24,12.24,0,0,0,2.51-3.42L15.5,19,11.1,9.45l-.29-.11a8.92,8.92,0,0,0-4.08-.42,6,6,0,0,0-1.59.43,7.28,7.28,0,0,0-3.3,3.08l-.15.08,0,.28a9.22,9.22,0,0,0-.92,2.63C0,19.55,1.78,28.73,10.06,37.13l.15.16c.38.37.78.76,1.19,1.14a35,35,0,0,0,11.87,7.43l.15,0a19.6,19.6,0,0,0,6.37,1.18,10.68,10.68,0,0,0,4.47-.89l.17-.08a6.84,6.84,0,0,0,2.31-1.8,12.12,12.12,0,0,0,1.71-2.72c1.25-2.89.09-4.58,0-4.65Zm-4.69,8a6.15,6.15,0,0,1-.71.28c-2.35.82-5.6.62-9.09-.59l-.18-.06a33.34,33.34,0,0,1-11.31-7.1c-.41-.38-.79-.75-1.11-1.06l-.19-.2c-7.86-8-9.64-16.55-8.91-20.37a8.15,8.15,0,0,1,.45-1.5A7.59,7.59,0,0,1,3,13.38l.09-.17a5.76,5.76,0,0,1,2.62-2.48,4.13,4.13,0,0,1,.65-.22L11.44,22a13.22,13.22,0,0,0-1.65,1.88l-.09.18v.2c0,.27.32,2.79,4.94,7.74s9.48,5.91,9.68,6l.66.1.19-.63a6.37,6.37,0,0,1,1.19-1.85l10.41,6a11.45,11.45,0,0,1-1.2,1.76,5.37,5.37,0,0,1-1.72,1.37ZM10,10.65,13.85,19a11.43,11.43,0,0,1-1.29,1.85L8,10.34A8.71,8.71,0,0,1,10,10.65ZM27.43,34.46A11.13,11.13,0,0,1,29,33.24l8.35,4.69a3.37,3.37,0,0,1,0,2.27Z" />
  </g>
</svg>
