<?xml version="1.0" encoding="utf-8"?>
<svg id="icon-digital-patient-file" xmlns="http://www.w3.org/2000/svg" viewBox="0 0 48 48">
  <defs />
  <g class="fill-background-color">
    <path d="M8,14.46V41.64H42.25A2.76,2.76,0,0,0,45,38.89V14.46Zm30.67,13.4A11.84,11.84,0,1,1,26.86,16,11.85,11.85,0,0,1,38.69,27.86Z" />
    <path d="M33.51,26.57a1.12,1.12,0,0,0-.38-.45.86.86,0,0,0-.49-.15H28.82V21.81a1.07,1.07,0,0,0-.15-.53,1,1,0,0,0-.45-.38,2.29,2.29,0,0,0-.59-.17,6.61,6.61,0,0,0-1.54,0,2.17,2.17,0,0,0-.59.17,1,1,0,0,0-.46.39,1,1,0,0,0-.16.52V26H21.07a.89.89,0,0,0-.53.18,1,1,0,0,0-.33.42,1.68,1.68,0,0,0-.16.57,4.87,4.87,0,0,0-.05.72,4,4,0,0,0,.06.74,1.91,1.91,0,0,0,.18.57.94.94,0,0,0,.36.42.86.86,0,0,0,.51.16h3.77v4.17a.86.86,0,0,0,.19.56,1.07,1.07,0,0,0,.43.34,2.49,2.49,0,0,0,.59.16,5.78,5.78,0,0,0,.77,0,5.88,5.88,0,0,0,.77,0,2.69,2.69,0,0,0,.58-.16,1,1,0,0,0,.46-.38.93.93,0,0,0,.15-.52V29.75H32.6a1,1,0,0,0,.52-.15,1.17,1.17,0,0,0,.37-.42,2.06,2.06,0,0,0,.18-.59,4.81,4.81,0,0,0,0-.73,5.35,5.35,0,0,0,0-.73A2.1,2.1,0,0,0,33.51,26.57Z" />
  </g>
  <g class="fill-color">
    <path d="M25.24,10.91V7.5a2.32,2.32,0,0,0-2.32-2.32H5.58A2.32,2.32,0,0,0,3.26,7.5V39.32a2.3,2.3,0,0,0,1.48,2.15l0,.17h.57l.15,0a2.31,2.31,0,0,0,2.08-2.29V14H40.87V10.91Zm-1.75-.57c0,.28-.5.28-.5,0V7.61l-.39-.09-3.18,0a.25.25,0,0,1-.25-.25A.25.25,0,0,1,19.42,7h3a1,1,0,0,1,1.06.9ZM17.23,7.25A.25.25,0,0,1,17,7.5H6.11l-.56.11v4c0,.27-.5.27-.5,0V7.9A1,1,0,0,1,6.11,7H17A.25.25,0,0,1,17.23,7.25Z" />
    <path d="M26.86,16.52A11.34,11.34,0,1,0,38.19,27.86,11.36,11.36,0,0,0,26.86,16.52ZM32.6,30.25H29.32v3.67a1.47,1.47,0,0,1-.23.8,1.71,1.71,0,0,1-.68.56,2.72,2.72,0,0,1-.71.19,6.83,6.83,0,0,1-1.69,0,2.79,2.79,0,0,1-.72-.2,1.65,1.65,0,0,1-.63-.49,1.5,1.5,0,0,1-.28-.86V30.25H21.11a1.39,1.39,0,0,1-.79-.24,1.67,1.67,0,0,1-.53-.61,2.37,2.37,0,0,1-.23-.71,5,5,0,0,1-.06-.83,6.35,6.35,0,0,1,.05-.8,2.71,2.71,0,0,1,.2-.71,1.75,1.75,0,0,1,.5-.62,1.45,1.45,0,0,1,.82-.26h3.31V21.81a1.53,1.53,0,0,1,.24-.8,1.5,1.5,0,0,1,.67-.57,2.76,2.76,0,0,1,.73-.2,6.83,6.83,0,0,1,1.69,0,2.37,2.37,0,0,1,.71.2,1.46,1.46,0,0,1,.68.59,1.62,1.62,0,0,1,.22.78v3.66h3.32a1.42,1.42,0,0,1,.77.23,1.55,1.55,0,0,1,.55.66,2.4,2.4,0,0,1,.2.67v0a4.66,4.66,0,0,1,.06.8,4.79,4.79,0,0,1-.06.81,2.48,2.48,0,0,1-.22.74,1.63,1.63,0,0,1-.55.61A1.48,1.48,0,0,1,32.6,30.25Z" />
  </g>
  <g class="stroke-color">
    <path d="M41.87,13.46V9.91H26.24V7.5a3.32,3.32,0,0,0-3.32-3.32H5.58A3.32,3.32,0,0,0,2.26,7.5V39.32A3.31,3.31,0,0,0,5.2,42.6v0l.19,0,.19,0H42.25A3.76,3.76,0,0,0,46,38.89V13.46ZM44.5,38.89a2.25,2.25,0,0,1-2.25,2.25H8.52V15h36Zm-40.74.43V7.5A1.83,1.83,0,0,1,5.58,5.68H22.92A1.83,1.83,0,0,1,24.74,7.5v3.91H40.37v2.05H7V39.32a1.82,1.82,0,0,1-1.63,1.8H5.28v0A1.82,1.82,0,0,1,3.76,39.32Z" />
    <path d="M26.86,15.52A12.34,12.34,0,1,0,39.19,27.86,12.35,12.35,0,0,0,26.86,15.52ZM16,27.86A10.84,10.84,0,1,1,26.86,38.69,10.85,10.85,0,0,1,16,27.86Z" />
    <path d="M34.72,27.86a5.8,5.8,0,0,0-.06-.88h0a3.26,3.26,0,0,0-.25-.83,2.06,2.06,0,0,0-.72-.85,1.9,1.9,0,0,0-1-.32H29.82V21.81a2.16,2.16,0,0,0-.28-1,2,2,0,0,0-.91-.8,3.4,3.4,0,0,0-.85-.24,8.09,8.09,0,0,0-1.84,0,3,3,0,0,0-.86.25,2,2,0,0,0-.88.75,1.94,1.94,0,0,0-.32,1.07V25H21.07a1.92,1.92,0,0,0-1.1.35,2.12,2.12,0,0,0-.67.82,3.17,3.17,0,0,0-.24.85,5.75,5.75,0,0,0-.06.87,5,5,0,0,0,.07.92,2.8,2.8,0,0,0,.28.86,2.09,2.09,0,0,0,.69.78,1.85,1.85,0,0,0,1.07.33h2.77v3.17a1.93,1.93,0,0,0,.38,1.15,2,2,0,0,0,.83.66,3.17,3.17,0,0,0,.85.24,6.17,6.17,0,0,0,.92.06,6,6,0,0,0,.91-.06,3.28,3.28,0,0,0,.85-.24A2,2,0,0,0,29.5,35a2,2,0,0,0,.32-1.08V30.75H32.6a2,2,0,0,0,1-.3,2.2,2.2,0,0,0,.73-.81,3.21,3.21,0,0,0,.28-.89A5.75,5.75,0,0,0,34.72,27.86Zm-1.54.65a1.22,1.22,0,0,1-.13.43.71.71,0,0,1-.2.24.45.45,0,0,1-.25.07H28.32v4.67a.46.46,0,0,1-.07.25.55.55,0,0,1-.25.2,1.9,1.9,0,0,1-.45.11,5.39,5.39,0,0,1-1.39,0,1.34,1.34,0,0,1-.45-.12.67.67,0,0,1-.24-.17.44.44,0,0,1-.09-.27V29.25H21.11a.37.37,0,0,1-.23-.07.61.61,0,0,1-.2-.24,1.29,1.29,0,0,1-.13-.43,3.82,3.82,0,0,1-.05-.65,4,4,0,0,1,0-.64,1.7,1.7,0,0,1,.12-.44.54.54,0,0,1,.17-.23.46.46,0,0,1,.24-.08h4.31V21.81a.5.5,0,0,1,.08-.26.63.63,0,0,1,.25-.2,1.34,1.34,0,0,1,.46-.12,5.39,5.39,0,0,1,1.39,0,1.34,1.34,0,0,1,.45.12.45.45,0,0,1,.23.19.56.56,0,0,1,.08.27v4.66h4.32a.41.41,0,0,1,.22.07.5.5,0,0,1,.2.25,1.53,1.53,0,0,1,.12.42,6,6,0,0,1,0,.65A5.49,5.49,0,0,1,33.18,28.51Z" />
    <path d="M6.05,11.65V8H17a.75.75,0,0,0,0-1.5H6.11A1.49,1.49,0,0,0,4.55,7.9v3.75a.75.75,0,0,0,1.5,0Z" />
    <path d="M19.42,8h3.07v2.33a.75.75,0,0,0,1.5,0V7.9a1.49,1.49,0,0,0-1.56-1.4h-3a.75.75,0,0,0,0,1.5Z" />
  </g>
</svg>
