<?xml version="1.0" encoding="utf-8"?>
<svg id="icon-night" xmlns="http://www.w3.org/2000/svg" viewBox="0 0 48 48">
  <defs />
  <path d="M26.89,5.22a18.88,18.88,0,0,1-16,32.45,18.95,18.95,0,1,0,16-32.45Z" class="fill-color" />
  <path d="M24,43.64A19.59,19.59,0,0,1,10.4,38.22L8.65,36.56l2.38.37a17.31,17.31,0,0,0,2.82.24A18.23,18.23,0,0,0,32.06,19a18,18,0,0,0-5.69-13.2L24.63,4.11,27,4.48A19.7,19.7,0,0,1,24,43.64Zm-10.68-5A18.2,18.2,0,1,0,29.08,6.47,19.45,19.45,0,0,1,33.56,19,19.73,19.73,0,0,1,13.85,38.67Z" class="stroke-color" />
</svg>