<?xml version="1.0" encoding="utf-8"?>
<svg id="icon-findings" xmlns="http://www.w3.org/2000/svg" viewBox="0 0 48 48">
  <defs />
  <path d="M29.26,9.42l-.13.09a3.91,3.91,0,0,1-2.23.61H21a3.91,3.91,0,0,1-2.23-.61l-.13-.09H13.15V40H34.36V9.42ZM16.42,34.69H30.91a.26.26,0,0,1,.25.25.25.25,0,0,1-.25.25H16.42a.25.25,0,0,1-.25-.25A.25.25,0,0,1,16.42,34.69Zm9.93-2.63a.25.25,0,0,1-.25.25H16.42a.25.25,0,0,1-.25-.25.25.25,0,0,1,.25-.25H26.1A.25.25,0,0,1,26.35,32.06Zm4.56-5.5a.25.25,0,0,1,0,.5H16.42a.25.25,0,0,1,0-.5Zm-4.56-2.63a.25.25,0,0,1-.25.25H16.42a.25.25,0,0,1,0-.5H26.1A.25.25,0,0,1,26.35,23.93Zm4.56-5H16.42a.25.25,0,0,1,0-.5H30.91a.25.25,0,0,1,0,.5ZM26.1,16.06H16.42a.25.25,0,0,1,0-.5H26.1a.25.25,0,0,1,0,.5Z" class="fill-background-color" />
  <g class="fill-color">
    <path d="M36.35,6.48H30.07l.08.67c0,.1,0,.21,0,.31a2.42,2.42,0,0,1-.14.81l-.19.65h5V40.49H12.65V8.92h5.41l-.2-.65a2.71,2.71,0,0,1-.14-.81,2.93,2.93,0,0,1,.05-.41l.07-.57H11.55A1.75,1.75,0,0,0,9.8,8.23v34A1.75,1.75,0,0,0,11.55,44h24.8a1.75,1.75,0,0,0,1.75-1.75v-34A1.75,1.75,0,0,0,36.35,6.48Z" />
    <path d="M21,9.62h5.9a3,3,0,0,0,2.35-.89,1.93,1.93,0,0,0,.43-1.27,2.3,2.3,0,0,0-.07-.58A2.56,2.56,0,0,0,29.23,6a2.89,2.89,0,0,0-1-.92,2.83,2.83,0,0,0-1.35-.35h-.75V4.44a2.2,2.2,0,1,0-4.4,0v.25H21A2.76,2.76,0,0,0,19.66,5a2.75,2.75,0,0,0-1.37,1.84,2.87,2.87,0,0,0-.07.58,2,2,0,0,0,.43,1.27A3,3,0,0,0,21,9.62Z" />
  </g>
  <g class="stroke-color">
    <path d="M36.35,5.48H30.11a3.77,3.77,0,0,0-3.05-1.79,3.2,3.2,0,0,0-6.22,0,3.77,3.77,0,0,0-3.05,1.79H11.55A2.75,2.75,0,0,0,8.8,8.23v34A2.75,2.75,0,0,0,11.55,45h24.8a2.75,2.75,0,0,0,2.75-2.75v-34A2.75,2.75,0,0,0,36.35,5.48ZM37.6,42.22a1.25,1.25,0,0,1-1.25,1.25H11.55a1.25,1.25,0,0,1-1.25-1.25v-34A1.25,1.25,0,0,1,11.55,7h5.72a3.91,3.91,0,0,0-.05.48,3.27,3.27,0,0,0,.16,1H12.15V41H35.36V8.42H30.52a3.27,3.27,0,0,0,.16-1A3.91,3.91,0,0,0,30.63,7h5.72A1.25,1.25,0,0,1,37.6,8.23ZM19.9,5.48A2.28,2.28,0,0,1,21,5.19h1.25V4.44a1.7,1.7,0,1,1,3.4,0v.75H26.9a2.28,2.28,0,0,1,1.1.29,2.25,2.25,0,0,1,.81.75,2.06,2.06,0,0,1,.31.75,2,2,0,0,1,.06.48,1.47,1.47,0,0,1-.32,1,2.53,2.53,0,0,1-2,.7H21a2.53,2.53,0,0,1-2-.7,1.47,1.47,0,0,1-.32-1A2,2,0,0,1,18.78,7a2.24,2.24,0,0,1,1.12-1.5ZM18.48,9.92a4.42,4.42,0,0,0,2.52.7h5.9a4.39,4.39,0,0,0,2.52-.7h4.44V39.49H13.65V9.92Z" />
    <path d="M16.42,19.44H30.91a.75.75,0,0,0,0-1.5H16.42a.75.75,0,0,0,0,1.5Z" />
    <path d="M16.42,16.56H26.1a.75.75,0,1,0,0-1.5H16.42a.75.75,0,0,0,0,1.5Z" />
    <path d="M16.42,27.56H30.91a.75.75,0,0,0,0-1.5H16.42a.75.75,0,0,0,0,1.5Z" />
    <path d="M16.42,24.68H26.1a.75.75,0,0,0,0-1.5H16.42a.75.75,0,0,0,0,1.5Z" />
    <path d="M16.42,35.69H30.91a.75.75,0,0,0,0-1.5H16.42a.75.75,0,0,0,0,1.5Z" />
    <path d="M16.42,32.81H26.1a.75.75,0,1,0,0-1.5H16.42a.75.75,0,0,0,0,1.5Z" />
  </g>
</svg>
