<?xml version="1.0" encoding="utf-8"?>
<svg id="icon-doctors-nearby" xmlns="http://www.w3.org/2000/svg" viewBox="0 0 48 48">
  <defs />
  <g class="fill-background-color">
    <path d="M32.64,34.59a2.6,2.6,0,1,0,2.59,2.6A2.61,2.61,0,0,0,32.64,34.59Z" />
    <path d="M27.19,26.66l-.29-.25a1.09,1.09,0,0,1-.31-.46,4.68,4.68,0,0,1-.22-.69l-.12-.52-.51.15a5.81,5.81,0,0,1-3.43,0l-.54-.15-.09.55a4.8,4.8,0,0,1-.13.64,1.34,1.34,0,0,1-.16.39,1.56,1.56,0,0,1-.21.23,7.42,7.42,0,0,1-1.11.82l-.32.2L24,41.92l4.21-14.36-.22-.21C27.73,27.14,27.45,26.88,27.19,26.66Z" />
    <path d="M32.26,12l0-.41-.41,0c-1.79-.12-6.13-.39-7.82-.39s-5.64.24-7.88.39l-.41,0,0,.4a10.09,10.09,0,0,0-.1,1.39,13.07,13.07,0,0,0,4.08,9.4,9.11,9.11,0,0,0,1,.76,7.75,7.75,0,0,0,.79.46,5.71,5.71,0,0,0,2.58.66A5.59,5.59,0,0,0,26.49,24l.15-.08c.26-.14.52-.3.78-.47a7.57,7.57,0,0,0,.78-.62,13,13,0,0,0,4.16-9.47A10.09,10.09,0,0,0,32.26,12ZM26.4,23.51Z" />
  </g>
  <g class="fill-color">
    <path d="M42.62,45c-.34-5.61-4.13-16.8-8.22-16.83h-.07l-1.14-.29-.82-.2.22.81a8.68,8.68,0,0,1,.3,2.24v3.31l.39.08a3.1,3.1,0,1,1-1.29,0l.4-.08V30.77a8.25,8.25,0,0,0-.55-2.95l-.09-.25-.26-.06c-.67-.16-1.41-.33-2.16-.49l-.46-.1L24,43.69,19,26.92l-.45.1c-.86.18-1.69.37-2.43.55l-.26.06-.09.25a8.17,8.17,0,0,0-.53,2.89v1.07l.4.08a3.58,3.58,0,0,1,2.68,3.62l.42,5.74a.26.26,0,0,1-.07.19.25.25,0,0,1-.18.08H17.19a.25.25,0,1,1,0-.5h1.06l-.4-5.49a3,3,0,0,0-2.79-3.21,3,3,0,0,0-2.78,3.12L11.88,41l.73,0a.25.25,0,0,1,.29.24.26.26,0,0,1-.25.26l-1,0a.29.29,0,0,1-.21-.08.26.26,0,0,1-.07-.19l.42-5.83a3.56,3.56,0,0,1,2.61-3.52l.38-.09V30.77a8.71,8.71,0,0,1,.29-2.18l.2-.81-1.62.41-.13,0c-4.63,0-8.09,16.6-8.12,16.77l-.11.59H42.65Z" />
    <path d="M24,10.68c1.57,0,5.32.23,7.42.36l1.1.07L32,2.87l-.44,0c-1.73-.13-5.92-.41-7.54-.41s-5.81.28-7.53.4l-.44,0-.54,8.25,1-.07C18.61,10.91,22.38,10.68,24,10.68Zm2.09-4.59,0,.13a1.55,1.55,0,0,1,0,.23,1.62,1.62,0,0,1,0,.23.63.63,0,0,0,0,.12H24.16V8.86l-.12,0a2.09,2.09,0,0,1-.5,0l-.14,0V6.8l-1.9,0a.6.6,0,0,1,0-.11,1.27,1.27,0,0,1,0-.22,1.79,1.79,0,0,1,0-.23.32.32,0,0,0,0-.13h1.92l0-2.06.13,0A2,2,0,0,1,24,4l.13,0V6.09Z" />
  </g>
  <g class="stroke-color">
    <path d="M34.49,27.21l-2.05-.5a8.67,8.67,0,0,0-3.1-3.49,14.3,14.3,0,0,0,4-9.83,12.12,12.12,0,0,0-.07-1.22l.28,0L32.9,1.93l-.65,0C32,1.87,26,1.43,24,1.43h0c-2.06,0-8,.43-8.26.45l-.65.05-.68,10.26.22,0a12.12,12.12,0,0,0-.07,1.22,14.29,14.29,0,0,0,3.93,9.73,8.67,8.67,0,0,0-3.28,3.65l-1.78.44c-5.68.22-9.13,18.35-9.15,18.54l-.08.82H43.64v-.75C43.64,41.21,40,27.38,34.49,27.21Zm-21,1.5.19,0,.87-.22a9.18,9.18,0,0,0-.3,2.3v.68a4.05,4.05,0,0,0-3,4l-.42,5.79a.77.77,0,0,0,.21.58.85.85,0,0,0,.56.23l1,0a.75.75,0,1,0-.05-1.5h-.2l.35-5a2.5,2.5,0,0,1,2.29-2.65,2.51,2.51,0,0,1,2.29,2.71l.36,5h-.52a.75.75,0,1,0,0,1.5h1.33a.77.77,0,0,0,.55-.24.78.78,0,0,0,.2-.57l-.42-5.74a4.08,4.08,0,0,0-3.08-4.07v-.66a7.8,7.8,0,0,1,.49-2.71c.74-.18,1.57-.37,2.42-.55l5.15,17.56H5.88C6.6,41.21,10,28.71,13.51,28.71Zm3-25.38c1.63-.11,5.89-.4,7.5-.4h0c1.62,0,5.87.29,7.51.41l.3,4.59.12,1.77.05.88-.53,0c-2.06-.13-5.85-.36-7.45-.36h0c-1.62,0-5.47.23-7.51.36l-.47,0,.07-1,.11-1.7Zm-.35,8.74C18,12,22.3,11.68,24,11.68h0c1.66,0,5.89.26,7.79.39a11,11,0,0,1,.09,1.32,12.53,12.53,0,0,1-4,9.1c-.25.21-.49.4-.75.58a7.85,7.85,0,0,1-.73.44l-.13.07a4.84,4.84,0,0,1-4.67,0h0a5.86,5.86,0,0,1-.72-.42,9.75,9.75,0,0,1-.91-.71,12.56,12.56,0,0,1-3.91-9A11,11,0,0,1,16.13,12.07ZM21.8,26.65a2.13,2.13,0,0,0,.23-.54,5.68,5.68,0,0,0,.15-.7,6.16,6.16,0,0,0,1.77.26,6.71,6.71,0,0,0,1.94-.3,4,4,0,0,0,.24.78,1.79,1.79,0,0,0,.46.66,2.6,2.6,0,0,1,.28.23c.25.21.52.47.73.67L24,40.14,20.34,27.83A8.51,8.51,0,0,0,21.53,27,2.35,2.35,0,0,0,21.8,26.65Zm2.27,18.42,5.15-17.56,2.15.48a7.76,7.76,0,0,1,.52,2.78v2.91a3.59,3.59,0,1,0,1.5,0V30.77a9.28,9.28,0,0,0-.32-2.37l1.13.29.19,0c3.61,0,7.39,10.82,7.73,16.36Zm10.66-7.88a2.1,2.1,0,1,1-2.09-2.1A2.1,2.1,0,0,1,34.73,37.19Zm-4.32-11c-.94-.21-1.93-.42-2.87-.59a3.28,3.28,0,0,1-.24-.89,7.93,7.93,0,0,0,.82-.51A7,7,0,0,1,30.41,26.23ZM19.68,24.17a8.46,8.46,0,0,0,1.06.66,6.45,6.45,0,0,1-.11.76c-1.12.2-2.32.46-3.42.71A6.83,6.83,0,0,1,19.68,24.17Z" />
    <path d="M21.05,7a.59.59,0,0,0,.18.2.45.45,0,0,0,.26.08h1.4V8.87a.49.49,0,0,0,.09.28.6.6,0,0,0,.22.16.88.88,0,0,0,.26.08l.32,0,.32,0a1.2,1.2,0,0,0,.26-.07.62.62,0,0,0,.23-.19.48.48,0,0,0,.07-.26V7.3h1.42a.43.43,0,0,0,.25-.07A.55.55,0,0,0,26.52,7a.86.86,0,0,0,.08-.27,2.36,2.36,0,0,0,0-.3,2.69,2.69,0,0,0,0-.31.24.24,0,0,1,0-.08c0-.06,0-.13,0-.17a.58.58,0,0,0-.18-.22.5.5,0,0,0-.26-.08H24.66V4a.48.48,0,0,0-.07-.26.57.57,0,0,0-.23-.2,1.26,1.26,0,0,0-.25-.07,3.53,3.53,0,0,0-.65,0,1.38,1.38,0,0,0-.26.07.56.56,0,0,0-.23.2.5.5,0,0,0-.08.26V5.59H21.47a.48.48,0,0,0-.27.09.51.51,0,0,0-.16.21.82.82,0,0,0-.08.25v0a2.16,2.16,0,0,0,0,.28,1.35,1.35,0,0,0,0,.31A.88.88,0,0,0,21.05,7Z" />
  </g>
</svg>
