<?xml version="1.0" encoding="utf-8"?>
<svg id="icon-medicine-half" xmlns="http://www.w3.org/2000/svg" viewBox="0 0 48 48">
  <defs />
  <g class="fill-color">
    <path d="M34.51,28l.46,0a8.81,8.81,0,0,1,1,.15l.6.12V17.58a7.81,7.81,0,0,0-3.8-6.66l-.16-.09-.18,0a3.07,3.07,0,0,1-.53.05H13.74a3.17,3.17,0,0,1-.53-.05l-.18,0-.16.09a7.8,7.8,0,0,0-3.79,6.66V40.36a3.75,3.75,0,0,0,3.75,3.75H26.65l-.55-.79a9.6,9.6,0,0,1-1.71-4.77l0-.46H14.41a3.26,3.26,0,0,1-3.25-3.25V19.7a3.26,3.26,0,0,1,3.25-3.25H31.26a3.25,3.25,0,0,1,3.25,3.25Z" />
    <path d="M17.29,20.67,15.6,22.35a2.67,2.67,0,0,0,0,3.77l3.2,3.2.24-.79a6.47,6.47,0,0,1,2.2-3.13,5.31,5.31,0,0,1,2.37-1.06l1-.15-3.51-3.52A2.72,2.72,0,0,0,17.29,20.67Z" />
    <path d="M37.92,33.55a5.22,5.22,0,0,0-.82-.6,5.69,5.69,0,0,0-.82-.41,5.81,5.81,0,0,0-1.23-.31,5.16,5.16,0,0,0-.79-.08h-.5v11.2h.5a4.92,4.92,0,0,0,.81-.08,5.5,5.5,0,0,0,1.36-.35,6.08,6.08,0,0,0,1.23-.74,5.54,5.54,0,0,0,.26-8.63Z" />
  </g>
  <g class="fill-background-color">
    <path d="M31.93,2.88H13.74a2.61,2.61,0,0,0-2.6,2.6V7.81a2.6,2.6,0,0,0,1.6,2.4,2.66,2.66,0,0,0,1,.2H31.93a2.66,2.66,0,0,0,1-.2,2.6,2.6,0,0,0,1.6-2.4V5.48A2.61,2.61,0,0,0,31.93,2.88ZM30.64,5.55V8.13c0,.27-.5.27-.5,0V5.55a.25.25,0,0,1,.25-.25A.25.25,0,0,1,30.64,5.55Zm-3.73,0V8.13a.26.26,0,0,1-.16.23h-.18a.26.26,0,0,1-.16-.23V5.55a.25.25,0,0,1,.5,0Zm-3.73,0V8.13a.26.26,0,0,1-.16.23h-.18a.26.26,0,0,1-.16-.23V5.55a.25.25,0,0,1,.5,0ZM19.46,8.83l-.35-.47A.24.24,0,0,1,19,8.13V5.55a.25.25,0,0,1,.25-.25.25.25,0,0,1,.25.25V8.13a.25.25,0,0,1-.17.23l.18.47ZM15.71,5.55V8.13c0,.27-.5.27-.5,0V5.55a.25.25,0,0,1,.25-.25A.25.25,0,0,1,15.71,5.55Z" />
    <path d="M37.92,33.55a5.22,5.22,0,0,0-.82-.6,5.69,5.69,0,0,0-.82-.41,5.81,5.81,0,0,0-1.23-.31,5.16,5.16,0,0,0-.79-.08h-.5v11.2h.5a4.92,4.92,0,0,0,.81-.08,5.5,5.5,0,0,0,1.36-.35,6.08,6.08,0,0,0,1.23-.74,5.54,5.54,0,0,0,.26-8.63Z" />
    <path d="M37.6,28.14c-.25-.09-.5-.18-.75-.25s-.5-.13-.75-.18-.72-.12-1.09-.16-.49,0-.74,0h-.18c-.19,0,.12,0-.08,0V19.7A3.2,3.2,0,0,0,31.26,17H14.41a3.2,3.2,0,0,0-2.75,2.75V34.84a3.2,3.2,0,0,0,2.75,2.75h9.47c0,.22,0-.06,0,.16,0,0,0,.06,0,.09,0,.25,0,.5,0,.75a10.18,10.18,0,0,0,1.8,5q.27.39.57.75c.23.26.46.51.71.75a10.24,10.24,0,1,0,10.63-17Zm-14-3.8a5.31,5.31,0,0,0-2.37,1.06A6.47,6.47,0,0,0,19,28.53l-.24.79-3.2-3.2a2.67,2.67,0,0,1,0-3.77l1.69-1.68a2.72,2.72,0,0,1,3.77,0l3.51,3.52Zm14,17.84a6.08,6.08,0,0,1-1.23.74,5.5,5.5,0,0,1-1.36.35,4.92,4.92,0,0,1-.81.08h-.5V32.15h.5a5.16,5.16,0,0,1,.79.08,5.81,5.81,0,0,1,1.23.31,5.69,5.69,0,0,1,.82.41,5.22,5.22,0,0,1,.82.6,5.54,5.54,0,0,1-.26,8.63Z" />
  </g>
  <g class="stroke-color">
    <path d="M25.69,43.61H12.83a3.26,3.26,0,0,1-3.25-3.25V17.58a7.26,7.26,0,0,1,3.55-6.23,3.08,3.08,0,0,0,.61.06H31.93a3.08,3.08,0,0,0,.61-.06,7.25,7.25,0,0,1,3.56,6.23V27.71q.38.08.75.18c.25.07.5.16.75.25V17.58a8.73,8.73,0,0,0-3.45-6.95,3.6,3.6,0,0,0,1.38-2.82V5.48a3.6,3.6,0,0,0-3.6-3.6H13.74a3.61,3.61,0,0,0-3.6,3.6V7.81a3.58,3.58,0,0,0,1.39,2.82,8.73,8.73,0,0,0-3.45,6.95V40.36a4.75,4.75,0,0,0,4.75,4.75H27c-.25-.24-.48-.49-.71-.75S25.87,43.87,25.69,43.61Zm-14-38.13a2.11,2.11,0,0,1,2.1-2.1H31.93A2.11,2.11,0,0,1,34,5.48V7.81a2.11,2.11,0,0,1-1.29,1.94,2.17,2.17,0,0,1-.81.16H13.74a2.11,2.11,0,0,1-2.1-2.1Z" />
    <path d="M15.46,8.88a.75.75,0,0,0,.75-.75V5.55a.75.75,0,0,0-1.5,0V8.13A.76.76,0,0,0,15.46,8.88Z" />
    <path d="M18.93,8.83a.76.76,0,0,0,.27.05.75.75,0,0,0,.26-.05.76.76,0,0,0,.49-.7V5.55a.75.75,0,0,0-1.5,0V8.13A.75.75,0,0,0,18.93,8.83Z" />
    <path d="M22.66,8.83a.81.81,0,0,0,.27.05.76.76,0,0,0,.75-.75V5.55a.75.75,0,0,0-1.5,0V8.13A.75.75,0,0,0,22.66,8.83Z" />
    <path d="M26.4,8.83a.75.75,0,0,0,.26.05.81.81,0,0,0,.27-.05.75.75,0,0,0,.48-.7V5.55a.75.75,0,0,0-1.5,0V8.13A.75.75,0,0,0,26.4,8.83Z" />
    <path d="M30.39,8.88a.75.75,0,0,0,.75-.75V5.55a.75.75,0,1,0-1.5,0V8.13A.76.76,0,0,0,30.39,8.88Z" />
    <path d="M34.09,27.51h.18c.25,0,.5,0,.74,0V19.7A3.75,3.75,0,0,0,31.26,16H14.41a3.75,3.75,0,0,0-3.75,3.75V34.84a3.75,3.75,0,0,0,3.75,3.75h9.48c0-.25,0-.5,0-.75,0,0,0-.06,0-.09,0-.22,0-.44,0-.66H14.41a2.25,2.25,0,0,1-2.25-2.25V19.7a2.25,2.25,0,0,1,2.25-2.25H31.26a2.25,2.25,0,0,1,2.25,2.25v7.84Z" />
    <path d="M21.85,26.19A4,4,0,0,1,25,25.36L28.65,29l.06.07a10.83,10.83,0,0,1,1.35-.71,4.58,4.58,0,0,0-.35-.42L21.76,20a3.66,3.66,0,0,0-5.18,0L14.9,21.64a3.68,3.68,0,0,0,0,5.19l7.94,8a3.8,3.8,0,0,0,1.24.81,9.88,9.88,0,0,1,.44-1.46,2.16,2.16,0,0,1-.62-.41l-4.07-4.08A5.09,5.09,0,0,1,21.85,26.19Zm-3.29,2.19L16,25.77a2.15,2.15,0,0,1,0-3.06L17.64,21a2.17,2.17,0,0,1,3.06,0l2.83,2.83A5.87,5.87,0,0,0,20.94,25,6.93,6.93,0,0,0,18.56,28.38Z" />
    <path d="M27.06,28.43l-1.53-1.52a.74.74,0,0,0-1.06,0,.75.75,0,0,0,0,1.06L26,29.49a1.54,1.54,0,0,1,.45,1.09,1.69,1.69,0,0,1-.07.45,9.08,9.08,0,0,1,1.42-1.35A3.06,3.06,0,0,0,27.06,28.43Z" />
    <path d="M37.6,32.07a6,6,0,0,0-.75-.39,7.41,7.41,0,0,0-.75-.26A6.38,6.38,0,0,0,35,31.2a6,6,0,0,0-.74-.05h0a6.3,6.3,0,0,0-.75.05,6.59,6.59,0,0,0-3.46,1.48A7,7,0,0,0,29,33.84a6.52,6.52,0,0,0-1.26,3.25q0,.33,0,.66v.09a4.74,4.74,0,0,0,.06.75,6.6,6.6,0,0,0,5.73,5.71,7,7,0,0,0,.8.05A6.59,6.59,0,0,0,37.6,32.07Zm-8.35,6.52a6.14,6.14,0,0,1-.08-.75v-.09a4.91,4.91,0,0,1,.06-.66,5.06,5.06,0,0,1,4.17-4.33v10A5.1,5.1,0,0,1,29.25,38.59Zm8.1,3.19a5.07,5.07,0,0,1-1.12.68,4.91,4.91,0,0,1-1.24.32H34.9V32.71l.11,0A5.62,5.62,0,0,1,36.1,33a5.22,5.22,0,0,1,.75.37,6.46,6.46,0,0,1,.75.54,5,5,0,0,1-.25,7.86Z" />
  </g>
</svg>
