<?xml version="1.0" encoding="utf-8"?>
<svg id="icon-laboratory-results" xmlns="http://www.w3.org/2000/svg" viewBox="0 0 48 48">
  <defs />
  <g class="fill-background-color">
    <path d="M37.41,39.54,31.12,20.93,16.56,21,10.49,39.53a2.85,2.85,0,0,0,2.7,3.78H34.71a2.85,2.85,0,0,0,2.7-3.77Zm-2.7,2.52H13.19a1.59,1.59,0,0,1-1.3-.67,1.55,1.55,0,0,1-.21-1.46L17.22,23l13.23-.11,5.78,17a1.61,1.61,0,0,1-1.52,2.12Z" />
    <circle cx="26.91" cy="29.05" r="2.16" />
    <circle cx="22.2" cy="34.68" r="2.16" />
    <path d="M26.42,37.16a1.67,1.67,0,1,0,1.67,1.67A1.67,1.67,0,0,0,26.42,37.16Z" />
  </g>
  <g class="fill-color">
    <path d="M36.7,39.78,30.81,22.43l-13.95.11L11.2,39.77a2.1,2.1,0,0,0,.28,1.91,2.07,2.07,0,0,0,1.71.88H34.71a2.1,2.1,0,0,0,2-2.78ZM22.2,36.34a1.67,1.67,0,1,1,1.66-1.66A1.66,1.66,0,0,1,22.2,36.34ZM26.42,40a1.17,1.17,0,1,1,1.17-1.17A1.17,1.17,0,0,1,26.42,40Zm.49-9.28a1.67,1.67,0,1,1,1.67-1.67A1.67,1.67,0,0,1,26.91,30.72Z" />
    <circle cx="25.61" cy="18.93" r="1.66" />
    <path d="M26.42,10.62a2.1,2.1,0,1,0-2.1-2.1A2.1,2.1,0,0,0,26.42,10.62Z" />
    <path d="M21.67,13.68a1.14,1.14,0,1,0-1.14-1.14A1.14,1.14,0,0,0,21.67,13.68Z" />
  </g>
  <path d="M38.36,39.22l-8-23.49V7.34A2.19,2.19,0,0,0,29.91,3H17.8a2.19,2.19,0,0,0-.55,4.31v8.4L9.54,39.22a3.86,3.86,0,0,0,3.65,5.09H34.71a3.86,3.86,0,0,0,3.65-5.09ZM18.71,16.09l0-10.19H17.8a.69.69,0,0,1,0-1.38H29.91a.69.69,0,1,1,0,1.38h-1v10l1.89,5.58.16.5,6,17.77a2.36,2.36,0,0,1-2.23,3.11H13.19a2.3,2.3,0,0,1-1.91-1A2.34,2.34,0,0,1,11,39.69L16.76,22l.16-.5Z" class="stroke-color" />
</svg>
