<?xml version="1.0" encoding="utf-8"?>
<svg id="icon-email-to-doctor" xmlns="http://www.w3.org/2000/svg" viewBox="0 0 48 48">
  <defs />
  <g class="fill-background-color">
    <polygon points="7.3 10.26 13.43 10.26 13.43 3.79 7.3 10.26" />
    <path d="M41.84,27.14l-.75-.38c-.25-.11,0-.21-.25-.31V3.59H13.93v7.17H7.06V43.91H27.49c.19.26.39,0,.61.25s.47.51.72.75a11.1,11.1,0,1,0,13-17.77Z" />
  </g>
  <path d="M30.21,13.17a1.85,1.85,0,0,0-.14-.51.88.88,0,0,0-.35-.41.73.73,0,0,0-.43-.13H25.74V8.26a1,1,0,0,0-.13-.47,1,1,0,0,0-.41-.36,2,2,0,0,0-.53-.14,6.14,6.14,0,0,0-1.42,0,2.19,2.19,0,0,0-.54.15.93.93,0,0,0-.42.36.86.86,0,0,0-.14.47v3.86H18.62a.91.91,0,0,0-.49.15,1.15,1.15,0,0,0-.3.39,1.83,1.83,0,0,0-.14.52,4.23,4.23,0,0,0-.05.66,3,3,0,0,0,.06.68,1.68,1.68,0,0,0,.16.52,1,1,0,0,0,.33.38.75.75,0,0,0,.46.15h3.5v3.86a.93.93,0,0,0,.16.51,1,1,0,0,0,.4.3,2.13,2.13,0,0,0,.53.14,5,5,0,0,0,.72.05,7,7,0,0,0,.7,0,1.91,1.91,0,0,0,.52-.15,1,1,0,0,0,.43-.34.92.92,0,0,0,.13-.47V15.57h3.51a.92.92,0,0,0,.47-.14,1.12,1.12,0,0,0,.33-.38,1.72,1.72,0,0,0,.17-.54,5.88,5.88,0,0,0,0-.67A4.47,4.47,0,0,0,30.21,13.17Z" class="fill-color" />
  <g class="stroke-color">
    <path d="M27.49,43.41H7.56V11.26h6.87V4.09H40.34V26.45l.75.31.75.38V2.59H13.19L6.06,10.12V44.91H28.82q-.37-.36-.72-.75A8.69,8.69,0,0,1,27.49,43.41ZM12.93,9.76H8.46l4.47-4.71Z" />
    <path d="M11.28,26h9.77a.75.75,0,0,0,0-1.5H11.28a.75.75,0,0,0,0,1.5Z" />
    <path d="M28.46,29.08H11.28a.75.75,0,0,0,0,1.5h16A10.45,10.45,0,0,1,28.46,29.08Z" />
    <path d="M11.28,33.68a.75.75,0,0,0,0,1.5H25.44a12.49,12.49,0,0,1,.32-1.5Z" />
    <path d="M11.28,38.29a.75.75,0,0,0,0,1.5H25.72a10.79,10.79,0,0,1-.31-1.5Z" />
    <path d="M30.25,16.28a2.15,2.15,0,0,0,.69-.77,2.75,2.75,0,0,0,.26-.85,4.67,4.67,0,0,0,.06-.82A5,5,0,0,0,31.2,13h0a2.76,2.76,0,0,0-.23-.78,2,2,0,0,0-.69-.82,1.87,1.87,0,0,0-1-.29H26.74V8.26a2,2,0,0,0-.27-1,1.88,1.88,0,0,0-.86-.76,3,3,0,0,0-.8-.22,7.52,7.52,0,0,0-1.71,0,3.38,3.38,0,0,0-.81.23,2,2,0,0,0-.84.72,1.87,1.87,0,0,0-.3,1v2.86H18.62a1.85,1.85,0,0,0-1.06.33,2.11,2.11,0,0,0-.63.77,3,3,0,0,0-.23.81,4.7,4.7,0,0,0-.06.81,5.24,5.24,0,0,0,.07.86,2.85,2.85,0,0,0,.27.81,2,2,0,0,0,.65.74,1.76,1.76,0,0,0,1,.32h2.5v2.86a1.8,1.8,0,0,0,.36,1.09,2,2,0,0,0,.78.63,3,3,0,0,0,.8.22,5.17,5.17,0,0,0,.86.06,6.47,6.47,0,0,0,.85-.05,2.8,2.8,0,0,0,.8-.23,2,2,0,0,0,.84-.7,1.82,1.82,0,0,0,.3-1V16.57h2.51A1.88,1.88,0,0,0,30.25,16.28Zm-5,3.15a.33.33,0,0,1,0,.19.43.43,0,0,1-.21.17,1.57,1.57,0,0,1-.4.1,5.39,5.39,0,0,1-1.27,0,1.21,1.21,0,0,1-.39-.11.41.41,0,0,1-.2-.14.31.31,0,0,1-.07-.21V15.07h-4a.3.3,0,0,1-.18-.06.58.58,0,0,1-.17-.2,1.77,1.77,0,0,1-.11-.38,3.17,3.17,0,0,1-.05-.59,5,5,0,0,1,0-.59,1.34,1.34,0,0,1,.11-.38.36.36,0,0,1,.14-.19.33.33,0,0,1,.19-.06h4V8.26a.39.39,0,0,1,.06-.21.43.43,0,0,1,.21-.16,1.2,1.2,0,0,1,.4-.11,5.39,5.39,0,0,1,1.27,0,1.36,1.36,0,0,1,.4.11.42.42,0,0,1,.19.15.46.46,0,0,1,.06.22v4.36h4.05a.3.3,0,0,1,.16.05.44.44,0,0,1,.17.2,1.85,1.85,0,0,1,.1.38,3.49,3.49,0,0,1,0,.59,3.2,3.2,0,0,1,0,.59,1.08,1.08,0,0,1-.11.38.7.7,0,0,1-.16.2.39.39,0,0,1-.2.06h-4Z" />
    <path d="M42.94,32a4.46,4.46,0,0,0-1.1-1.7.5.5,0,0,1-.07-.08,4.2,4.2,0,0,0-.68-.49,4.42,4.42,0,0,0-.75-.39,5.1,5.1,0,0,0-.58-.26,9.42,9.42,0,0,0-2.87-.4,10.08,10.08,0,0,0-2.57.3l-.18.06a8,8,0,0,0-1.83.74,7.21,7.21,0,0,0-1,.76,5.12,5.12,0,0,0-.49.44,7.93,7.93,0,0,0-1.09,1.46,9.52,9.52,0,0,0-.59,1.2l-.15.37c-.13.39-.24.76-.33,1.13,0,.15-.08.31-.11.46a11.67,11.67,0,0,0-.21,1.46c0,.44-.06.84-.06,1.19v0a8.78,8.78,0,0,0,.12,1.48,8.08,8.08,0,0,0,.25,1.13,4.84,4.84,0,0,0,1.19,2,4.13,4.13,0,0,0,.6.49,5.57,5.57,0,0,0,1.46.75l.08,0a10.33,10.33,0,0,0,3.21.44,12.92,12.92,0,0,0,1.45-.07c.44,0,.83-.11,1.15-.17s.59-.14.78-.2l.09,0a1.08,1.08,0,0,0,.26-.12.26.26,0,0,0,.1-.11l.06-.14a.78.78,0,0,0,0-.16,1.41,1.41,0,0,0,0-.22v0c0-.11,0-.21,0-.29a.9.9,0,0,0,0-.19A.23.23,0,0,0,39,42.8a.21.21,0,0,0-.11,0,1.51,1.51,0,0,0-.37.09,6.23,6.23,0,0,1-.72.18c-.29.07-.64.13-1,.19a10.73,10.73,0,0,1-1.34.08,8.4,8.4,0,0,1-2.71-.37A4.3,4.3,0,0,1,31,41.87a3.72,3.72,0,0,1-.9-1.61c0-.15-.06-.32-.09-.47a7.93,7.93,0,0,1-.16-1.5s0-.06,0-.09c0-.26,0-.59,0-1A9.42,9.42,0,0,1,30,36c0-.27.13-.56.2-.84s.07-.32.12-.5a7.72,7.72,0,0,1,.4-1c.05-.12.1-.24.16-.36a7,7,0,0,1,.86-1.25A5.63,5.63,0,0,1,33,31a5.51,5.51,0,0,1,.91-.45,5.23,5.23,0,0,1,.73-.26,6.93,6.93,0,0,1,1.51-.23c.2,0,.4,0,.62,0a7,7,0,0,1,2.43.36,4.12,4.12,0,0,1,1.19.68,2.54,2.54,0,0,1,.36.29,3.83,3.83,0,0,1,.39.51,3.49,3.49,0,0,1,.43.89,5.78,5.78,0,0,1,.23,1.68,9.56,9.56,0,0,1,0,1,7.45,7.45,0,0,1-.16,1.07,7.15,7.15,0,0,1-.28,1,3.52,3.52,0,0,1-.17.39,2.69,2.69,0,0,1-.26.44,2.07,2.07,0,0,1-.49.49l-.1.07a1.37,1.37,0,0,1-.75.21,1,1,0,0,1-.92-.42,2,2,0,0,1-.08-1.3l.9-4.67a.16.16,0,0,0,0-.12.3.3,0,0,0-.1-.09.72.72,0,0,0-.2,0,1.37,1.37,0,0,0-.31,0,1.34,1.34,0,0,0-.53.07.37.37,0,0,0-.18.21l-.17.89a6,6,0,0,0-.52-.57,2.75,2.75,0,0,0-.52-.41,2.23,2.23,0,0,0-.58-.24,2.56,2.56,0,0,0-.62-.07,3.13,3.13,0,0,0-1.35.27,3.35,3.35,0,0,0-1,.73c-.09.1-.16.2-.24.3a6.07,6.07,0,0,0-.47.73,7.28,7.28,0,0,0-.31.77,3.1,3.1,0,0,0-.13.4,8.88,8.88,0,0,0-.24,1.16,9.92,9.92,0,0,0-.07,1,4.74,4.74,0,0,0,0,.55c0,.08,0,.17,0,.24a3.11,3.11,0,0,0,.18.67,2.22,2.22,0,0,0,.3.55l0,0a1.57,1.57,0,0,0,.4.37,2.18,2.18,0,0,0,.6.26,3.5,3.5,0,0,0,.77.08,2.68,2.68,0,0,0,.68-.08,3.14,3.14,0,0,0,.72-.26,4.77,4.77,0,0,0,.74-.47,8.11,8.11,0,0,0,.79-.7,1.76,1.76,0,0,0,.26.66,1.51,1.51,0,0,0,.46.48,2.27,2.27,0,0,0,.63.28,3.07,3.07,0,0,0,.77.09,3.73,3.73,0,0,0,1.1-.17,2.29,2.29,0,0,0,.28-.09,3.5,3.5,0,0,0,.47-.25,2.93,2.93,0,0,0,.59-.46l.16-.18a5.13,5.13,0,0,0,.62-.88,7.35,7.35,0,0,0,.5-1.29,9.25,9.25,0,0,0,.28-1.39,11.65,11.65,0,0,0,.09-1.42A6.66,6.66,0,0,0,42.94,32Zm-6,5.63c-.26.27-.5.49-.71.69l-.27.22a2.29,2.29,0,0,1-.33.24,2.72,2.72,0,0,1-.54.27,1.74,1.74,0,0,1-.5.08,1,1,0,0,1-.91-.4,1.6,1.6,0,0,1-.19-.48,2.79,2.79,0,0,1-.07-.68,6.79,6.79,0,0,1,0-.73,5.38,5.38,0,0,1,.16-.84,5,5,0,0,1,.29-.85h0a3.58,3.58,0,0,1,.43-.74,2.2,2.2,0,0,1,.6-.54,1.4,1.4,0,0,1,.61-.18.76.76,0,0,1,.16,0,1.39,1.39,0,0,1,.92.35,3.81,3.81,0,0,1,.79,1Z" />
  </g>
</svg>
