<?xml version="1.0" encoding="utf-8"?>
<svg id="icon-quality-target" xmlns="http://www.w3.org/2000/svg" viewBox="0 0 48 48">
  <defs />
  <g class="fill-color">
    <path d="M19.69,36.29h0a2.77,2.77,0,0,1-2-1.88,2.31,2.31,0,0,0-2.87-1.51A2.78,2.78,0,0,1,13,32.81l-.4-.15L7.81,40.92l6.13-.87,2.32,5.75,5.58-9.65-1,.16A2.73,2.73,0,0,1,19.69,36.29Z" />
    <path d="M34.92,32.81a2.75,2.75,0,0,1-1.83.09,2.31,2.31,0,0,0-2.87,1.5,2.8,2.8,0,0,1-2,1.89,3,3,0,0,1-1.11,0l-1-.16,5.56,9.63L34,40.05l6.14.87-4.78-8.26Z" />
    <path d="M40.28,19a2.29,2.29,0,0,0-.46-3.9,2.81,2.81,0,0,1-1.41-3.69,2.3,2.3,0,0,0-2.22-3.24,2.82,2.82,0,0,1-3-2.61,2.3,2.3,0,0,0-3.48-1.83,2.83,2.83,0,0,1-3.54-.54l.18-.12-.52-.85-.26.16a2.31,2.31,0,0,0-3.62.4,2.81,2.81,0,0,1-3.83,1,2.3,2.3,0,0,0-2.26-.07,2.27,2.27,0,0,0-1.22,1.89,2.79,2.79,0,0,1-3,2.62,2.34,2.34,0,0,0-2,1,2.27,2.27,0,0,0-.2,2.24,2.82,2.82,0,0,1-1.4,3.7,2.28,2.28,0,0,0-1.34,1.81A2.3,2.3,0,0,0,7.61,19a2.8,2.8,0,0,1,.48,3.92,2.3,2.3,0,0,0,1.39,3.68,2.81,2.81,0,0,1,2.25,3.24A2.42,2.42,0,0,0,12.46,32l.11.08a2.23,2.23,0,0,0,.86.42,2.14,2.14,0,0,0,1.23,0,2.83,2.83,0,0,1,3.5,1.83A2.29,2.29,0,0,0,19.8,35.8a2.2,2.2,0,0,0,.56.07A2.24,2.24,0,0,0,22,35.2a3.11,3.11,0,0,1,.58-.42,2.78,2.78,0,0,1,.93-.35h.19a3.51,3.51,0,0,1,.56,0l.19,0a3,3,0,0,1,.93.34,2.73,2.73,0,0,1,.57.43,2.3,2.3,0,0,0,3.82-.94,2.81,2.81,0,0,1,3.49-1.84,2.27,2.27,0,0,0,1.24,0,2.12,2.12,0,0,0,.85-.42l.12-.08a2.26,2.26,0,0,0,.53-.73,2.29,2.29,0,0,0,.21-1.4,2.8,2.8,0,0,1,2.23-3.25,2.31,2.31,0,0,0,1.74-1.44,2.27,2.27,0,0,0-.34-2.23A2.81,2.81,0,0,1,40.28,19ZM24,31.12ZM11.91,23c-.08-.24-.17-.47-.23-.7C11.74,22.53,11.83,22.76,11.91,23Zm-.34-1.16c-.06-.22-.11-.44-.16-.66C11.46,21.4,11.51,21.62,11.57,21.84Zm-.24-1.28c0-.17-.06-.35-.08-.52C11.27,20.21,11.3,20.39,11.33,20.56ZM14,26.81c-.09-.11-.19-.22-.27-.33C13.83,26.59,13.93,26.7,14,26.81ZM13.39,26c-.11-.16-.22-.32-.32-.49C13.17,25.65,13.28,25.81,13.39,26Zm-.56-.92c-.11-.2-.23-.4-.33-.6C12.6,24.65,12.72,24.85,12.83,25.05Zm-.5-1c-.1-.22-.2-.44-.29-.67C12.13,23.62,12.23,23.84,12.33,24.06Zm4,5a13.43,13.43,0,0,0,1.21.81,12.87,12.87,0,0,1-1.88-1.34l0,0C15.85,28.7,16.07,28.88,16.32,29.06Zm2.62,1.53A12.55,12.55,0,0,1,17.78,30,11.41,11.41,0,0,0,18.94,30.59Zm1.5.53a12,12,0,0,1-1.15-.4A10.38,10.38,0,0,0,20.44,31.12ZM32.8,28Zm3.42-5.72c0,.17-.11.34-.17.51C36.11,22.65,36.17,22.48,36.22,22.31Zm-.37,1.1a4.47,4.47,0,0,1-.19.46A4.47,4.47,0,0,0,35.85,23.41Zm-.47,1.07c-.06.13-.13.26-.2.38C35.25,24.74,35.32,24.61,35.38,24.48Zm-.57,1-.2.3ZM36.65,20c0,.15,0,.31-.07.46C36.6,20.35,36.63,20.19,36.65,20Zm-.16,1.14c0,.18-.08.36-.13.54C36.41,21.54,36.45,21.36,36.49,21.18Z" />
  </g>
  <g class="fill-background-color">
    <path d="M24,5.62a13.23,13.23,0,0,0-9.74,22.21l.54.56.57.52A13.15,13.15,0,0,0,22.45,32l.09,0c.42,0,.84.06,1.26.07h.3c.42,0,.84,0,1.26-.07l.09,0a13.12,13.12,0,0,0,7.13-3.12c.19-.17.39-.34.57-.52s.36-.37.54-.56A13.23,13.23,0,0,0,24,5.62Zm7.33,23a11.63,11.63,0,0,1-2.63,1.52,11.86,11.86,0,0,1-2.86.79,11.4,11.4,0,0,1-1.76.15h-.16A11.4,11.4,0,0,1,22.11,31a12,12,0,0,1-2.86-.79,11.85,11.85,0,0,1-2.63-1.52,10.72,10.72,0,0,1-1.35-1.16,7.29,7.29,0,0,1-.53-.58,12.25,12.25,0,1,1,18.43,0c-.18.2-.35.4-.53.58A11.57,11.57,0,0,1,31.28,28.66Z" />
    <path d="M24,8.23A10.65,10.65,0,1,0,34.6,18.87,10.64,10.64,0,0,0,24,8.23Z" />
  </g>
  <g class="stroke-color">
    <path d="M37.16,29.64a1.8,1.8,0,0,1,1.45-2.09,3.3,3.3,0,0,0,2-5.27,1.8,1.8,0,0,1,.31-2.52,3.29,3.29,0,0,0-.69-5.59,1.81,1.81,0,0,1-.89-2.38,3.3,3.3,0,0,0-3.21-4.64,1.78,1.78,0,0,1-1.9-1.68,3.3,3.3,0,0,0-5-2.62,1.8,1.8,0,0,1-2.46-.61h0a3.3,3.3,0,0,0-5.64,0,1.81,1.81,0,0,1-2.47.6,3.3,3.3,0,0,0-5,2.63,1.8,1.8,0,0,1-1.91,1.67A3.3,3.3,0,0,0,8.58,11.8a1.8,1.8,0,0,1-.91,2.37A3.29,3.29,0,0,0,7,19.76a1.82,1.82,0,0,1,.3,2.53,3.29,3.29,0,0,0,2,5.26,1.81,1.81,0,0,1,1.44,2.1,3.26,3.26,0,0,0,.82,2.77L5.91,42.2l7.4-1.05,2.79,6.93,7.27-12.59a1.77,1.77,0,0,1,1.16,0L31.8,48.08l2.79-6.93L42,42.2l-5.65-9.78A3.25,3.25,0,0,0,37.16,29.64Zm-1.48.27A1.7,1.7,0,0,1,35.52,31a1.76,1.76,0,0,1-.41.57.47.47,0,0,1-.09.06,1.74,1.74,0,0,1-1.64.31,3.32,3.32,0,0,0-4.12,2.17,1.79,1.79,0,0,1-3,.73,3.25,3.25,0,0,0-.67-.5,3.1,3.1,0,0,0-1.1-.4l-.22,0a3.53,3.53,0,0,0-.65,0l-.23,0a3.1,3.1,0,0,0-1.1.4,3.27,3.27,0,0,0-.68.51,1.79,1.79,0,0,1-3-.75,3.31,3.31,0,0,0-3.15-2.3,3.27,3.27,0,0,0-1,.15,1.77,1.77,0,0,1-1.64-.32.47.47,0,0,1-.09-.06,1.76,1.76,0,0,1-.41-.57,1.79,1.79,0,0,1-.16-1.1,3.3,3.3,0,0,0-2.65-3.82A1.8,1.8,0,0,1,8.49,23.2a3.3,3.3,0,0,0-.57-4.62A1.77,1.77,0,0,1,7.25,17,1.8,1.8,0,0,1,8.3,15.53a3.31,3.31,0,0,0,1.64-4.35,1.84,1.84,0,0,1,.16-1.76,1.8,1.8,0,0,1,1.59-.77,3.29,3.29,0,0,0,3.48-3.09A1.8,1.8,0,0,1,17.9,4.14,3.31,3.31,0,0,0,22.42,3a1.8,1.8,0,0,1,3.07,0l.64-.39-.64.4A3.32,3.32,0,0,0,30,4.14a1.78,1.78,0,0,1,1.76-.06,1.8,1.8,0,0,1,1,1.49,3.29,3.29,0,0,0,3.48,3.08A1.8,1.8,0,0,1,38,11.19a3.29,3.29,0,0,0,1.65,4.34A1.8,1.8,0,0,1,40,18.59a3.31,3.31,0,0,0-.55,4.62A1.76,1.76,0,0,1,39.68,25a1.79,1.79,0,0,1-1.36,1.13A3.31,3.31,0,0,0,35.68,29.91ZM27,36.82a2.94,2.94,0,0,0,.51,0,3.19,3.19,0,0,0,.8-.1,3.25,3.25,0,0,0,2.35-2.22A1.82,1.82,0,0,1,33,33.38a3.27,3.27,0,0,0,2.16-.1l4,7-5.51-.78-2.08,5.16ZM16.34,44.66,14.26,39.5l-5.51.78,4.05-7a3.29,3.29,0,0,0,2.17.1,1.81,1.81,0,0,1,2.24,1.18,3.25,3.25,0,0,0,2.36,2.21,3.22,3.22,0,0,0,1.31,0Z" />
    <path d="M31.07,11.77a.74.74,0,0,0-1,.27L22.87,24.46l-5.18-4.4a.76.76,0,0,0-1.06.08.75.75,0,0,0,.09,1.06l6.55,5.57,8.08-14A.74.74,0,0,0,31.07,11.77Z" />
  </g>
</svg>
