<?xml version="1.0" encoding="utf-8"?>
<svg id="icon-time" xmlns="http://www.w3.org/2000/svg" viewBox="0 0 48 48">
  <defs />
  <path d="M24.49,2.85A20.84,20.84,0,1,0,45.33,23.69,20.86,20.86,0,0,0,24.49,2.85Z" class="fill-color" />
  <path d="M24.49,7.12A16.57,16.57,0,1,0,41.06,23.69,16.59,16.59,0,0,0,24.49,7.12Zm0,29.83A13.28,13.28,0,0,1,11.23,23.69a.51.51,0,0,1,.5-.5.5.5,0,0,1,.5.5A12.27,12.27,0,0,0,24.49,36a.5.5,0,0,1,.5.5A.5.5,0,0,1,24.49,37Zm8.41-7.41a.23.23,0,0,1-.35.06l-6.37-4.43-.29.28a2.09,2.09,0,1,1-2-3.52l.36-.11V13.11c0-.28.5-.28.5,0v8.72l.35.11A2.05,2.05,0,0,1,26.5,24.4l-.08.33,6.42,4.46a.27.27,0,0,1,.1.16A.26.26,0,0,1,32.9,29.54Z" class="fill-background-color" />
  <g class="stroke-color">
    <path d="M24.49,1.83A21.87,21.87,0,1,0,46.36,23.69,21.88,21.88,0,0,0,24.49,1.83ZM4.13,23.69A20.37,20.37,0,1,1,24.49,44.06,20.38,20.38,0,0,1,4.13,23.69Z" />
    <path d="M24.49,6.12A17.57,17.57,0,1,0,42.06,23.69,17.59,17.59,0,0,0,24.49,6.12ZM8.42,23.69A16.07,16.07,0,1,1,24.49,39.76,16.09,16.09,0,0,1,8.42,23.69Z" />
    <path d="M27,24.51a2.27,2.27,0,0,0,.08-.59,2.6,2.6,0,0,0-1.82-2.46V13.11a.75.75,0,1,0-1.5,0v8.34a2.59,2.59,0,0,0,.72,5.07,2.55,2.55,0,0,0,1.77-.71l6,4.2a.75.75,0,0,0,.42.14.78.78,0,0,0,.62-.32.75.75,0,0,0-.19-1Zm-1.42-.59a1.1,1.1,0,0,1-.63,1,1.24,1.24,0,0,1-.47.11,1.09,1.09,0,0,1-1.09-1.1,1.08,1.08,0,0,1,.37-.8,1.06,1.06,0,0,1,.72-.29,1.05,1.05,0,0,1,1,.59A1.07,1.07,0,0,1,25.56,23.92Z" />
  </g>
</svg>
