<?xml version="1.0" encoding="utf-8"?>
<svg id="icon-chart" xmlns="http://www.w3.org/2000/svg" viewBox="0 0 48 48">
  <defs />
  <g class="fill-color">
    <rect x="9.45" y="14.92" width="5.5" height="22.96" />
    <rect x="19.48" y="26.32" width="5.5" height="11.56" />
    <rect x="29.52" y="22.86" width="5.5" height="15.02" />
    <path d="M41.78,6.29a1.93,1.93,0,0,0-1-1.3,5,5,0,0,0-2.54-.69C34.72,4.3,31.9,8,31.78,8.18L31,9.29l-.8-1.11S27.3,4.25,23.72,4.25a5.16,5.16,0,0,0-2.53.69,2,2,0,0,0-1,1.33c-.32,1.37.45,3.52,2.11,5.9l.38.53c2.42,3.26,5.82,6,8.25,6.7l.15,0,.14-.05c2.51-.79,5.92-3.63,8.28-6.91l.39-.55C41.4,9.66,42.09,7.6,41.78,6.29Z" />
  </g>
  <g class="stroke-color">
    <path d="M8.45,38.88H16v-25H8.45ZM10,15.42h4.5v22H10Z" />
    <path d="M26,25.32h-7.5V38.88H26Zm-1.5,12.06H20V26.82h4.5Z" />
    <path d="M28.52,38.88H36v-17h-7.5ZM30,23.36h4.5v14H30Z" />
    <polygon points="45.77 41.95 40.15 38.7 40.15 41.2 6.13 41.2 6.13 8.29 8.63 8.29 5.38 2.66 2.13 8.29 4.63 8.29 4.63 41.2 4.63 41.95 4.63 42.7 40.15 42.7 40.15 45.2 45.77 41.95" />
    <path d="M21.86,13.3c2.53,3.4,6.3,6.52,9.11,7.14v0c2.89-.65,6.79-3.92,9.32-7.42l.4-.57c2.29-3.4,3.19-6.91.55-8.38a6,6,0,0,0-3-.82C34.1,3.3,31,7.59,31,7.59s-3.12-4.34-7.25-4.34a6.11,6.11,0,0,0-3,.82C18,5.59,19,9.25,21.46,12.74,21.59,12.93,21.72,13.12,21.86,13.3Zm-.42-7.92a4.59,4.59,0,0,1,2.28-.63c3.29,0,6,3.68,6,3.72L31,10.13l1.22-1.65s2.75-3.68,6-3.68a4.56,4.56,0,0,1,2.3.63,1.41,1.41,0,0,1,.78,1c.28,1.16-.41,3.12-1.83,5.24l-.12.16c-.08.13-.17.25-.26.38-2.3,3.18-5.66,6-8,6.73-2.32-.66-5.62-3.34-8-6.52-.13-.17-.25-.35-.37-.52-1.56-2.23-2.32-4.28-2-5.5A1.51,1.51,0,0,1,21.44,5.38Z" />
  </g>
</svg>