<?xml version="1.0" encoding="utf-8"?>
<svg id="icon-filter" xmlns="http://www.w3.org/2000/svg" viewBox="0 0 48 48">
  <defs />
  <path d="M24,4.88c-9.94,0-16.62,2-16.62,4a.68.68,0,0,0,0,.25c.49,1.78,7,3.7,16.57,3.7S40,10.86,40.52,9.08l0-.25C40.57,6.92,33.89,4.88,24,4.88ZM35,8.91Zm1.28.18,0-.16-.14-.1a3.1,3.1,0,0,0-.82-.36l-.13,0a46.25,46.25,0,0,0-11-1c-.88,0-1.74,0-2.59,0-2,.06-3.82.19-5.3.38a.26.26,0,0,1-.29-.22.25.25,0,0,1,.22-.28,69.25,69.25,0,0,1,8-.42c8.62,0,12.56,1,12.65,2.05v.08A.26.26,0,0,1,36.3,9.09Z" class="fill-background-color" />
  <g class="fill-color">
    <path d="M24,16.51A48.56,48.56,0,0,1,11,15l-1.66-.49L19.81,26.45V27h.25V45l7.81-4.47V27h.25v-.6L38.55,14.51,36.89,15A48.56,48.56,0,0,1,24,16.51ZM22.54,30.7v9.61c0,.27-.5.27-.5,0V30.7a.27.27,0,0,1,.07-.17.25.25,0,0,1,.18-.08l.1,0C22.45,30.51,22.5,30.56,22.54,30.7Zm-1.1-6.32c-.12.1-.22.13-.35,0L15.64,18.2a.24.24,0,0,1,0-.35.23.23,0,0,1,.16-.06.24.24,0,0,1,.19.08L21.46,24A.25.25,0,0,1,21.44,24.38Z" />
    <path d="M39.8,10.54c-1.46.94-4,1.69-7.47,2.18a64.41,64.41,0,0,1-16.76,0c-3.42-.49-6-1.24-7.47-2.18L7.33,10v2a1.47,1.47,0,0,0,.74,1.13,4.18,4.18,0,0,0,.38.25,3.61,3.61,0,0,0,.39.22C11.06,14.8,16.2,16,24,16s12.89-1.21,15.11-2.35a3.61,3.61,0,0,0,.39-.22,2.78,2.78,0,0,0,.38-.25,1.47,1.47,0,0,0,.74-1.13V10Z" />
  </g>
  <g class="stroke-color">
    <path d="M41.57,8.83c0-3.25-8.86-4.95-17.62-4.95s-17.62,1.7-17.62,5c0,0,0,.08,0,.12h0v3.11A2.53,2.53,0,0,0,7.58,14l11.48,13.1V46.75l9.81-5.62v-14L40.32,14a2.5,2.5,0,0,0,1.25-1.95V9h0S41.57,8.87,41.57,8.83ZM27.36,26.53h0V40.26l-6.81,3.9V26.53h0l-9.67-11A49.34,49.34,0,0,0,24,17,49.34,49.34,0,0,0,37,15.48ZM7.83,8.83c0-1.2,5.54-3.45,16.12-3.45S40.07,7.63,40.07,8.83A.53.53,0,0,1,40,9C39.7,10.18,34.2,12.28,24,12.28S8.2,10.18,7.86,9A.53.53,0,0,1,7.83,8.83Zm32.24,3.23c0,.22-.18.47-.54.73a2.5,2.5,0,0,1-.34.23l-.36.2c-2.17,1.11-7.18,2.29-14.88,2.29S11.24,14.33,9.07,13.22L8.71,13a3.34,3.34,0,0,1-.34-.23c-.35-.26-.54-.51-.54-.73V11a20.93,20.93,0,0,0,7.67,2.26,61.38,61.38,0,0,0,8.45.56,61.38,61.38,0,0,0,8.45-.56A20.93,20.93,0,0,0,40.07,11Z" />
    <path d="M21.83,23.7l-5.44-6.16a.76.76,0,0,0-1.06-.07.75.75,0,0,0-.06,1.06l5.44,6.16a.75.75,0,0,0,.56.25.77.77,0,0,0,.5-.18A.75.75,0,0,0,21.83,23.7Z" />
    <path d="M22.61,30a.72.72,0,0,0-.32-.08.73.73,0,0,0-.54.24.72.72,0,0,0-.21.51v9.61a.75.75,0,0,0,1.5,0V30.7a.59.59,0,0,0-.05-.23A.72.72,0,0,0,22.61,30Z" />
    <path d="M16.28,8.35C17.8,8.17,19.62,8,21.54,8c.85,0,1.71,0,2.58,0a45.44,45.44,0,0,1,10.9,1l.12,0a2.82,2.82,0,0,1,.68.28A.75.75,0,0,0,37.29,9s0,0,0-.07C37.08,6.69,28,6.44,24.12,6.44a70.36,70.36,0,0,0-8,.42.75.75,0,1,0,.18,1.49Z" />
  </g>
</svg>
