<?xml version="1.0" encoding="utf-8"?>
<svg id="icon-mood-good" xmlns="http://www.w3.org/2000/svg" viewBox="0 0 48 48">
  <defs />
  <circle class="fill-color" cx="24" cy="24" r="21.18" />
  <g class="stroke-color">
    <path d="M24,2.07A21.93,21.93,0,1,0,45.93,24,22,22,0,0,0,24,2.07Zm0,42.36A20.43,20.43,0,1,1,44.43,24,20.46,20.46,0,0,1,24,44.43Z" />
    <ellipse cx="17.64" cy="17.73" rx="3.03" ry="4.77" />
    <path d="M31,22.5c1.67,0,3-2.14,3-4.77S32.64,13,31,13s-3,2.13-3,4.77S29.3,22.5,31,22.5Z" />
    <path d="M34.56,28.93a1,1,0,0,0-1.22.7c-.87,3.21-4.8,5.55-9.34,5.55s-8.45-2.33-9.33-5.53a1,1,0,1,0-1.93.53c1.14,4.12,5.77,7,11.26,7s10.17-3,11.27-7A1,1,0,0,0,34.56,28.93Z" />
  </g>
</svg>
