<svg xmlns="http://www.w3.org/2000/svg" viewBox="0 0 48 48">
  <path class="fill-color stroke-color"
        d="M16.17,8.42h12a8,8,0,0,1,8,8V39.2a4,4,0,0,1-4,4h-20a4,4,0,0,1-4-4V16.42a8,8,0,0,1,8-8Z"/>
  <rect class="fill-background-color stroke-color" x="10.24" y="1.48" width="23.89" height="8.03" rx="2.85"/>
  <line class="fill-none stroke-color" style="stroke-linecap: round;" x1="14.81" y1="4.39" x2="14.81" y2="6.97"/>
  <line class="fill-none stroke-color" style="stroke-linecap: round;" x1="18.54" y1="4.39" x2="18.54" y2="6.97"/>
  <line class="fill-none stroke-color" style="stroke-linecap: round;" x1="22.27" y1="4.39" x2="22.27" y2="6.97"/>
  <line class="fill-none stroke-color" style="stroke-linecap: round;" x1="26.01" y1="4.39" x2="26.01" y2="6.97"/>
  <line class="fill-none stroke-color" style="stroke-linecap: round;" x1="29.74" y1="4.39" x2="29.74" y2="6.97"/>
  <rect class="fill-background-color stroke-color" x="10.75" y="15.55" width="22.86" height="21.14" rx="3"/>
  <path class="fill-color"
        d="M21.25,20.07a4.1,4.1,0,1,0-5.61,6l2.84,2.67s-.36-2,1.78-4.05a6.21,6.21,0,0,1,4.43-1.39Z"
        transform="translate(0.05 0.07)"/>
  <rect class="fill-none stroke-color" x="17.49" y="17.61" width="8.21" height="17.07" rx="2.92"
        transform="translate(-12.11 23) rotate(-45)"/>
  <path class="fill-none stroke-color" d="M18.35,28.71c0-2.91,3.18-6.13,6.36-5.26" transform="translate(0.05 0.07)"/>
  <path class="fill-none stroke-color" style="stroke-linecap: round;" d="M24.3,26.21l1.52,1.53a2.3,2.3,0,0,1,0,3.24h0"
        transform="translate(0.05 0.07)"/>
  <polygon class="fill-background-color stroke-color"
           points="41.63 18.31 46.76 23.44 28.33 41.86 19.59 45.47 23.2 36.73 41.63 18.31"/>
  <rect class="fill-color stroke-color" style="stroke-linejoin: bevel;" x="31.3" y="16.99" width="7.26" height="26.05"
        transform="translate(38.46 76) rotate(-135)"/>
  <line class="fill-none stroke-color" style="stroke-linecap: round;" x1="35.59" y1="28.36" x2="41.07" y2="22.88"/>
  <line class="fill-none stroke-color" style="stroke-linecap: round;" x1="31.92" y1="32.04" x2="33.93" y2="30.03"/>
  <polygon class="fill-color stroke-color" points="23.25 43.96 19.59 45.47 21.1 41.81 23.25 43.96"/>
</svg>
