<svg xmlns="http://www.w3.org/2000/svg" viewBox="0 0 48 48"><defs><style>.a-font{fill:none;}.b-font{fill:#40d5b9;stroke:#303030;stroke-miterlimit:10;}</style></defs><rect class="a-font" width="48" height="48"/><path class="b-font" d="M42.71,41.68a11.78,11.78,0,0,1,.49,1.85,1.15,1.15,0,0,1-.26,1,2.21,2.21,0,0,1-1.26.42c-.61.05-1.44.08-2.49.08s-2,0-2.58,0a5.93,5.93,0,0,1-1.4-.2,1.23,1.23,0,0,1-.68-.4,2,2,0,0,1-.32-.68l-2.82-8.41H15.68L13,43.49a2.56,2.56,0,0,1-.34.76,1.38,1.38,0,0,1-.68.49,4.81,4.81,0,0,1-1.33.24c-.57.05-1.32.07-2.24.07A22.56,22.56,0,0,1,6.11,45a1.82,1.82,0,0,1-1.17-.47,1.27,1.27,0,0,1-.22-1,9.88,9.88,0,0,1,.48-1.81L18.1,4.5a3,3,0,0,1,.46-.89,1.56,1.56,0,0,1,.82-.52A6.83,6.83,0,0,1,21,2.86c.67,0,1.55,0,2.65,0,1.27,0,2.28,0,3,0a8.47,8.47,0,0,1,1.76.23,1.78,1.78,0,0,1,.91.53,3.25,3.25,0,0,1,.47,1ZM23.5,11h0L17.55,28.78H29.42Z" transform="translate(0.05 0.07)"/></svg>