<svg xmlns="http://www.w3.org/2000/svg" viewBox="0 0 48 48"><defs><style>.a-info-flyout{fill:none;}.b-info-flyout{fill:#40d5b9;}.b-info-flyout,.c-info-flyout{stroke:#303030;stroke-miterlimit:10;}.c-info-flyout{fill:#fff;}</style></defs><rect class="a-info-flyout" width="48" height="48"/><circle class="b-info-flyout" cx="24" cy="24" r="21.12"/><path class="c-info-flyout" d="M32.6,17.57a8.66,8.66,0,0,1-.46,2.93,6.72,6.72,0,0,1-1.31,2.26,6.51,6.51,0,0,1-2,1.53A8.06,8.06,0,0,1,26.2,25l-.15,3.86c0,.24-.2.42-.57.54a5.32,5.32,0,0,1-1.57.17c-.44,0-.8,0-1.1,0a2.84,2.84,0,0,1-.7-.1.85.85,0,0,1-.38-.22.59.59,0,0,1-.14-.36l-.18-4.67a5.07,5.07,0,0,1,.06-1,1.31,1.31,0,0,1,.29-.64,1.12,1.12,0,0,1,.52-.32,2.83,2.83,0,0,1,.76-.09h.27a4.41,4.41,0,0,0,1.82-.34,3.45,3.45,0,0,0,2-2.2,5.94,5.94,0,0,0,0-3.34,3.58,3.58,0,0,0-.82-1.37A3.48,3.48,0,0,0,24.89,14,5.39,5.39,0,0,0,23,13.69a7.36,7.36,0,0,0-1.79.2,10.26,10.26,0,0,0-1.32.43c-.37.16-.68.31-.92.44a1.43,1.43,0,0,1-.57.2.43.43,0,0,1-.26-.09.72.72,0,0,1-.19-.33,2.82,2.82,0,0,1-.13-.67,8.64,8.64,0,0,1-.05-1.11,6,6,0,0,1,.06-1,1,1,0,0,1,.26-.52,3,3,0,0,1,.75-.46,9.7,9.7,0,0,1,1.32-.5,14,14,0,0,1,1.73-.38,11.51,11.51,0,0,1,2-.16,11.07,11.07,0,0,1,4,.64,7.41,7.41,0,0,1,2.72,1.74,6.64,6.64,0,0,1,1.56,2.49A8.9,8.9,0,0,1,32.6,17.57ZM26.74,35.25a6,6,0,0,1-.13,1.37,2,2,0,0,1-.45.89,1.92,1.92,0,0,1-.88.48,5.08,5.08,0,0,1-1.33.15A5.19,5.19,0,0,1,22.58,38a1.72,1.72,0,0,1-1.32-1.37,6.56,6.56,0,0,1-.13-1.37,6.88,6.88,0,0,1,.13-1.4,2,2,0,0,1,.46-.91,1.82,1.82,0,0,1,.86-.49A5.19,5.19,0,0,1,24,32.3a5.08,5.08,0,0,1,1.33.15,1.84,1.84,0,0,1,.88.49,2.05,2.05,0,0,1,.45.91A6.23,6.23,0,0,1,26.74,35.25Z" transform="translate(0.05 0.07)"/></svg>