<svg xmlns="http://www.w3.org/2000/svg" viewBox="0 0 48 48"><defs><style>.a-calendar-month,.d-calendar-month{fill:none;}.b-calendar-month{fill:#40d5b9;}.b-calendar-month,.c-calendar-month,.d-calendar-month{stroke:#303030;stroke-miterlimit:10;}.c-calendar-month{fill:#fff;}</style></defs><rect class="a-calendar-month" width="48" height="48"/><rect class="b-calendar-month" x="2.88" y="16.7" width="42.16" height="25.4"/><path class="c-calendar-month" d="M4.88,9H43a2,2,0,0,1,2,2v6.35a0,0,0,0,1,0,0H2.88a0,0,0,0,1,0,0V11A2,2,0,0,1,4.88,9Z"/><rect class="c-calendar-month" x="5.82" y="4.71" width="2.38" height="8.46" rx="0.84"/><rect class="c-calendar-month" x="14.02" y="4.71" width="2.38" height="8.46" rx="0.84"/><rect class="c-calendar-month" x="22.78" y="4.71" width="2.38" height="8.46" rx="0.84"/><rect class="c-calendar-month" x="31.61" y="4.71" width="2.38" height="8.46" rx="0.84"/><rect class="c-calendar-month" x="40.02" y="4.71" width="2.38" height="8.46" rx="0.84"/><rect class="b-calendar-month" x="2.88" y="16.7" width="42.16" height="25.4"/><rect class="c-calendar-month" x="7.01" y="20.94" width="34.19" height="16.86"/><line class="d-calendar-month" x1="12.66" y1="20.94" x2="12.66" y2="37.79"/><line class="d-calendar-month" x1="19.78" y1="20.94" x2="19.78" y2="37.79"/><line class="d-calendar-month" x1="26.9" y1="20.94" x2="26.9" y2="37.79"/><line class="d-calendar-month" x1="34.02" y1="20.94" x2="34.02" y2="37.79"/><line class="d-calendar-month" x1="7.01" y1="26.65" x2="40.92" y2="26.65"/><line class="d-calendar-month" x1="7.01" y1="31.92" x2="40.92" y2="31.92"/></svg>