<svg xmlns="http://www.w3.org/2000/svg" viewBox="0 0 48 48"><defs><style>.a-simple-language,.e-simple-language,.f-simple-language{fill:none;}.b-simple-language,.g-simple-language,.h-simple-language{fill:#40d5b9;}.c-simple-language{fill:#fff;}.d-simple-language{fill:#303030;}.e-simple-language,.f-simple-language,.g-simple-language,.h-simple-language{stroke:#303030;stroke-miterlimit:10;}.f-simple-language,.h-simple-language{stroke-linecap:round;}</style></defs><rect class="a-simple-language" width="48" height="48"/><path class="b-simple-language" d="M23.79,1.51c6.3,0,11.41,4,11.41,11.15-5.93,0-11.07-1.77-13.8-4.68a7.14,7.14,0,0,1-2.11-5l-.24-.64A13.3,13.3,0,0,1,23.79,1.51Z" transform="translate(0.05 0.07)"/><path class="c-simple-language" d="M19.46,14.18c-.57,0-1,.8-1,1.79s.47,1.79,1,1.79S20.51,17,20.51,16,20,14.18,19.46,14.18Zm8.07,3.58c.58,0,1-.8,1-1.79s-.47-1.79-1-1.79-1,.8-1,1.79S27,17.76,27.53,17.76ZM21.4,8c2.73,2.91,7.87,4.68,13.8,4.68,0,7.19-5.11,14.89-11.41,14.89-5.74,0-10.49-6.39-11.29-13l.46-.05C17.14,14.53,21.4,11.89,21.4,8Z" transform="translate(0.05 0.07)"/><path class="d-simple-language" d="M27.53,14.18c.58,0,1,.8,1,1.79s-.47,1.79-1,1.79-1-.8-1-1.79S27,14.18,27.53,14.18Z" transform="translate(0.05 0.07)"/><path class="d-simple-language" d="M19.46,14.18c.58,0,1.05.8,1.05,1.79s-.47,1.79-1.05,1.79-1-.8-1-1.79S18.89,14.18,19.46,14.18Z" transform="translate(0.05 0.07)"/><path class="b-simple-language" d="M19.29,3A7.14,7.14,0,0,0,21.4,8c0,3.91-4.26,6.55-8.44,6.55l-.46.05a15.47,15.47,0,0,1-.12-1.92c0-5.25,2.74-8.79,6.67-10.31Z" transform="translate(0.05 0.07)"/><path class="d-simple-language" d="M23.79,2.51c6.32,0,10.41,4,10.41,10.15,0,6.42-4.55,13.89-10.41,13.89-5.28,0-9.59-6.25-10.3-12.09a15.53,15.53,0,0,1-.11-1.8c0-4.48,2.2-7.9,6-9.38a12.3,12.3,0,0,1,4.38-.77m0-1a13.3,13.3,0,0,0-4.74.84c-3.93,1.52-6.67,5.06-6.67,10.31a15.47,15.47,0,0,0,.12,1.92c.8,6.58,5.55,13,11.29,13,6.3,0,11.41-7.7,11.41-14.89S30.09,1.51,23.79,1.51Z" transform="translate(0.05 0.07)"/><path class="e-simple-language" d="M19.29,3A7.14,7.14,0,0,0,21.4,8c2.73,2.91,7.87,4.68,13.8,4.68" transform="translate(0.05 0.07)"/><path class="e-simple-language" d="M21.4,8c0,3.91-4.26,6.55-8.44,6.55" transform="translate(0.05 0.07)"/><path class="f-simple-language" d="M20.51,20.63s3.71,4.19,6.73-.25" transform="translate(0.05 0.07)"/><rect class="g-simple-language" x="20.91" y="25.5" width="5.84" height="21.27" rx="1"/><polygon class="b-simple-language" points="40.45 38.54 26.77 46.5 26.77 25.37 40.45 17.41 40.45 38.54"/><polygon class="b-simple-language" points="7.24 38.54 20.91 46.5 20.91 25.37 7.24 17.41 7.24 38.54"/><line class="f-simple-language" x1="30.42" y1="29.71" x2="37.36" y2="25.42"/><line class="f-simple-language" x1="30.42" y1="35.17" x2="37.36" y2="30.88"/><polyline class="e-simple-language" points="26.77 46.5 26.77 25.37 40.45 17.41 40.45 38.54"/><polyline class="e-simple-language" points="20.91 46.5 20.91 25.37 7.24 17.41 7.24 38.54"/><line class="h-simple-language" x1="40.45" y1="38.54" x2="26.77" y2="46.08"/><line class="h-simple-language" x1="7.24" y1="38.54" x2="20.91" y2="46.15"/></svg>