<svg xmlns="http://www.w3.org/2000/svg" viewBox="0 0 48 48"><defs><style>.a-doctors-letter,.c-doctors-letter{fill:none;}.b-doctors-letter{fill:#40d5b9;}.b-doctors-letter,.c-doctors-letter,.e-doctors-letter{stroke:#303030;stroke-miterlimit:10;}.d-doctors-letter,.e-doctors-letter{fill:#fff;}</style></defs><rect class="a-doctors-letter" width="48" height="48"/><rect class="b-doctors-letter" x="5.18" y="20.37" width="37.64" height="23.05"/><polyline class="b-doctors-letter" points="42.82 20.16 24 4.34 5.18 20.16"/><rect class="c-doctors-letter" x="5.18" y="20.37" width="37.64" height="23.05"/><path class="d-doctors-letter" d="M35.83,21.73A2.53,2.53,0,0,0,34.06,21a2.57,2.57,0,0,0-1.67.65l-.17,0L28,21.57c-1.71,0-3.23-.08-4.62,1.12-.08.06-.52.41-.44.38l-.19.11a3.64,3.64,0,0,0-.57.16h-.05l-.34,0a12.71,12.71,0,0,1-1.51,0l-.53-.08a2.53,2.53,0,0,0-2.16-.59l-.11-.12a4.23,4.23,0,0,0-1.55-.87c-.65-.25-1.31-.48-2-.72a2.5,2.5,0,0,0-1.93.25,2.5,2.5,0,0,0,.59,4.58c.52.19,1,.37,1.54.57a7.51,7.51,0,0,0,1.44,1.36c.39.28.81.54,1.2.82a12.15,12.15,0,0,0,2.84,2,2.42,2.42,0,0,0,4.2.21,3,3,0,0,0,.43.12,2.27,2.27,0,0,0,2,1.08,2.29,2.29,0,0,0,2.34-1.85,2.36,2.36,0,0,0,1.59-.72,4.14,4.14,0,0,1,.38-.35c.76-.5,1.6-.85,2.37-1.34a13.05,13.05,0,0,0,2.84-2.45,2.66,2.66,0,0,0,.73-1.77A2.53,2.53,0,0,0,35.83,21.73Z" transform="translate(0.05 0.07)"/><polyline class="e-doctors-letter" points="10.5 24.27 10.5 4 36.92 4 36.92 24.27"/><line class="c-doctors-letter" x1="21.63" y1="32.45" x2="5.18" y2="20.37"/><line class="c-doctors-letter" x1="26.37" y1="32.45" x2="42.82" y2="20.37"/><polyline class="c-doctors-letter" points="42.82 43.42 24 30.87 5.18 43.42"/><path class="b-doctors-letter" d="M31.06,15.63a3,3,0,0,0-.19-.67,1.5,1.5,0,0,0-.48-.57,1.27,1.27,0,0,0-.67-.2H26v-4.1a1.43,1.43,0,0,0-.19-.68,1.34,1.34,0,0,0-.6-.52,2.39,2.39,0,0,0-.68-.19,6.83,6.83,0,0,0-1.69,0,2.37,2.37,0,0,0-.69.19,1.41,1.41,0,0,0-.6.5,1.32,1.32,0,0,0-.2.7v4.1H17.59a1.23,1.23,0,0,0-.7.22,1.45,1.45,0,0,0-.44.55,2.39,2.39,0,0,0-.19.68,5.94,5.94,0,0,0-.05.79,4.79,4.79,0,0,0,.06.83,2.2,2.2,0,0,0,.22.67,1.44,1.44,0,0,0,.46.54,1.27,1.27,0,0,0,.69.21h3.69v4.11a1.23,1.23,0,0,0,.24.73,1.31,1.31,0,0,0,.56.44,2.39,2.39,0,0,0,.68.19,6.47,6.47,0,0,0,.85.05,6.3,6.3,0,0,0,.84-.05,2.56,2.56,0,0,0,.68-.18,1.43,1.43,0,0,0,.59-.49,1.27,1.27,0,0,0,.21-.69V18.68h3.7a1.28,1.28,0,0,0,.68-.2,1.36,1.36,0,0,0,.48-.55,2.24,2.24,0,0,0,.22-.69,6,6,0,0,0,.05-.81A6.22,6.22,0,0,0,31.06,15.63Z" transform="translate(0.05 0.07)"/></svg>