<svg xmlns="http://www.w3.org/2000/svg" viewBox="0 0 48 48"><defs><style>.a-medicine-whole,.d-medicine-whole,.f-medicine-whole{fill:none;}.b-medicine-whole,.e-medicine-whole{fill:#40d5b9;}.b-medicine-whole,.c-medicine-whole,.d-medicine-whole,.f-medicine-whole{stroke:#303030;stroke-miterlimit:10;}.c-medicine-whole,.g-medicine-whole{fill:#fff;}.d-medicine-whole{stroke-linecap:round;}</style></defs><rect class="a-medicine-whole" width="48" height="48"/><path class="b-medicine-whole" d="M16.88,8.42h12a8,8,0,0,1,8,8V39.2a4,4,0,0,1-4,4h-20a4,4,0,0,1-4-4V16.42a8,8,0,0,1,8-8Z"/><rect class="c-medicine-whole" x="10.94" y="1.48" width="23.89" height="8.03" rx="2.85"/><line class="d-medicine-whole" x1="15.51" y1="4.39" x2="15.51" y2="6.97"/><line class="d-medicine-whole" x1="19.25" y1="4.39" x2="19.25" y2="6.97"/><line class="d-medicine-whole" x1="22.98" y1="4.39" x2="22.98" y2="6.97"/><line class="d-medicine-whole" x1="26.71" y1="4.39" x2="26.71" y2="6.97"/><line class="d-medicine-whole" x1="30.44" y1="4.39" x2="30.44" y2="6.97"/><rect class="c-medicine-whole" x="11.46" y="15.55" width="22.86" height="21.14" rx="3"/><path class="e-medicine-whole" d="M22,20.07a4.1,4.1,0,1,0-5.61,6l2.85,2.67s-.37-2,1.77-4.05a6.24,6.24,0,0,1,4.44-1.39Z" transform="translate(0.05 0.07)"/><rect class="f-medicine-whole" x="18.2" y="17.61" width="8.21" height="17.07" rx="2.92" transform="translate(-11.91 23.5) rotate(-45)"/><path class="f-medicine-whole" d="M19.06,28.71c0-2.91,3.17-6.13,6.35-5.26" transform="translate(0.05 0.07)"/><path class="d-medicine-whole" d="M25,26.21l1.53,1.53a2.3,2.3,0,0,1,0,3.24h0" transform="translate(0.05 0.07)"/><path class="g-medicine-whole" d="M34.09,46.28a9.75,9.75,0,1,1,9.75-9.75A9.77,9.77,0,0,1,34.09,46.28Z" transform="translate(0.05 0.07)"/><path class="g-medicine-whole" d="M34.09,27.28a9.25,9.25,0,1,1-9.25,9.25,9.26,9.26,0,0,1,9.25-9.25m0-1A10.25,10.25,0,1,0,44.34,36.53,10.25,10.25,0,0,0,34.09,26.28Z" transform="translate(0.05 0.07)"/><polyline class="d-medicine-whole" points="27.66 36.97 33.15 43.2 39.63 30.74"/></svg>