<svg xmlns="http://www.w3.org/2000/svg" viewBox="0 0 48.87 48.58"><defs><style>.a-all-taken{fill:none;}.b-all-taken{fill:#add61e;}.b-all-taken,.c-all-taken{stroke:#303030;stroke-miterlimit:10;}.c-all-taken{fill:#fff;}</style></defs><rect class="a-all-taken" x="0.94" y="0.65" width="47.93" height="47.93"/><rect class="a-all-taken" width="24" height="24"/><circle class="b-all-taken" cx="24.94" cy="24.65" r="21"/><path class="c-all-taken" d="M37.25,16.35l-.89-.9a2.81,2.81,0,0,0-4,0h0l-12.2,12.2-4.59-4.6a2.79,2.79,0,0,0-3.95,0h0l-.9.9a2.81,2.81,0,0,0,0,4h0l7.44,7.44a2.89,2.89,0,0,0,4,0l15-15a2.81,2.81,0,0,0,0-4Z" transform="translate(0.94 0.65)"/></svg>