<svg xmlns="http://www.w3.org/2000/svg" viewBox="0 0 48 48"><defs><style>.a-emergency,.e-emergency{fill:none;}.b-emergency{fill:#40d5b9;}.c-emergency{fill:#303030;}.d-emergency{fill:#fff;}.e-emergency{stroke:#303030;stroke-linecap:round;stroke-miterlimit:10;}</style></defs><rect class="a-emergency" width="48" height="48"/><path class="b-emergency" d="M3.53,42.1a2,2,0,0,1-1.71-1,2,2,0,0,1,0-2L22.24,3.78a2,2,0,0,1,3.42,0L46.08,39.15a2,2,0,0,1,0,2,2,2,0,0,1-1.71,1Z" transform="translate(0.05 0.07)"/><path class="c-emergency" d="M24,3.29A1.45,1.45,0,0,1,25.22,4L45.64,39.4a1.47,1.47,0,0,1-1.27,2.2H3.53a1.47,1.47,0,0,1-1.27-2.2L22.68,4A1.45,1.45,0,0,1,24,3.29m0-1a2.47,2.47,0,0,0-2.14,1.24L1.39,38.9a2.47,2.47,0,0,0,2.14,3.7H44.37a2.47,2.47,0,0,0,2.14-3.7L26.09,3.53A2.46,2.46,0,0,0,24,2.29Z" transform="translate(0.05 0.07)"/><polygon class="d-emergency" points="8.57 37.22 24 10.49 39.43 37.22 8.57 37.22"/><path class="c-emergency" d="M24,11.43,38.52,36.65H9.39L24,11.43m0-2L7.65,37.65h32.6L24,9.43Z" transform="translate(0.05 0.07)"/><line class="e-emergency" x1="23.71" y1="19.06" x2="23.71" y2="27.67"/><line class="e-emergency" x1="23.71" y1="31.53" x2="23.71" y2="33.68"/></svg>