<svg xmlns="http://www.w3.org/2000/svg" viewBox="0 0 48 48"><defs><style>.a-chart,.c-chart,.d-chart{fill:none;}.b-chart,.f-chart{fill:#40d5b9;}.b-chart,.c-chart,.d-chart{stroke:#303030;stroke-miterlimit:10;}.d-chart{stroke-linecap:square;}.e-chart{fill:#303030;}</style></defs><rect class="a-chart" width="48" height="48"/><rect class="b-chart" x="9.25" y="14.74" width="6" height="23.46"/><rect class="b-chart" x="19.28" y="26.14" width="6" height="12.06"/><rect class="b-chart" x="29.31" y="22.68" width="6" height="15.52"/><line class="c-chart" x1="5.43" y1="6.01" x2="5.43" y2="42.02"/><line class="d-chart" x1="40.71" y1="42.02" x2="5.43" y2="42.02"/><polygon class="e-chart" points="5.43 2.73 2.18 8.36 8.68 8.36 5.43 2.73"/><polygon class="e-chart" points="45.82 42.02 40.2 38.77 40.2 45.27 45.82 42.02"/><path class="f-chart" d="M31.07,20c-2.54-.57-6.23-3.49-8.81-6.95l-.39-.55C20.13,10,19.33,7.67,19.68,6.16A2.4,2.4,0,0,1,21,4.51a5.67,5.67,0,0,1,2.77-.76c3.82,0,6.82,4.09,6.85,4.13l.4.56.41-.56s3-4.08,6.83-4.08A5.7,5.7,0,0,1,41,4.55a2.43,2.43,0,0,1,1.26,1.63c.36,1.46-.35,3.61-2,6.05l-.38.54C37.36,16.28,33.69,19.26,31.07,20Z" transform="translate(0.05 0.07)"/><path class="e-chart" d="M23.72,4.25c3.55,0,6.42,3.89,6.44,3.92L31,9.29l.81-1.11S34.67,4.3,38.21,4.3A5.2,5.2,0,0,1,40.76,5a2,2,0,0,1,1,1.3c.31,1.31-.39,3.37-1.91,5.64l-.12.17c-.08.12-.17.25-.27.38-2.39,3.32-5.95,6.24-8.42,7-2.43-.62-5.93-3.42-8.4-6.74l-.38-.53c-1.66-2.38-2.43-4.53-2.11-5.9a2,2,0,0,1,1-1.33,5.3,5.3,0,0,1,2.53-.69m0-1a6.11,6.11,0,0,0-3,.82C18,5.59,19,9.25,21.46,12.74c.13.19.26.38.4.56,2.53,3.4,6.3,6.52,9.11,7.14v0c2.89-.65,6.79-3.92,9.32-7.42l.4-.57c2.29-3.4,3.19-6.91.55-8.38a6,6,0,0,0-3-.82C34.1,3.3,31,7.59,31,7.59s-3.12-4.34-7.25-4.34Z" transform="translate(0.05 0.07)"/></svg>