<svg xmlns="http://www.w3.org/2000/svg" viewBox="0 0 48 48"><defs><style>.a-digital-patient-file,.d-digital-patient-file{fill:none;}.b-digital-patient-file{fill:#40d5b9;}.b-digital-patient-file,.c-digital-patient-file,.d-digital-patient-file{stroke:#303030;stroke-miterlimit:10;}.c-digital-patient-file{fill:#fff;}.d-digital-patient-file{stroke-linecap:round;}</style></defs><rect class="a-digital-patient-file" width="48" height="48"/><path class="b-digital-patient-file" d="M25.49,10.66V7.5a2.57,2.57,0,0,0-2.57-2.57H5.58A2.57,2.57,0,0,0,3,7.5V39.32a2.57,2.57,0,0,0,2.57,2.57H41.12V10.66Z" transform="translate(0.05 0.07)"/><path class="c-digital-patient-file" d="M7.81,14.28H45.29a0,0,0,0,1,0,0V39a3,3,0,0,1-3,3H7.81a0,0,0,0,1,0,0V14.28A0,0,0,0,1,7.81,14.28Z"/><path class="b-digital-patient-file" d="M7.77,15.72v23.6A2.57,2.57,0,0,1,5.2,41.89" transform="translate(0.05 0.07)"/><circle class="b-digital-patient-file" cx="26.91" cy="27.92" r="11.58"/><path class="c-digital-patient-file" d="M33.92,27.1a2.32,2.32,0,0,0-.19-.64,1.44,1.44,0,0,0-.45-.55,1.25,1.25,0,0,0-.64-.19H29.07V21.81a1.3,1.3,0,0,0-.18-.65,1.25,1.25,0,0,0-.57-.49,1.92,1.92,0,0,0-.65-.18,6.68,6.68,0,0,0-1.61,0,2.16,2.16,0,0,0-.66.19,1.34,1.34,0,0,0-.57.48,1.22,1.22,0,0,0-.2.66v3.91H21.07a1.12,1.12,0,0,0-.67.22,1.3,1.3,0,0,0-.42.52,2.34,2.34,0,0,0-.18.64,5.58,5.58,0,0,0-.05.76,4.3,4.3,0,0,0,.06.79,2,2,0,0,0,.21.64,1.3,1.3,0,0,0,.44.51,1.16,1.16,0,0,0,.65.2h3.52v3.92a1.17,1.17,0,0,0,.23.7,1.38,1.38,0,0,0,.54.43,2.19,2.19,0,0,0,.65.17,4.47,4.47,0,0,0,.81.06,5.77,5.77,0,0,0,.8-.05,2.32,2.32,0,0,0,.65-.18,1.28,1.28,0,0,0,.56-.46,1.22,1.22,0,0,0,.2-.67V30H32.6a1.17,1.17,0,0,0,.65-.19,1.23,1.23,0,0,0,.46-.52,2.05,2.05,0,0,0,.21-.66,5.41,5.41,0,0,0,0-.77A5.58,5.58,0,0,0,33.92,27.1Z" transform="translate(0.05 0.07)"/><path class="d-digital-patient-file" d="M17,7.25H6.11a.75.75,0,0,0-.81.65v3.75" transform="translate(0.05 0.07)"/><path class="d-digital-patient-file" d="M23.24,10.34V7.9a.74.74,0,0,0-.81-.65h-3" transform="translate(0.05 0.07)"/></svg>