<svg xmlns="http://www.w3.org/2000/svg" viewBox="0 0 48 48"><defs><style>.a-new-medicine,.d-new-medicine,.f-new-medicine{fill:none;}.b-new-medicine,.e-new-medicine{fill:#40d5b9;}.b-new-medicine,.c-new-medicine,.d-new-medicine,.f-new-medicine{stroke:#303030;stroke-miterlimit:10;}.c-new-medicine{fill:#fff;}.d-new-medicine{stroke-linecap:round;}</style></defs><rect class="a-new-medicine" width="48" height="48"/><path class="b-new-medicine" d="M16.69,8.89H26.75a8,8,0,0,1,8,8V37.24a4,4,0,0,1-4,4H12.69a4,4,0,0,1-4-4V16.89A8,8,0,0,1,16.69,8.89Z"/><rect class="c-new-medicine" x="10.61" y="2.43" width="22.22" height="7.47" rx="2.65"/><line class="d-new-medicine" x1="14.86" y1="5.14" x2="14.86" y2="7.54"/><line class="d-new-medicine" x1="18.33" y1="5.14" x2="18.33" y2="7.54"/><line class="d-new-medicine" x1="21.8" y1="5.14" x2="21.8" y2="7.54"/><line class="d-new-medicine" x1="25.27" y1="5.14" x2="25.27" y2="7.54"/><line class="d-new-medicine" x1="28.75" y1="5.14" x2="28.75" y2="7.54"/><rect class="c-new-medicine" x="11.09" y="15.51" width="21.26" height="19.66" rx="3"/><path class="e-new-medicine" d="M20.85,19.71a3.82,3.82,0,1,0-5.22,5.58l2.65,2.48A4.47,4.47,0,0,1,19.93,24a5.79,5.79,0,0,1,4.12-1.29Z" transform="translate(0.05 0.07)"/><rect class="f-new-medicine" x="17.35" y="17.43" width="7.64" height="15.88" rx="2.71" transform="translate(-11.69 22.47) rotate(-45)"/><path class="f-new-medicine" d="M18.15,27.75c0-2.71,3-5.7,5.91-4.89" transform="translate(0.05 0.07)"/><path class="d-new-medicine" d="M23.68,25.43l1.42,1.42a2.14,2.14,0,0,1,0,3h0" transform="translate(0.05 0.07)"/><circle class="b-new-medicine" cx="34.14" cy="36.6" r="10.25"/><path class="c-new-medicine" d="M39.62,35.93a1.78,1.78,0,0,0-.15-.49.92.92,0,0,0-.85-.58h-2.8V31.8a1.06,1.06,0,0,0-.14-.51,1,1,0,0,0-.45-.39,2,2,0,0,0-.51-.14,5.31,5.31,0,0,0-1.26,0,2.08,2.08,0,0,0-.51.14,1,1,0,0,0-.45.38,1,1,0,0,0-.15.52v3.06H29.56A.85.85,0,0,0,29,35a1,1,0,0,0-.33.4,2.08,2.08,0,0,0-.14.51,4.1,4.1,0,0,0,0,1.21,1.55,1.55,0,0,0,.16.5,1,1,0,0,0,.34.4.94.94,0,0,0,.52.16h2.75v3.07a1,1,0,0,0,.18.55,1.07,1.07,0,0,0,.42.32,1.71,1.71,0,0,0,.51.15,5.27,5.27,0,0,0,.63,0,5.12,5.12,0,0,0,.63,0,2,2,0,0,0,.51-.14,1.2,1.2,0,0,0,.44-.36,1,1,0,0,0,.15-.52V38.21h2.77a.89.89,0,0,0,.5-.15,1.06,1.06,0,0,0,.37-.41,1.78,1.78,0,0,0,.16-.52,5,5,0,0,0,0-.6A5.34,5.34,0,0,0,39.62,35.93Z" transform="translate(0.05 0.07)"/></svg>