<svg xmlns="http://www.w3.org/2000/svg" viewBox="0 0 48 48"><defs><style>.a-export,.c-export{fill:none;}.b-export,.d-export{fill:#40d5b9;}.c-export,.d-export{stroke:#303030;stroke-miterlimit:10;}.e-export{fill:#fff;}</style></defs><rect class="a-export" width="48" height="48"/><polygon class="a-export" points="24 10.48 20.34 13.65 21.31 13.65 21.31 25.77 26.69 25.77 26.69 13.65 27.66 13.65 24 10.48"/><path class="b-export" d="M41.07,26.79H30.64V29.7H17.26V26.79H6.84a4,4,0,0,0-4,4V37a4,4,0,0,0,4,4H41.07a4,4,0,0,0,4-4V30.79A4,4,0,0,0,41.07,26.79Z" transform="translate(0.05 0.07)"/><path class="c-export" d="M30.69,26.79H41.07a4,4,0,0,1,4,4V37a4,4,0,0,1-4,4H6.84a4,4,0,0,1-4-4V30.79a4,4,0,0,1,4-4h10.4" transform="translate(0.05 0.07)"/><polygon class="d-export" points="19.31 15.65 19.31 27.77 28.69 27.77 28.69 15.65 33.02 15.65 24 7.83 14.97 15.65 19.31 15.65"/><circle class="e-export" cx="28.39" cy="35.9" r="1.81"/><circle class="e-export" cx="34.14" cy="35.9" r="1.81"/><circle class="e-export" cx="39.9" cy="35.9" r="1.81"/></svg>