<svg xmlns="http://www.w3.org/2000/svg" viewBox="0 0 48 48"><defs><style>.a-studies,.d-studies,.e-studies{fill:none;}.b-studies,.f-studies{fill:#40d5b9;}.b-studies,.c-studies,.d-studies,.e-studies{stroke:#303030;stroke-miterlimit:10;}.c-studies{fill:#fff;}.d-studies{stroke-linecap:round;}</style></defs><rect class="a-studies" width="48" height="48"/><polygon class="b-studies" points="38.57 40.13 9.9 40.13 9.9 11.91 15.51 5.99 38.57 5.99 38.57 40.13"/><polygon class="c-studies" points="35.8 37.36 7.13 37.36 7.13 9.13 12.73 3.21 35.8 3.21 35.8 37.36"/><line class="d-studies" x1="11.96" y1="11.86" x2="30.85" y2="11.86"/><line class="d-studies" x1="11.96" y1="16.86" x2="30.85" y2="16.86"/><line class="d-studies" x1="11.96" y1="21.85" x2="30.85" y2="21.85"/><line class="d-studies" x1="11.96" y1="26.84" x2="30.85" y2="26.84"/><line class="d-studies" x1="11.96" y1="31.84" x2="30.85" y2="31.84"/><polyline class="e-studies" points="12.87 3.33 12.87 9.21 7.13 9.21"/><circle class="c-studies" cx="26.24" cy="27.23" r="9.73"/><rect class="c-studies" x="35.61" y="34.42" width="5.46" height="11.73" rx="1.35" transform="translate(-17.21 38.98) rotate(-45)"/><line class="c-studies" x1="32.62" y1="34.58" x2="34.23" y2="36.18"/><rect class="f-studies" x="20.21" y="22.03" width="3.11" height="10.21" rx="0.88"/><rect class="f-studies" x="24.75" y="24.27" width="3.11" height="7.96" rx="0.88"/><rect class="f-studies" x="29.29" y="27.23" width="3.11" height="5.01" rx="0.88"/></svg>