<svg xmlns="http://www.w3.org/2000/svg" viewBox="0 0 48 48"><defs><style>.a-imprint{fill:none;}.b-imprint{fill:#40d5b9;stroke:#303030;stroke-miterlimit:10;}</style></defs><rect class="a-imprint" width="48" height="48"/><path class="b-imprint" d="M34.92,23.4a8,8,0,0,1-.33,2.31,8.53,8.53,0,0,1-1,2.05,8.7,8.7,0,0,1-1.47,1.74,10.11,10.11,0,0,1-1.9,1.37,6.93,6.93,0,0,1,1.62,2.31,7.61,7.61,0,0,1,.54,2.9,8.09,8.09,0,0,1-.77,3.61,7.16,7.16,0,0,1-2.17,2.62,9.87,9.87,0,0,1-3.31,1.58,15.54,15.54,0,0,1-4.14.52,14.15,14.15,0,0,1-2.78-.25A20.62,20.62,0,0,1,17,43.58a8.53,8.53,0,0,1-1.57-.68,4.91,4.91,0,0,1-.79-.51,1.34,1.34,0,0,1-.26-.34,1.24,1.24,0,0,1-.15-.47c0-.2-.07-.43-.1-.7a9.41,9.41,0,0,1,0-1,10.58,10.58,0,0,1,.06-1.26,3,3,0,0,1,.16-.77.68.68,0,0,1,.27-.38.82.82,0,0,1,.4-.1,2,2,0,0,1,.93.34c.37.23.83.48,1.38.76a11,11,0,0,0,2,.75,9.34,9.34,0,0,0,2.68.34,6.67,6.67,0,0,0,1.61-.18,3.21,3.21,0,0,0,1.21-.55,2.65,2.65,0,0,0,.77-.9,2.73,2.73,0,0,0,.27-1.26,3,3,0,0,0-.22-1.2,2.69,2.69,0,0,0-.71-1,6.22,6.22,0,0,0-1.34-.9,21.91,21.91,0,0,0-2.05-.94l-2.37-.94a21.82,21.82,0,0,1-3.06-1.51,9.82,9.82,0,0,1-2.24-1.82,7.25,7.25,0,0,1-1.38-2.32A9,9,0,0,1,12,23a7.46,7.46,0,0,1,.35-2.26,8.74,8.74,0,0,1,1-2.05A9.16,9.16,0,0,1,14.79,17a9.73,9.73,0,0,1,1.93-1.36,6.83,6.83,0,0,1-1.59-2.36,8.45,8.45,0,0,1-.54-3.17,7.4,7.4,0,0,1,.71-3.32,6.84,6.84,0,0,1,2-2.45,9.51,9.51,0,0,1,3.09-1.53,13.8,13.8,0,0,1,3.91-.52,14.74,14.74,0,0,1,2.24.17,16.17,16.17,0,0,1,1.94.43A9.92,9.92,0,0,1,30,3.42a4,4,0,0,1,.8.46,1,1,0,0,1,.28.32,1.36,1.36,0,0,1,.16.46,4.17,4.17,0,0,1,.11.74c0,.3,0,.66,0,1.09s0,.88,0,1.19a2.55,2.55,0,0,1-.14.73.86.86,0,0,1-.26.37.55.55,0,0,1-.36.11,1.58,1.58,0,0,1-.77-.28A12.91,12.91,0,0,0,28.59,8a12.65,12.65,0,0,0-1.74-.64,8.81,8.81,0,0,0-2.36-.29,4.52,4.52,0,0,0-1.57.23,3.1,3.1,0,0,0-1.05.59,2.17,2.17,0,0,0-.58.82,2.59,2.59,0,0,0-.18,1,3.48,3.48,0,0,0,.22,1.25,2.89,2.89,0,0,0,.71,1,6.24,6.24,0,0,0,1.34.93c.56.3,1.24.62,2.05,1l2.35.94a21.45,21.45,0,0,1,3.07,1.5,9.73,9.73,0,0,1,2.24,1.82,6.82,6.82,0,0,1,1.37,2.32A8.82,8.82,0,0,1,34.92,23.4ZM28.4,24a3.26,3.26,0,0,0-.84-2.32,7.28,7.28,0,0,0-2.67-1.59l-2.1-.89c-.33-.12-.63-.25-.91-.37l-.77-.38a4.09,4.09,0,0,0-2,1.68,4.56,4.56,0,0,0-.63,2.31,3.79,3.79,0,0,0,.2,1.24,3.12,3.12,0,0,0,.63,1,5,5,0,0,0,1.1.86,11.46,11.46,0,0,0,1.6.77l2.11.84a8.2,8.2,0,0,1,.89.39,7.68,7.68,0,0,1,.75.42,4.24,4.24,0,0,0,2-1.73A4.44,4.44,0,0,0,28.4,24Z" transform="translate(0.05 0.07)"/></svg>