<svg xmlns="http://www.w3.org/2000/svg" viewBox="0 0 48 48"><defs><style>.a-specialist-information{fill:none;}.b-specialist-information{fill:#40d5b9;}.b-specialist-information,.c-specialist-information{stroke:#303030;stroke-miterlimit:10;}.c-specialist-information{fill:#fff;}</style></defs><rect class="a-specialist-information" width="48" height="48"/><circle class="b-specialist-information" cx="24" cy="24" r="21.12"/><path class="c-specialist-information" d="M27.19,13a2.6,2.6,0,0,1-.69,2.08,4.15,4.15,0,0,1-2.57.58,4.17,4.17,0,0,1-2.56-.56,2.52,2.52,0,0,1-.66-2,2.7,2.7,0,0,1,.68-2.1A4.21,4.21,0,0,1,24,10.42a4.12,4.12,0,0,1,2.55.57A2.49,2.49,0,0,1,27.19,13Zm-.43,23.78a.42.42,0,0,1-.13.31,1,1,0,0,1-.46.22,4.78,4.78,0,0,1-.86.13c-.35,0-.81,0-1.36,0s-1,0-1.36,0a4.93,4.93,0,0,1-.86-.13,1,1,0,0,1-.46-.22.42.42,0,0,1-.13-.31V21.27a.42.42,0,0,1,.13-.31,1.15,1.15,0,0,1,.46-.22,4,4,0,0,1,.86-.15A13,13,0,0,1,24,20.54a12.9,12.9,0,0,1,1.36.05,3.85,3.85,0,0,1,.86.15,1.15,1.15,0,0,1,.46.22.42.42,0,0,1,.13.31Z" transform="translate(0.05 0.07)"/></svg>