<svg xmlns="http://www.w3.org/2000/svg" viewBox="0 0 48 48"><defs><style>.a-help{fill:none;}.b-help{fill:#40d5b9;stroke:#303030;stroke-miterlimit:10;}</style></defs><rect class="a-help" width="48" height="48"/><path class="b-help" d="M36.5,14.14a13.25,13.25,0,0,1-.71,4.46,10.33,10.33,0,0,1-2,3.44,9.73,9.73,0,0,1-3.08,2.33,12.1,12.1,0,0,1-4,1.12l-.24,5.88c0,.36-.31.64-.86.82a8.24,8.24,0,0,1-2.4.27c-.67,0-1.22,0-1.68-.05a5,5,0,0,1-1.07-.16,1.2,1.2,0,0,1-.57-.33,1,1,0,0,1-.21-.55l-.28-7.12a6.5,6.5,0,0,1,.1-1.57,2.07,2.07,0,0,1,.43-1,1.71,1.71,0,0,1,.8-.5,4.34,4.34,0,0,1,1.15-.13h.42a6.8,6.8,0,0,0,2.76-.51A5.59,5.59,0,0,0,27,19.21a5.28,5.28,0,0,0,1.1-2,8.76,8.76,0,0,0-.06-5.1A5.58,5.58,0,0,0,26.83,10a5.5,5.5,0,0,0-2.09-1.34,8.39,8.39,0,0,0-2.94-.47,11.09,11.09,0,0,0-2.72.3,12.9,12.9,0,0,0-2,.67c-.56.24-1,.46-1.4.66a2.08,2.08,0,0,1-.86.3.64.64,0,0,1-.4-.13,1.07,1.07,0,0,1-.3-.5,5.47,5.47,0,0,1-.19-1,13.15,13.15,0,0,1-.08-1.69,9.36,9.36,0,0,1,.09-1.54,1.45,1.45,0,0,1,.39-.78,4.56,4.56,0,0,1,1.15-.71,13.47,13.47,0,0,1,2-.76,24.69,24.69,0,0,1,2.63-.59,18.38,18.38,0,0,1,3-.24,17.07,17.07,0,0,1,6.1,1A11.65,11.65,0,0,1,33.38,5.8a10.53,10.53,0,0,1,2.37,3.81A13.63,13.63,0,0,1,36.5,14.14ZM27.56,40a9.45,9.45,0,0,1-.19,2.08,2.81,2.81,0,0,1-.7,1.36,2.84,2.84,0,0,1-1.32.74,8,8,0,0,1-2,.22,8,8,0,0,1-2.08-.22,2.84,2.84,0,0,1-1.32-.74,2.88,2.88,0,0,1-.69-1.36A9.39,9.39,0,0,1,19,40a9.75,9.75,0,0,1,.2-2.13,2.9,2.9,0,0,1,.69-1.39,2.86,2.86,0,0,1,1.32-.76,8,8,0,0,1,2.08-.22,8,8,0,0,1,2,.22,2.86,2.86,0,0,1,1.32.76,2.82,2.82,0,0,1,.7,1.39A9.82,9.82,0,0,1,27.56,40Z" transform="translate(0.05 0.07)"/></svg>