<svg xmlns="http://www.w3.org/2000/svg" viewBox="0 0 48 48"><defs><style>.a-recipe,.c-recipe{fill:none;}.b-recipe{fill:#fff;}.b-recipe,.c-recipe,.d-recipe{stroke:#303030;stroke-miterlimit:10;}.c-recipe{stroke-linecap:round;}.d-recipe{fill:#40d5b9;}</style></defs><rect class="a-recipe" width="48" height="48"/><polygon class="b-recipe" points="41.14 44.23 6.86 44.23 6.86 3.41 13.56 3.41 41.14 3.41 41.14 44.23"/><line class="c-recipe" x1="20.14" y1="29.9" x2="35.45" y2="29.9"/><line class="c-recipe" x1="20.14" y1="34.5" x2="35.45" y2="34.5"/><line class="c-recipe" x1="20.14" y1="39.1" x2="35.45" y2="39.1"/><line class="c-recipe" x1="12.43" y1="29.9" x2="15.88" y2="29.9"/><line class="c-recipe" x1="12.43" y1="34.5" x2="15.88" y2="34.5"/><line class="c-recipe" x1="12.43" y1="39.1" x2="15.88" y2="39.1"/><path class="d-recipe" d="M33.72,25.2A34,34,0,0,0,30,20.74l3.74-4.31a.94.94,0,0,0,.14-.38.26.26,0,0,0-.13-.23,1.07,1.07,0,0,0-.45-.1c-.2,0-.48,0-.83,0s-1.41,0-1.59,0a1.81,1.81,0,0,0-.41.07.7.7,0,0,0-.23.11.59.59,0,0,0-.1.17l-2.2,2.7c-.66-.59-1.53-1.39-1.8-1.61a4.78,4.78,0,0,0-.86-.54,6.81,6.81,0,0,0,1.7-.79,5.14,5.14,0,0,0,1.25-1.16A4.69,4.69,0,0,0,29,13.16a6.24,6.24,0,0,0,.26-1.88,6.06,6.06,0,0,0-.36-2.17,4.74,4.74,0,0,0-1.06-1.63,5.1,5.1,0,0,0-1.68-1.12,8.56,8.56,0,0,0-2.23-.61L23,5.67c-.35,0-.8,0-1.33,0H16.33a1.33,1.33,0,0,0-.88.31,1.27,1.27,0,0,0-.36,1V25.61a.42.42,0,0,0,.1.28.59.59,0,0,0,.33.21,4.43,4.43,0,0,0,.64.13,9.62,9.62,0,0,0,1,0,9.37,9.37,0,0,0,1,0,4.43,4.43,0,0,0,.64-.13.66.66,0,0,0,.34-.21.42.42,0,0,0,.1-.28V17.78h1.31a3.05,3.05,0,0,1,1.17.21,2.61,2.61,0,0,1,.9.61c.12.13,1.05,1,2.66,2.65l-3.12,4.57a.71.71,0,0,0-.1.33.25.25,0,0,0,.15.21,1.21,1.21,0,0,0,.44.11c.21,0,1.35,0,1.69,0l.8,0a1.88,1.88,0,0,0,.48-.07.83.83,0,0,0,.25-.13c.05-.05,1.92-2.53,1.92-2.53a16.81,16.81,0,0,1,1.66,2.15.67.67,0,0,0,.32.22,2.2,2.2,0,0,0,.63.12c.26,0,.62,0,1.06,0s.95,0,1.25,0a3.1,3.1,0,0,0,.7-.11.48.48,0,0,0,.3-.2.54.54,0,0,0,.07-.29A1.88,1.88,0,0,0,33.72,25.2Zm-9-12.29a2.44,2.44,0,0,1-.66.93,3.11,3.11,0,0,1-1.11.6,5.24,5.24,0,0,1-1.56.22H19.26V8.83h1.88a10.59,10.59,0,0,1,1.12.05A4.43,4.43,0,0,1,23,9a2.49,2.49,0,0,1,1.51,1,3.36,3.36,0,0,1,.23,2.92Z" transform="translate(0.05 0.07)"/></svg>