<svg xmlns="http://www.w3.org/2000/svg" viewBox="0 0 48 48"><defs><style>.a-filter,.d-filter{fill:none;}.b-filter{fill:#40d5b9;}.b-filter,.c-filter,.d-filter,.e-filter{stroke:#303030;stroke-miterlimit:10;}.c-filter,.e-filter{fill:#fff;}.d-filter,.e-filter{stroke-linecap:round;}</style></defs><rect class="a-filter" width="48" height="48"/><polyline class="b-filter" points="7.94 13.29 24 31.63 40.06 13.29"/><path class="b-filter" d="M40.82,9v3.11c0,2.32-7.55,4.2-16.87,4.2S7.08,14.38,7.08,12.06V9" transform="translate(0.05 0.07)"/><ellipse class="c-filter" cx="24" cy="8.9" rx="16.87" ry="4.2"/><polyline class="b-filter" points="28.16 26.6 28.16 40.76 19.86 45.52 19.86 26.6"/><line class="d-filter" x1="15.88" y1="18.1" x2="21.32" y2="24.26"/><line class="d-filter" x1="22.34" y1="30.77" x2="22.34" y2="40.38"/><path class="e-filter" d="M16.19,7.61a66.22,66.22,0,0,1,7.93-.42C31,7.19,36.54,8,36.54,9" transform="translate(0.05 0.07)"/></svg>