<svg xmlns="http://www.w3.org/2000/svg" viewBox="0 0 48 48"><defs><style>.a-quality-indicator{fill:none;}.b-quality-indicator,.e-quality-indicator{fill:#fff;}.c-quality-indicator{fill:#303030;}.d-quality-indicator{fill:#40d5b9;}.d-quality-indicator,.e-quality-indicator{stroke:#303030;stroke-miterlimit:10;}</style></defs><rect class="a-quality-indicator" width="48" height="48"/><path class="b-quality-indicator" d="M42.11,22.82V24.3H1.81V22.82A19.75,19.75,0,0,1,21.54,3.09h.84A19.75,19.75,0,0,1,42.11,22.82Z" transform="translate(0.05 0.07)"/><path class="c-quality-indicator" d="M42.11,24.3V22.82A19.75,19.75,0,0,0,22.38,3.09h-.84A19.75,19.75,0,0,0,1.81,22.82V24.3Zm1.37-1.48v2.84H.45V22.82A21.11,21.11,0,0,1,21.54,1.73h.84A21.12,21.12,0,0,1,43.48,22.82Z" transform="translate(0.05 0.07)"/><path class="d-quality-indicator" d="M22.68,16.92c.89,4.45.23,5.87-.9,6.1s-2.29-.83-3.18-5.29,0-10.84,0-10.84S21.79,12.46,22.68,16.92Z" transform="translate(0.05 0.07)"/><rect class="c-quality-indicator" x="1.34" y="23.23" width="5.44" height="0.68" transform="matrix(1, -0.02, 0.02, 1, -0.36, 0.14)"/><path class="c-quality-indicator" d="M36.61,18.47c-.07-.34-.15-.68-.25-1l5.19-1.62A14.94,14.94,0,0,1,42,17.47Z" transform="translate(0.05 0.07)"/><path class="c-quality-indicator" d="M7.48,18.61l-5-2.15A16,16,0,0,1,3.23,15L8,17.66A9.4,9.4,0,0,0,7.48,18.61Z" transform="translate(0.05 0.07)"/><path class="c-quality-indicator" d="M34.13,13.71c-.25-.27-.52-.53-.79-.78l3.64-4c.4.37.79.75,1.15,1.14Z" transform="translate(0.05 0.07)"/><path class="c-quality-indicator" d="M10.63,13.29,6.51,9.74c.34-.4.7-.79,1.08-1.16l3.83,3.87C11.14,12.72,10.88,13,10.63,13.29Z" transform="translate(0.05 0.07)"/><path class="c-quality-indicator" d="M29.37,10.42c-.36-.15-.72-.29-1.1-.42l1.8-5.14c.49.17,1,.36,1.45.56Z" transform="translate(0.05 0.07)"/><path class="c-quality-indicator" d="M15.56,9.09,13.81,3.94c.48-.17,1-.32,1.48-.45L16.7,8.74C16.31,8.85,15.94,9,15.56,9.09Z" transform="translate(0.05 0.07)"/><path class="c-quality-indicator" d="M23.52,8.37c-.4,0-.8,0-1.2,0l0-5.44c.51,0,1,0,1.53.05Z" transform="translate(0.05 0.07)"/><rect class="c-quality-indicator" x="36.81" y="23.05" width="5.44" height="0.68" transform="translate(-0.36 0.77) rotate(-1.01)"/><polygon class="d-quality-indicator" points="24.45 42.63 28.69 42.03 30.29 46 35.63 36.74 29.8 33.37 24.45 42.63"/><polygon class="d-quality-indicator" points="46.27 42.63 42.04 42.03 40.44 46 35.09 36.74 40.93 33.37 46.27 42.63"/><path class="e-quality-indicator" d="M36.74,17.21h0a1.68,1.68,0,0,0,2.29.57h0a1.67,1.67,0,0,1,2.53,1.32h0a1.67,1.67,0,0,0,1.76,1.56h0A1.67,1.67,0,0,1,45,23h0a1.66,1.66,0,0,0,.84,2.2h0a1.67,1.67,0,0,1,.34,2.84h0a1.67,1.67,0,0,0-.28,2.34h0a1.67,1.67,0,0,1-1,2.67h0A1.68,1.68,0,0,0,43.5,35h0a1.67,1.67,0,0,1-2.14,1.89h0A1.68,1.68,0,0,0,39.27,38h0a1.66,1.66,0,0,1-2.77.68h0a1.67,1.67,0,0,0-2.36,0h0A1.66,1.66,0,0,1,31.36,38h0a1.68,1.68,0,0,0-2.09-1.1h0A1.67,1.67,0,0,1,27.12,35h0a1.67,1.67,0,0,0-1.33-1.94h0a1.67,1.67,0,0,1-1-2.67h0a1.67,1.67,0,0,0-.28-2.34h0a1.68,1.68,0,0,1,.35-2.84h0a1.67,1.67,0,0,0,.84-2.2h0a1.67,1.67,0,0,1,1.62-2.35h0a1.67,1.67,0,0,0,1.77-1.56h0a1.67,1.67,0,0,1,2.53-1.32h0a1.67,1.67,0,0,0,2.29-.57h0A1.68,1.68,0,0,1,36.74,17.21Z" transform="translate(0.05 0.07)"/><circle class="d-quality-indicator" cx="35.36" cy="27.87" r="5.84"/></svg>