<?xml version="1.0" encoding="utf-8"?>
<!-- Generator: Adobe Illustrator 24.3.0, SVG Export Plug-In . SVG Version: 6.00 Build 0)  -->
<svg version="1.1" id="Layer_1" xmlns="http://www.w3.org/2000/svg" xmlns:xlink="http://www.w3.org/1999/xlink" x="0px" y="0px"
	 viewBox="0 0 47.9 47.9" style="enable-background:new 0 0 47.9 47.9;" xml:space="preserve">
<style type="text/css">
	.st0{fill:none;}
	.st1{fill:#FF4D29;stroke:#303030;stroke-miterlimit:10;}
	.st2{fill:#FFFFFF;stroke:#303030;stroke-miterlimit:10;}
</style>
<rect class="st0" width="47.9" height="47.9"/>
<circle class="st1" cx="24" cy="24" r="21"/>
<path class="st2" d="M28.9,24l5.1-5.1c1.1-1.1,1.1-2.9,0-4c0,0,0,0,0,0l0,0L33.1,14c-1.1-1.1-2.9-1.1-4,0c0,0,0,0,0,0l0,0L24,19.1
	L18.9,14c-1.1-1.1-2.9-1.1-4,0c0,0,0,0,0,0l0,0L14,14.9c-1.1,1.1-1.1,2.9,0,4c0,0,0,0,0,0l0,0l5.1,5.1L14,29.1c-1.1,1.1-1.1,2.9,0,4
	c0,0,0,0,0,0l0,0l1,0.9c1.1,1.1,2.9,1.1,4,0c0,0,0,0,0,0l0,0l5-5.1l5.1,5.1c1.1,1.1,2.9,1.1,4,0c0,0,0,0,0,0l0,0l0.9-0.9
	c1.1-1.1,1.1-2.9,0-4c0,0,0,0,0,0l0,0L28.9,24z"/>
</svg>
