<svg xmlns="http://www.w3.org/2000/svg" viewBox="0 0 48 48"><defs><style>.a-plus{fill:none;}.b-plus{fill:#40d5b9;}.b-plus,.c-plus{stroke:#303030;stroke-miterlimit:10;}.c-plus{fill:#fff;}</style></defs><rect class="a-plus" width="48" height="48"/><circle class="b-plus" cx="24" cy="24" r="21.12"/><path class="c-plus" d="M35.34,22.71a4,4,0,0,0-.3-1,2.19,2.19,0,0,0-.73-.88,1.94,1.94,0,0,0-1-.31H27.52v-6.3a2.1,2.1,0,0,0-.29-1,2,2,0,0,0-.92-.8,4,4,0,0,0-1-.3,11.3,11.3,0,0,0-2.6,0,3.94,3.94,0,0,0-1.06.3,2.11,2.11,0,0,0-.92.77,2.05,2.05,0,0,0-.31,1.08v6.3H14.62a1.87,1.87,0,0,0-1.08.34,2.21,2.21,0,0,0-.68.84,3.87,3.87,0,0,0-.29,1,8.49,8.49,0,0,0-.08,1.22,6.46,6.46,0,0,0,.1,1.27,3.35,3.35,0,0,0,.33,1,2.12,2.12,0,0,0,.71.82,1.89,1.89,0,0,0,1.06.32h5.68v6.33a2,2,0,0,0,.36,1.13,2.3,2.3,0,0,0,.87.68,4,4,0,0,0,1,.28A8,8,0,0,0,24,35.9a9.19,9.19,0,0,0,1.3-.08,4,4,0,0,0,1-.29,2.09,2.09,0,0,0,.91-.74,1.94,1.94,0,0,0,.32-1.07V27.39h5.7a2,2,0,0,0,1-.3,2.2,2.2,0,0,0,.75-.84,3.46,3.46,0,0,0,.33-1.07,8.48,8.48,0,0,0,.08-1.24A8.75,8.75,0,0,0,35.34,22.71Z" transform="translate(0.05 0.07)"/></svg>