<svg xmlns="http://www.w3.org/2000/svg" viewBox="0 0 48 48"><defs><style>.a-questionnaire,.c-questionnaire,.e-questionnaire{fill:none;}.b-questionnaire{fill:#fff;}.b-questionnaire,.c-questionnaire,.e-questionnaire,.f-questionnaire,.g-questionnaire{stroke:#303030;}.b-questionnaire,.c-questionnaire,.e-questionnaire,.g-questionnaire{stroke-miterlimit:10;}.c-questionnaire{stroke-linecap:round;}.d-questionnaire,.f-questionnaire,.g-questionnaire{fill:#40d5b9;}.f-questionnaire{stroke-linejoin:bevel;}</style></defs><rect class="a-questionnaire" width="48" height="48"/><polygon class="b-questionnaire" points="39.03 42.33 4.75 42.33 4.75 8.58 11.45 1.51 39.03 1.51 39.03 42.33"/><line class="c-questionnaire" x1="18.03" y1="14.44" x2="33.34" y2="14.44"/><rect class="d-questionnaire" x="8.18" y="11.25" width="6.38" height="6.38"/><polyline class="c-questionnaire" points="8.11 14.89 11.32 18.54 15.12 11.25"/><line class="c-questionnaire" x1="18.03" y1="25.29" x2="33.34" y2="25.29"/><rect class="d-questionnaire" x="8.18" y="22.1" width="6.38" height="6.38"/><polyline class="c-questionnaire" points="8.11 25.74 11.32 29.39 15.12 22.1"/><line class="c-questionnaire" x1="18.03" y1="35.89" x2="33.34" y2="35.89"/><rect class="d-questionnaire" x="8.18" y="32.7" width="6.38" height="6.38"/><polyline class="e-questionnaire" points="11.62 1.64 11.62 8.68 4.75 8.68"/><polygon class="b-questionnaire" points="41.79 19.12 46.92 24.25 28.5 42.67 19.75 46.28 23.37 37.54 41.79 19.12"/><rect class="f-questionnaire" x="31.47" y="17.8" width="7.26" height="26.05" transform="translate(38.17 77.5) rotate(-135)"/><line class="c-questionnaire" x1="35.76" y1="29.17" x2="41.24" y2="23.69"/><line class="c-questionnaire" x1="32.08" y1="32.84" x2="34.09" y2="30.83"/><polygon class="g-questionnaire" points="23.41 44.77 19.75 46.28 21.27 42.62 23.41 44.77"/></svg>