<svg xmlns="http://www.w3.org/2000/svg" viewBox="0 0 48 48"><defs><style>.a-findings,.d-findings{fill:none;}.b-findings{fill:#40d5b9;}.b-findings,.c-findings,.d-findings{stroke:#303030;stroke-miterlimit:10;}.c-findings{fill:#fff;}.d-findings{stroke-linecap:round;}</style></defs><rect class="a-findings" width="48" height="48"/><rect class="b-findings" x="9.6" y="6.3" width="28.81" height="37.99" rx="2"/><rect class="c-findings" x="12.95" y="9.24" width="21.71" height="31.07"/><path class="b-findings" d="M26.9,4.44h-.5a2.45,2.45,0,1,0-4.9,0H21a3,3,0,0,0-3,3c0,1.66,1.36,2.41,3,2.41h5.9c1.67,0,3-.75,3-2.41A3,3,0,0,0,26.9,4.44Z" transform="translate(0.05 0.07)"/><line class="d-findings" x1="16.46" y1="18.76" x2="30.96" y2="18.76"/><line class="d-findings" x1="16.46" y1="15.88" x2="26.15" y2="15.88"/><line class="d-findings" x1="16.46" y1="26.88" x2="30.96" y2="26.88"/><line class="d-findings" x1="16.46" y1="24" x2="26.15" y2="24"/><line class="d-findings" x1="16.46" y1="35.01" x2="30.96" y2="35.01"/><line class="d-findings" x1="16.46" y1="32.13" x2="26.15" y2="32.13"/></svg>