<svg xmlns="http://www.w3.org/2000/svg" viewBox="0 0 48 48"><defs><style>.a-date,.d-date,.g-date{fill:none;}.b-date{fill:#fff;}.b-date,.c-date,.d-date,.f-date,.g-date{stroke:#303030;}.b-date,.c-date,.d-date,.g-date{stroke-miterlimit:10;}.c-date,.e-date,.f-date{fill:#40d5b9;}.f-date{stroke-linejoin:bevel;}.g-date{stroke-linecap:round;}</style></defs><rect class="a-date" width="48" height="48"/><rect class="b-date" x="4.46" y="16.25" width="35.21" height="21.22"/><path class="c-date" d="M6.46,9.79H37.66a2,2,0,0,1,2,2v5a0,0,0,0,1,0,0H4.46a0,0,0,0,1,0,0v-5A2,2,0,0,1,6.46,9.79Z"/><rect class="b-date" x="6.91" y="6.24" width="1.98" height="7.06" rx="0.7"/><rect class="b-date" x="13.75" y="6.24" width="1.98" height="7.06" rx="0.7"/><rect class="b-date" x="21.07" y="6.24" width="1.98" height="7.06" rx="0.7"/><rect class="b-date" x="28.45" y="6.24" width="1.98" height="7.06" rx="0.7"/><rect class="b-date" x="35.47" y="6.24" width="1.98" height="7.06" rx="0.7"/><path class="d-date" d="M32.9,30.07c.67,3.52-1.32,6.85-4.46,7.45" transform="translate(0.05 0.07)"/><path class="d-date" d="M32.67,30.53a6,6,0,0,0,7-4.89" transform="translate(0.05 0.07)"/><path class="d-date" d="M39.12,28.13a56.74,56.74,0,0,1-3.27,4.8,23.55,23.55,0,0,1-5.28,4" transform="translate(0.05 0.07)"/><rect class="e-date" x="7.9" y="19.79" width="4.86" height="3.25"/><rect class="e-date" x="7.9" y="25.24" width="4.86" height="3.25"/><rect class="e-date" x="7.9" y="30.69" width="4.86" height="3.25"/><rect class="e-date" x="15.03" y="19.79" width="4.86" height="3.25"/><rect class="e-date" x="15.03" y="25.24" width="4.86" height="3.25"/><rect class="e-date" x="15.03" y="30.69" width="4.86" height="3.25"/><rect class="e-date" x="22.15" y="19.79" width="4.86" height="3.25"/><rect class="e-date" x="22.15" y="25.24" width="4.86" height="3.25"/><rect class="e-date" x="22.15" y="30.69" width="4.86" height="3.25"/><rect class="e-date" x="29.27" y="19.79" width="4.86" height="3.25"/><rect class="e-date" x="29.27" y="25.24" width="4.86" height="3.25"/><rect class="e-date" x="29.27" y="30.69" width="4.86" height="3.25"/><polygon class="b-date" points="41.88 17.88 46.97 22.97 28.69 41.25 20.01 44.84 23.59 36.16 41.88 17.88"/><rect class="f-date" x="31.63" y="16.57" width="7.2" height="25.85" transform="translate(39.34 75.33) rotate(-135)"/><line class="g-date" x1="35.89" y1="27.86" x2="41.33" y2="22.42"/><line class="g-date" x1="32.24" y1="31.5" x2="34.24" y2="29.51"/><polygon class="c-date" points="23.64 43.34 20.01 44.84 21.51 41.21 23.64 43.34"/></svg>