<svg xmlns="http://www.w3.org/2000/svg" viewBox="0 0 48 48"><defs><style>.a{fill:none;}.b{fill:#40d5b9;}.c{fill:#303030;}.d{fill:#fff;}</style></defs><rect class="a" width="48" height="48"/><path class="b" d="M41.07,27.29H27.48L24,30.35l-3.53-3.06H6.84a3.5,3.5,0,0,0-3.5,3.5V37a3.5,3.5,0,0,0,3.5,3.5H41.07a3.5,3.5,0,0,0,3.5-3.5V30.79A3.5,3.5,0,0,0,41.07,27.29ZM28.34,37.65a1.82,1.82,0,1,1,1.81-1.82A1.81,1.81,0,0,1,28.34,37.65Zm5.76,0a1.82,1.82,0,1,1,1.81-1.82A1.81,1.81,0,0,1,34.1,37.65Zm5.75,0a1.82,1.82,0,1,1,1.81-1.82A1.81,1.81,0,0,1,39.85,37.65Z" transform="translate(0.05 0.07)"/><polygon class="b" points="23.71 26.86 24 27.11 24.29 26.86 24.87 26.36 31.68 20.46 28.19 20.46 28.19 8.33 19.81 8.33 19.81 20.46 16.32 20.46 23.13 26.36 23.71 26.86"/><path class="c" d="M41.07,26.29H28.64l-.58.5-.58.5H41.07a3.5,3.5,0,0,1,3.5,3.5V37a3.5,3.5,0,0,1-3.5,3.5H6.84A3.5,3.5,0,0,1,3.34,37V30.79a3.5,3.5,0,0,1,3.5-3.5H20.42l-.58-.5-.58-.5H6.84a4.5,4.5,0,0,0-4.5,4.5V37a4.5,4.5,0,0,0,4.5,4.5H41.07a4.51,4.51,0,0,0,4.5-4.5V30.79A4.51,4.51,0,0,0,41.07,26.29Z" transform="translate(0.05 0.07)"/><path class="c" d="M22.13,26.79l.58.5L24,28.36l1.24-1.07.58-.5.58-.5,8-6.9H29.14V7.26H18.76V19.39H13.59l8,6.9ZM19.76,8.26h8.38V20.39h3.49l-6.81,5.9-.58.5L24,27l-.29-.25-.58-.5-6.81-5.9h3.49Z" transform="translate(0.05 0.07)"/><path class="d" d="M28.34,37.65a1.82,1.82,0,1,0-1.81-1.82A1.81,1.81,0,0,0,28.34,37.65Z" transform="translate(0.05 0.07)"/><path class="d" d="M34.1,37.65a1.82,1.82,0,1,0-1.82-1.82A1.81,1.81,0,0,0,34.1,37.65Z" transform="translate(0.05 0.07)"/><path class="d" d="M39.85,37.65A1.82,1.82,0,1,0,38,35.83,1.81,1.81,0,0,0,39.85,37.65Z" transform="translate(0.05 0.07)"/></svg>