<svg xmlns="http://www.w3.org/2000/svg" viewBox="0 0 48 48"><defs><style>.a,.c{fill:none;}.b{fill:#303030;}.c{stroke:#40d5b9;stroke-linecap:round;stroke-miterlimit:10;}</style></defs><rect class="a" width="48" height="48"/><rect class="b" x="4.21" y="28.87" width="2.15" height="9.55"/><rect class="b" x="8.24" y="28.87" width="2.96" height="9.55"/><rect class="b" x="12.28" y="28.87" width="1.08" height="9.55"/><rect class="b" x="15.64" y="28.87" width="2.82" height="9.55"/><rect class="b" x="19.27" y="28.87" width="2.15" height="9.55"/><rect class="b" x="25.46" y="28.87" width="1.08" height="9.55"/><rect class="b" x="27.88" y="28.87" width="1.08" height="9.55"/><rect class="b" x="30.3" y="28.87" width="3.23" height="9.55"/><rect class="b" x="37.56" y="28.87" width="1.08" height="9.55"/><rect class="b" x="40.51" y="28.87" width="3.09" height="9.55"/><line class="c" x1="0.98" y1="27.84" x2="46.61" y2="27.84"/><rect class="b" x="4.21" y="9.01" width="2.15" height="17.78"/><rect class="b" x="8.24" y="9.01" width="2.96" height="17.78"/><rect class="b" x="12.28" y="9.01" width="1.08" height="17.78"/><rect class="b" x="15.64" y="9.01" width="2.82" height="17.78"/><rect class="b" x="19.27" y="9.01" width="2.15" height="17.78"/><rect class="b" x="25.46" y="9.01" width="1.08" height="17.78"/><rect class="b" x="27.88" y="9.01" width="1.08" height="17.78"/><rect class="b" x="30.3" y="9.01" width="3.23" height="17.78"/><rect class="b" x="37.56" y="9.01" width="1.08" height="17.78"/><rect class="b" x="40.51" y="9.01" width="3.09" height="17.78"/></svg>