<svg xmlns="http://www.w3.org/2000/svg" viewBox="0 0 48 48"><defs><style>.a,.e{fill:none;}.b,.d{fill:#40d5b9;}.b,.c,.d,.e{stroke:#303030;}.b,.c,.e{stroke-miterlimit:10;}.c{fill:#fff;}.d{stroke-linejoin:bevel;}.e{stroke-linecap:round;}</style></defs><rect class="a" width="48" height="48"/><path class="b" d="M9.94,5.57H39.7a0,0,0,0,1,0,0V41a0,0,0,0,1,0,0H9.94a2,2,0,0,1-2-2V7.57A2,2,0,0,1,9.94,5.57Z"/><rect class="c" x="4.55" y="9.26" width="6.79" height="3.11" rx="1.1"/><rect class="c" x="4.55" y="17.66" width="6.79" height="3.11" rx="1.1"/><rect class="c" x="4.55" y="26.06" width="6.79" height="3.11" rx="1.1"/><rect class="c" x="4.55" y="34.46" width="6.79" height="3.11" rx="1.1"/><rect class="c" x="14.8" y="5.57" width="24.9" height="35.47"/><rect class="b" x="17.46" y="11.8" width="19.31" height="5.07"/><polygon class="c" points="41.69 16.87 46.78 21.96 28.5 40.25 19.82 43.83 23.41 35.16 41.69 16.87"/><rect class="d" x="31.44" y="15.56" width="7.2" height="25.85" transform="translate(39.72 73.48) rotate(-135)"/><line class="e" x1="35.7" y1="26.85" x2="41.14" y2="21.41"/><line class="e" x1="32.05" y1="30.5" x2="34.05" y2="28.5"/><polygon class="b" points="23.45 42.33 19.82 43.83 21.32 40.2 23.45 42.33"/></svg>