<svg xmlns="http://www.w3.org/2000/svg" viewBox="0 0 48 48"><defs><style>.a,.d,.e{fill:none;}.b,.h{fill:#40d5b9;}.b,.c,.d,.e,.h{stroke:#303030;}.b,.c,.d,.h{stroke-miterlimit:10;}.c,.f{fill:#fff;}.d,.e{stroke-linecap:round;}.d,.e,.h{fill-rule:evenodd;}.e{stroke-linejoin:round;}.g{fill:#303030;}</style></defs><rect class="a" width="48" height="48"/><path class="b" d="M5,45.82H5C5.18,44.06,8.84,28,13.51,28c0,0,7.83-2,10.44-2s10.44,2,10.44,2c4.68,0,8.5,12.95,8.5,17.86H5Z" transform="translate(0.05 0.07)"/><circle class="c" cx="32.68" cy="37.26" r="2.84"/><path class="d" d="M15,31.92V30.77a7.83,7.83,0,0,1,7.54-8H25.1a7.83,7.83,0,0,1,7.54,8.05v3.16" transform="translate(0.05 0.07)"/><path class="e" d="M12.65,41.27l-1,0L12,35.5a3.25,3.25,0,0,1,3-3.4h0a3.24,3.24,0,0,1,3,3.4l.42,5.8H17.19" transform="translate(0.05 0.07)"/><path class="c" d="M28.44,27.49,24,42.81,19.46,27.49a8.47,8.47,0,0,0,1.73-1.27,10.35,10.35,0,0,0,.41-2.77h4.8s.12,2.36.65,2.77S28.44,27.49,28.44,27.49Z" transform="translate(0.05 0.07)"/><path class="f" d="M24,25.17c-5,0-8.91-6.33-8.91-11.78,0-6,4.48-8.7,8.91-8.7s8.91,2.69,8.91,8.7C32.86,18.84,29,25.17,24,25.17Z" transform="translate(0.05 0.07)"/><path class="g" d="M24,5.19c5.11,0,8.41,3.22,8.41,8.2,0,5.22-3.67,11.28-8.41,11.28s-8.41-6.06-8.41-11.28c0-5,3.3-8.2,8.41-8.2m0-1c-5.2,0-9.41,3.27-9.41,9.2S18.75,25.67,24,25.67s9.41-6.35,9.41-12.28S29.15,4.19,24,4.19Z" transform="translate(0.05 0.07)"/><path class="h" d="M32.77,11.38s-6.59-.45-8.79-.45-8.78.45-8.78.45l.58-8.75s6.15-.45,8.2-.45,8.21.45,8.21.45Z" transform="translate(0.05 0.07)"/><path class="f" d="M26.6,6.14a1.26,1.26,0,0,0-.07-.25.58.58,0,0,0-.18-.22.5.5,0,0,0-.26-.08H24.66V4a.48.48,0,0,0-.07-.26.57.57,0,0,0-.23-.2,1.26,1.26,0,0,0-.25-.07,3.53,3.53,0,0,0-.65,0,1.38,1.38,0,0,0-.26.07.56.56,0,0,0-.23.2.5.5,0,0,0-.08.26V5.59H21.47a.48.48,0,0,0-.27.09.51.51,0,0,0-.16.21.82.82,0,0,0-.08.25,2.69,2.69,0,0,0,0,.31,1.35,1.35,0,0,0,0,.31.88.88,0,0,0,.08.26.59.59,0,0,0,.18.2.45.45,0,0,0,.26.08h1.4V8.87a.49.49,0,0,0,.09.28.6.6,0,0,0,.22.16.88.88,0,0,0,.26.08l.32,0,.32,0a1.2,1.2,0,0,0,.26-.07.62.62,0,0,0,.23-.19.48.48,0,0,0,.07-.26V7.3h1.42a.43.43,0,0,0,.25-.07A.55.55,0,0,0,26.52,7a.86.86,0,0,0,.08-.27,2.36,2.36,0,0,0,0-.3A2.69,2.69,0,0,0,26.6,6.14Z" transform="translate(0.05 0.07)"/></svg>