<svg xmlns="http://www.w3.org/2000/svg" viewBox="0 0 48 48"><defs><style>.a{fill:none;}.b{fill:#40d5b9;}.b,.c{stroke:#303030;stroke-miterlimit:10;}.c{fill:#fff;}</style></defs><rect class="a" width="48" height="48"/><path class="b" d="M10.65,7H40.4a0,0,0,0,1,0,0V42.46a0,0,0,0,1,0,0H10.65a2,2,0,0,1-2-2V9A2,2,0,0,1,10.65,7Z"/><rect class="c" x="5.25" y="10.67" width="6.79" height="3.11" rx="1.1"/><rect class="c" x="5.25" y="19.07" width="6.79" height="3.11" rx="1.1"/><rect class="c" x="5.25" y="27.47" width="6.79" height="3.11" rx="1.1"/><rect class="c" x="5.25" y="35.87" width="6.79" height="3.11" rx="1.1"/><rect class="c" x="15.5" y="6.98" width="24.9" height="35.47"/><rect class="b" x="18.17" y="13.21" width="19.31" height="5.07"/></svg>