<svg xmlns="http://www.w3.org/2000/svg" viewBox="0 0 48 48"><defs><style>.a,.e,.f{fill:none;}.b{fill:#40d5b9;}.c{fill:#303030;}.d{fill:#fff;}.d,.e,.f{stroke:#303030;stroke-miterlimit:10;}.e{stroke-linecap:round;}</style></defs><rect class="a" width="48" height="48"/><path class="b" d="M27.06,43.33A4.69,4.69,0,0,1,26.3,34a4.11,4.11,0,0,1,.78-.07,4.69,4.69,0,0,1,.76,9.32A5.12,5.12,0,0,1,27.06,43.33Z" transform="translate(0.05 0.07)"/><path class="c" d="M27.08,34.45h0a4.19,4.19,0,0,1,.68,8.33,5.36,5.36,0,0,1-.7,0,4.19,4.19,0,0,1,0-8.38m0-1a6.23,6.23,0,0,0-.86.07,5.19,5.19,0,0,0,.84,10.31,4.91,4.91,0,0,0,.86-.07,5.19,5.19,0,0,0-.84-10.31Z" transform="translate(0.05 0.07)"/><path class="d" d="M42.24,35.5a47.29,47.29,0,0,1-5.59-7.67C35.16,25.1,34,17.69,33.48,14.38a10.76,10.76,0,1,0-21.22,3.54c.55,3.31,2.29,10.59,1.85,13.67a32.23,32.23,0,0,1-3.28,9.15Z" transform="translate(0.05 0.07)"/><rect class="b" x="13.99" y="23.89" width="21.87" height="4.8" transform="translate(-3.94 4.53) rotate(-9.47)"/><line class="e" x1="14.58" y1="30.53" x2="24.14" y2="28.93"/><line class="e" x1="14.14" y1="25.78" x2="29.2" y2="23.27"/><path class="f" d="M42.24,35.5a47.29,47.29,0,0,1-5.59-7.67C35.16,25.1,34,17.69,33.48,14.38a10.76,10.76,0,1,0-21.22,3.54c.55,3.31,2.29,10.59,1.85,13.67a32.23,32.23,0,0,1-3.28,9.15Z" transform="translate(0.05 0.07)"/><line class="e" x1="21.07" y1="5.13" x2="20.46" y2="1.5"/></svg>