<svg xmlns="http://www.w3.org/2000/svg" viewBox="0 0 48 48"><defs><style>.a,.d{fill:none;}.b{fill:#fff;}.b,.c,.d{stroke:#303030;stroke-miterlimit:10;}.c{fill:#40d5b9;}.d{stroke-linecap:round;}.e{fill:#303030;}</style></defs><rect class="a" width="48" height="48"/><path class="b" d="M42.07,41.37H5.84V5.47h0A3.08,3.08,0,0,1,8.92,2.39H42.07Z" transform="translate(0.05 0.07)"/><rect class="c" x="9.98" y="2.46" width="32.14" height="35.9"/><path class="b" d="M8,38.36H42.11a0,0,0,0,1,0,0v6.16a0,0,0,0,1,0,0H8a2.12,2.12,0,0,1-2.12-2.12V40.48A2.12,2.12,0,0,1,8,38.36Z"/><line class="d" x1="8.94" y1="41.44" x2="42.11" y2="41.44"/><polygon class="c" points="18.68 46.1 15.68 43.14 12.68 46.1 12.68 38.37 18.68 38.37 18.68 46.1"/><rect class="b" x="13.81" y="9.6" width="24.91" height="16.29"/><path class="e" d="M24,21.24c.05.16.08.28.1.37a.27.27,0,0,1-.05.21.49.49,0,0,1-.26.09h-1a1.06,1.06,0,0,1-.29,0c-.06,0-.11,0-.13-.08a.37.37,0,0,1-.07-.14l-.57-1.71h-3.2l-.54,1.67a.52.52,0,0,1-.06.15.3.3,0,0,1-.14.1,1.46,1.46,0,0,1-.27.05H17a3,3,0,0,1-.47,0,.34.34,0,0,1-.24-.09.25.25,0,0,1,0-.22,1.86,1.86,0,0,1,.09-.36L19,13.68a.38.38,0,0,1,.09-.18.32.32,0,0,1,.17-.11,1.17,1.17,0,0,1,.31,0H20.7a1.56,1.56,0,0,1,.36,0,.31.31,0,0,1,.18.11.75.75,0,0,1,.1.2ZM20.06,15h0l-1.21,3.62h2.42Z" transform="translate(0.05 0.07)"/><path class="e" d="M27.8,18.58a1.34,1.34,0,0,1-.07.53.25.25,0,0,1-.23.15H24.76a.24.24,0,0,1-.23-.15,1.37,1.37,0,0,1-.07-.53,1.28,1.28,0,0,1,.07-.52.24.24,0,0,1,.23-.15H27.5a.25.25,0,0,1,.13,0,.27.27,0,0,1,.1.11.54.54,0,0,1,.05.21A1.52,1.52,0,0,1,27.8,18.58Z" transform="translate(0.05 0.07)"/><path class="e" d="M34.34,21.2a3,3,0,0,1,0,.32c0,.09,0,.16,0,.22s-.05.09-.09.11a.17.17,0,0,1-.1,0h-5a.51.51,0,0,1-.4-.15.6.6,0,0,1-.15-.44V21a1.79,1.79,0,0,1,0-.24,1,1,0,0,1,.06-.22,1.22,1.22,0,0,1,.11-.24L28.9,20l3.3-5.23H28.93a.21.21,0,0,1-.14,0,.2.2,0,0,1-.09-.11.54.54,0,0,1-.05-.21,1.52,1.52,0,0,1,0-.32,1.62,1.62,0,0,1,0-.33.65.65,0,0,1,.05-.22.2.2,0,0,1,.09-.11.29.29,0,0,1,.14,0h4.7a.51.51,0,0,1,.39.13.56.56,0,0,1,.13.39v.32a1.47,1.47,0,0,1,0,.31,1.84,1.84,0,0,1-.05.25A1.87,1.87,0,0,1,34,15l-.18.31L30.53,20.5h3.56c.08,0,.14.05.19.15A1.76,1.76,0,0,1,34.34,21.2Z" transform="translate(0.05 0.07)"/></svg>