<svg xmlns="http://www.w3.org/2000/svg" viewBox="0 0 48 48"><defs><style>.a{fill:none;}.b{fill:#40d5b9;}.c{fill:#303030;}.d{fill:#fff;}</style></defs><rect class="a" width="48" height="48"/><path class="b" d="M24.11,41.69c-5.2-1.16-12.49-6.9-17.74-13.94-.27-.37-.54-.74-.79-1.1C2,21.53.44,17,1.17,13.8a5.39,5.39,0,0,1,2.76-3.58A11.67,11.67,0,0,1,9.66,8.67c7.8,0,13.87,8.28,13.93,8.37l.41.55.4-.55c.06-.08,6.15-8.29,13.93-8.29a11.61,11.61,0,0,1,5.74,1.56,5.31,5.31,0,0,1,2.74,3.52c.73,3-.69,7.43-4,12.36l-.2.3-.56.79c-5.11,7.08-12.56,13.09-17.85,14.43Z" transform="translate(0.05 0.07)"/><path class="c" d="M9.66,9.17c7.53,0,13.47,8.08,13.53,8.16L24,18.44l.81-1.11c.06-.08,6-8.08,13.52-8.08a11.23,11.23,0,0,1,5.5,1.49A4.84,4.84,0,0,1,46.33,14c.69,2.9-.71,7.14-3.93,12l-.23.32c-.17.25-.35.51-.54.77-5,6.94-12.27,12.83-17.45,14.2-5-1.14-12.32-6.91-17.41-13.75q-.4-.54-.78-1.08C2.55,21.43,1,16.9,1.66,13.92a4.81,4.81,0,0,1,2.51-3.26A11.17,11.17,0,0,1,9.66,9.17m0-1a12.13,12.13,0,0,0-6,1.61C-1.68,12.78.35,20,5.17,26.93c.26.37.52.75.8,1.11,5,6.73,12.47,12.89,18,14.14v.08C29.72,41,37.43,34.52,42.44,27.58c.27-.37.52-.75.78-1.11,4.53-6.74,6.31-13.69,1.1-16.6a12.21,12.21,0,0,0-6-1.62C30.19,8.25,24,16.74,24,16.74S17.81,8.17,9.66,8.17Z" transform="translate(0.05 0.07)"/><path class="d" d="M43.22,26.47c-.26.36-.51.74-.78,1.11H39.69l-3.16,4.16L34.39,19.4l-3.31,8.39H23.21l-4.05,6.76L16.05,21,12,28H6c-.28-.36-.54-.74-.8-1.11H11.4l5.1-9,3.13,13.71,3-4.94h7.74l4.48-11.37L37.19,29l1.94-2.56Z" transform="translate(0.05 0.07)"/></svg>