<svg xmlns="http://www.w3.org/2000/svg" viewBox="0 0 47.93 47.93"><defs><style>.a{fill:none;}.b{fill:#f5ab2b;}.b,.c{stroke:#303030;stroke-miterlimit:10;}.c{fill:#fff;}</style></defs><rect class="a" width="47.93" height="47.93"/><circle class="b" cx="24" cy="24" r="21"/><path class="c" d="M35.32,22.78a4.09,4.09,0,0,0-.29-1,2.12,2.12,0,0,0-.73-.87,1.85,1.85,0,0,0-1-.31H14.72a1.86,1.86,0,0,0-1.07.34,2,2,0,0,0-.67.84,3.79,3.79,0,0,0-.3,1A8.33,8.33,0,0,0,12.6,24a6.63,6.63,0,0,0,.1,1.26,3.36,3.36,0,0,0,.33,1,2.14,2.14,0,0,0,.7.82,1.91,1.91,0,0,0,1.06.32H33.21a1.91,1.91,0,0,0,1-.3,2.14,2.14,0,0,0,.75-.83,3.67,3.67,0,0,0,.32-1.07A7.2,7.2,0,0,0,35.4,24,7.26,7.26,0,0,0,35.32,22.78Z"/></svg>