<svg xmlns="http://www.w3.org/2000/svg" viewBox="0 0 48 48"><defs><style>.a,.d{fill:none;}.b{fill:#40d5b9;}.b,.c,.d{stroke:#303030;stroke-miterlimit:10;}.c{fill:#fff;}.d{stroke-linecap:round;}.e{font-size:11.39px;fill:#303030;font-family:Calibri-Bold, Calibri;font-weight:700;}.f{letter-spacing:0em;}.g{letter-spacing:0em;}</style></defs><rect class="a" width="48" height="48"/><path class="b" d="M46.07,11.17V38.76a2.53,2.53,0,0,1-2.58,2.47H7.8V11.17Z" transform="translate(0.05 0.07)"/><path class="c" d="M3.84,7.41H36.91a3,3,0,0,1,3,3V41.23a0,0,0,0,1,0,0H3.84a0,0,0,0,1,0,0V7.41A0,0,0,0,1,3.84,7.41Z" transform="translate(43.8 48.7) rotate(-180)"/><path class="b" d="M39.91,16V38.76a2.48,2.48,0,0,0,2.47,2.47" transform="translate(0.05 0.07)"/><line class="d" x1="43.11" y1="15.17" x2="43.11" y2="36.85"/><text class="e" transform="translate(7.02 18.64)">NE<tspan class="f" x="13.06" y="0">W</tspan><tspan class="g" x="23.32" y="0">S</tspan></text><rect class="b" x="7.85" y="22.42" width="13.04" height="8.61"/><line class="d" x1="24.04" y1="23.02" x2="35.5" y2="23.02"/><line class="d" x1="24.04" y1="26.7" x2="35.5" y2="26.7"/><line class="d" x1="24.04" y1="30.38" x2="35.5" y2="30.38"/><line class="d" x1="7.85" y1="34.06" x2="35.5" y2="34.06"/><line class="d" x1="7.85" y1="37.74" x2="35.5" y2="37.74"/><path class="d" d="M35.45,39.09" transform="translate(0.05 0.07)"/><path class="d" d="M7.8,39.09" transform="translate(0.05 0.07)"/></svg>