<svg xmlns="http://www.w3.org/2000/svg" viewBox="0 0 48 48"><defs><style>.a,.d{fill:none;}.b{fill:#40d5b9;}.c{fill:#fff;}.d{stroke:#303030;stroke-miterlimit:10;}</style></defs><rect class="a" width="48" height="48"/><path class="b" d="M13.19,43.06a2.6,2.6,0,0,1-2.46-3.45L16.5,22l14.67-.11,6,17.69a2.61,2.61,0,0,1-2.47,3.44Z" transform="translate(0.05 0.07)"/><path class="c" d="M30.81,22.43,36.7,39.78a2.1,2.1,0,0,1-2,2.78H13.19a2.07,2.07,0,0,1-1.71-.88,2.1,2.1,0,0,1-.28-1.91l5.66-17.23,14-.11m.71-1H30.8l-13.95.11h-.72l-.22.68L10.25,39.46a3.11,3.11,0,0,0,2.94,4.1H34.71a3.11,3.11,0,0,0,2.94-4.1L31.76,22.11l-.24-.69Z" transform="translate(0.05 0.07)"/><path class="d" d="M37.65,39.46l-8-23.61V6.65h.28a1.44,1.44,0,1,0,0-2.88H17.8a1.44,1.44,0,1,0,0,2.88H18v9.2h0L10.25,39.46a3.1,3.1,0,0,0,2.94,4.1H34.71A3.1,3.1,0,0,0,37.65,39.46Z" transform="translate(0.05 0.07)"/><circle class="c" cx="26.96" cy="29.12" r="1.66"/><circle class="b" cx="25.66" cy="19" r="1.66"/><circle class="b" cx="26.47" cy="8.59" r="2.1"/><circle class="b" cx="21.72" cy="12.61" r="1.14"/><circle class="c" cx="22.24" cy="34.75" r="1.66"/><circle class="c" cx="26.47" cy="38.9" r="1.17"/></svg>