<svg xmlns="http://www.w3.org/2000/svg" viewBox="0 0 48 48"><defs><style>.a,.d{fill:none;}.b{fill:#fff;}.b,.c,.d,.e{stroke:#303030;}.b,.c,.d{stroke-miterlimit:10;}.c,.e{fill:#40d5b9;}.d{stroke-linecap:round;}.e{stroke-linejoin:bevel;}</style></defs><rect class="a" width="48" height="48"/><rect class="b" x="6.16" y="9.64" width="32.92" height="28.66" transform="translate(-2.3 2.52) rotate(-5.9)"/><rect class="c" x="18.16" y="4.86" width="4.45" height="8" transform="translate(-0.75 2.21) rotate(-5.9)"/><line class="d" x1="12.15" y1="20.03" x2="32.71" y2="18.04"/><line class="d" x1="12.53" y1="26.27" x2="32.92" y2="22.92"/><line class="d" x1="12.97" y1="30.69" x2="33.52" y2="28.57"/><polygon class="b" points="41.88 17.88 46.97 22.97 28.69 41.25 20.01 44.84 23.59 36.16 41.88 17.88"/><rect class="e" x="31.63" y="16.57" width="7.2" height="25.85" transform="translate(39.34 75.33) rotate(-135)"/><line class="d" x1="35.89" y1="27.86" x2="41.33" y2="22.42"/><line class="d" x1="32.24" y1="31.5" x2="34.24" y2="29.51"/><polygon class="c" points="23.64 43.34 20.01 44.84 21.51 41.21 23.64 43.34"/></svg>