<svg xmlns="http://www.w3.org/2000/svg" viewBox="0 0 48 48"><defs><style>.a,.d{fill:none;}.b{fill:#fff;}.b,.c,.d{stroke:#303030;stroke-miterlimit:10;}.c{fill:#40d5b9;}</style></defs><rect class="a" width="48" height="48"/><rect class="b" x="2.88" y="16.7" width="42.16" height="25.4"/><path class="c" d="M4.88,9H43a2,2,0,0,1,2,2v6.35a0,0,0,0,1,0,0H2.88a0,0,0,0,1,0,0V11A2,2,0,0,1,4.88,9Z"/><path class="c" d="M22.39,36a5.85,5.85,0,0,1,0,.64,2,2,0,0,1-.1.43.5.5,0,0,1-.17.24.37.37,0,0,1-.23.07H12.24a2.31,2.31,0,0,1-.49-.05.69.69,0,0,1-.34-.2,1,1,0,0,1-.18-.43,3.73,3.73,0,0,1-.06-.74,5.07,5.07,0,0,1,0-.73,1.71,1.71,0,0,1,.14-.54,2.48,2.48,0,0,1,.27-.47,3.37,3.37,0,0,1,.42-.5l2.89-3.1a15.08,15.08,0,0,0,1.4-1.65,9.77,9.77,0,0,0,.83-1.36,5,5,0,0,0,.4-1.13,4.27,4.27,0,0,0,.11-1,2.45,2.45,0,0,0-.13-.81,2,2,0,0,0-.4-.66,1.88,1.88,0,0,0-.67-.45,2.47,2.47,0,0,0-.94-.16,4.27,4.27,0,0,0-1.35.19,6.38,6.38,0,0,0-1,.44,7.24,7.24,0,0,0-.74.44,1,1,0,0,1-.47.2.3.3,0,0,1-.2-.08.57.57,0,0,1-.13-.26,2.27,2.27,0,0,1-.09-.49c0-.2,0-.45,0-.74s0-.36,0-.5a1.7,1.7,0,0,1,.06-.35.93.93,0,0,1,.1-.25,1,1,0,0,1,.23-.27,3.27,3.27,0,0,1,.59-.39,7.38,7.38,0,0,1,1.07-.47,10,10,0,0,1,1.39-.38,8.25,8.25,0,0,1,1.59-.15,7.45,7.45,0,0,1,2.29.32,4.55,4.55,0,0,1,1.62.92,3.66,3.66,0,0,1,1,1.4,4.76,4.76,0,0,1,.32,1.74,7.82,7.82,0,0,1-.16,1.6,6.2,6.2,0,0,1-.64,1.7,13.42,13.42,0,0,1-1.39,2,32.3,32.3,0,0,1-2.36,2.56l-2,2h6.59a.42.42,0,0,1,.24.07,1,1,0,0,1,.19.24,1.41,1.41,0,0,1,.11.43A3.92,3.92,0,0,1,22.39,36Z" transform="translate(0.05 0.07)"/><path class="c" d="M35.66,31.92a5.89,5.89,0,0,1-.48,2.43,4.86,4.86,0,0,1-1.33,1.79,5.89,5.89,0,0,1-2.07,1.12,8.67,8.67,0,0,1-2.68.39,9.8,9.8,0,0,1-1.47-.1,11.36,11.36,0,0,1-1.26-.24,7.46,7.46,0,0,1-.91-.3,1.59,1.59,0,0,1-.46-.25.56.56,0,0,1-.17-.21,1.58,1.58,0,0,1-.08-.28,3.27,3.27,0,0,1-.05-.41c0-.16,0-.35,0-.58a5.28,5.28,0,0,1,0-.61,1.74,1.74,0,0,1,.08-.41.56.56,0,0,1,.14-.22.28.28,0,0,1,.18-.06.92.92,0,0,1,.39.15c.18.09.41.2.7.32a5.43,5.43,0,0,0,1.05.33,6.46,6.46,0,0,0,1.49.15,5.81,5.81,0,0,0,1.37-.15,2.88,2.88,0,0,0,1-.5,2.23,2.23,0,0,0,.65-.86,2.92,2.92,0,0,0,.24-1.24,3.23,3.23,0,0,0-.19-1.11,2.13,2.13,0,0,0-.61-.82,2.85,2.85,0,0,0-1.08-.5,6.65,6.65,0,0,0-1.6-.17,11.19,11.19,0,0,0-1.36.08,9.7,9.7,0,0,1-1.16.08.7.7,0,0,1-.54-.19,1.16,1.16,0,0,1-.16-.69V21.59a1.13,1.13,0,0,1,.2-.74.83.83,0,0,1,.64-.23h7.93a.37.37,0,0,1,.22.08.64.64,0,0,1,.17.25,1.51,1.51,0,0,1,.1.44,4.38,4.38,0,0,1,0,.67,3.34,3.34,0,0,1-.14,1.12c-.09.23-.22.35-.39.35H28.17v3.58q.45,0,.9-.06H30a8.44,8.44,0,0,1,2.41.31,4.82,4.82,0,0,1,1.77.93,3.93,3.93,0,0,1,1.09,1.53A5.52,5.52,0,0,1,35.66,31.92Z" transform="translate(0.05 0.07)"/><rect class="b" x="5.82" y="4.71" width="2.38" height="8.46" rx="0.84"/><rect class="b" x="14.02" y="4.71" width="2.38" height="8.46" rx="0.84"/><rect class="b" x="22.78" y="4.71" width="2.38" height="8.46" rx="0.84"/><rect class="b" x="31.61" y="4.71" width="2.38" height="8.46" rx="0.84"/><rect class="b" x="40.02" y="4.71" width="2.38" height="8.46" rx="0.84"/><path class="d" d="M37,33.26c.81,4.22-1.5,8.79-5.16,8.79" transform="translate(0.05 0.07)"/><path class="d" d="M37.35,33.65c4,.69,7.67-1.9,7.67-5.69" transform="translate(0.05 0.07)"/><path class="d" d="M44.4,30.94a65.49,65.49,0,0,1-3.92,5.75c-1.88,2.27-6.32,4.73-6.32,4.73" transform="translate(0.05 0.07)"/></svg>