<svg xmlns="http://www.w3.org/2000/svg" viewBox="0 0 48 48"><defs><style>.a,.c,.d{fill:none;}.b,.f{fill:#fff;}.b,.c,.d,.e{stroke:#303030;stroke-miterlimit:10;}.c{stroke-linecap:round;}.e{fill:#40d5b9;}.g{fill:#303030;}</style></defs><rect class="a" width="48" height="48"/><polygon class="b" points="41.14 44.23 6.86 44.23 6.86 10.48 13.56 3.41 41.14 3.41 41.14 44.23"/><line class="c" x1="11.33" y1="25.29" x2="21.1" y2="25.29"/><line class="c" x1="11.33" y1="29.9" x2="35.45" y2="29.9"/><line class="c" x1="11.33" y1="34.5" x2="35.45" y2="34.5"/><line class="c" x1="11.33" y1="39.1" x2="35.45" y2="39.1"/><polyline class="d" points="13.73 3.54 13.73 10.58 6.86 10.58"/><path class="e" d="M30.46,13.13a2.1,2.1,0,0,0-.17-.58,1.15,1.15,0,0,0-.42-.5,1,1,0,0,0-.58-.18H26V8.26a1.31,1.31,0,0,0-.16-.6,1.26,1.26,0,0,0-.53-.46A2.27,2.27,0,0,0,24.7,7a6.19,6.19,0,0,0-1.49,0,2.35,2.35,0,0,0-.61.16,1.27,1.27,0,0,0-.52.45,1.11,1.11,0,0,0-.18.61v3.61H18.62a1,1,0,0,0-.62.2,1.12,1.12,0,0,0-.39.48,2.07,2.07,0,0,0-.17.59,4.68,4.68,0,0,0,0,1.43,2,2,0,0,0,.19.59,1.26,1.26,0,0,0,.41.47,1.09,1.09,0,0,0,.6.19H21.9v3.61a1.1,1.1,0,0,0,.21.65,1.32,1.32,0,0,0,.5.39,2.19,2.19,0,0,0,.59.16,5.11,5.11,0,0,0,.75.05,4.86,4.86,0,0,0,.74-.05,2.07,2.07,0,0,0,.6-.16,1.16,1.16,0,0,0,.52-.43,1.09,1.09,0,0,0,.18-.61V15.82h3.26a1.08,1.08,0,0,0,.6-.18,1.24,1.24,0,0,0,.42-.48,1.83,1.83,0,0,0,.19-.61,4.63,4.63,0,0,0,.05-.71A4.93,4.93,0,0,0,30.46,13.13Z" transform="translate(0.05 0.07)"/><circle class="f" cx="36.46" cy="36.89" r="11.1"/><path class="g" d="M43.33,34.37a11.65,11.65,0,0,1-.09,1.42A9.25,9.25,0,0,1,43,37.18a7.35,7.35,0,0,1-.5,1.29,4.34,4.34,0,0,1-.78,1.06,3.24,3.24,0,0,1-1.06.71,3.33,3.33,0,0,1-1.38.26,3.07,3.07,0,0,1-.77-.09,2.27,2.27,0,0,1-.63-.28,1.51,1.51,0,0,1-.46-.48,1.76,1.76,0,0,1-.26-.66,8.11,8.11,0,0,1-.79.7,4.77,4.77,0,0,1-.74.47,3.14,3.14,0,0,1-.72.26,2.68,2.68,0,0,1-.68.08,3.5,3.5,0,0,1-.77-.08,2.18,2.18,0,0,1-.6-.26,1.72,1.72,0,0,1-.44-.41,2.22,2.22,0,0,1-.3-.55,3.11,3.11,0,0,1-.18-.67,6.3,6.3,0,0,1,0-.79,9.92,9.92,0,0,1,.07-1,8.88,8.88,0,0,1,.24-1.16,7.19,7.19,0,0,1,.44-1.17,4.6,4.6,0,0,1,.71-1,3.35,3.35,0,0,1,1-.73,3.13,3.13,0,0,1,1.35-.27,2.56,2.56,0,0,1,.62.07,2.23,2.23,0,0,1,.58.24,2.75,2.75,0,0,1,.52.41,6,6,0,0,1,.52.57l.17-.89a.37.37,0,0,1,.18-.21,1.34,1.34,0,0,1,.53-.07,1.37,1.37,0,0,1,.31,0,.72.72,0,0,1,.2,0,.3.3,0,0,1,.1.09.16.16,0,0,1,0,.12l-.9,4.67a2,2,0,0,0,.08,1.3,1,1,0,0,0,.92.42,1.37,1.37,0,0,0,.75-.21,1.84,1.84,0,0,0,.59-.56,3.6,3.6,0,0,0,.43-.83,7.15,7.15,0,0,0,.28-1,7.45,7.45,0,0,0,.16-1.07,9.56,9.56,0,0,0,0-1,5.78,5.78,0,0,0-.23-1.68,3.37,3.37,0,0,0-.82-1.4,4,4,0,0,0-1.55-1,7,7,0,0,0-2.43-.36,7.7,7.7,0,0,0-2.13.27A6,6,0,0,0,33,31a5.63,5.63,0,0,0-1.22,1,7,7,0,0,0-.86,1.25,8.3,8.3,0,0,0-.56,1.36A10.76,10.76,0,0,0,30,36a9.42,9.42,0,0,0-.15,1.22c0,.37,0,.7,0,1a7.79,7.79,0,0,0,.26,2.06,3.72,3.72,0,0,0,.9,1.61,4.3,4.3,0,0,0,1.71,1.06,8.4,8.4,0,0,0,2.71.37,10.73,10.73,0,0,0,1.34-.08c.4-.06.75-.12,1-.19a6.23,6.23,0,0,0,.72-.18,1.51,1.51,0,0,1,.37-.09.21.21,0,0,1,.11,0,.23.23,0,0,1,.07.11.9.9,0,0,1,0,.19c0,.08,0,.18,0,.29a1.63,1.63,0,0,1,0,.24.78.78,0,0,1,0,.16,1,1,0,0,1-.06.14.26.26,0,0,1-.1.11,1.15,1.15,0,0,1-.35.16c-.19.06-.45.13-.78.2s-.71.12-1.15.17a12.92,12.92,0,0,1-1.45.07A10.33,10.33,0,0,1,32,44.2a5.46,5.46,0,0,1-2.14-1.28,4.84,4.84,0,0,1-1.19-2,8.53,8.53,0,0,1-.37-2.61c0-.35,0-.76.06-1.21a11.67,11.67,0,0,1,.21-1.46A11.16,11.16,0,0,1,29,34.05a9.31,9.31,0,0,1,.74-1.57A7.93,7.93,0,0,1,30.79,31a7.32,7.32,0,0,1,1.52-1.2,7.89,7.89,0,0,1,2-.8,10.08,10.08,0,0,1,2.57-.3,9.42,9.42,0,0,1,2.87.4,5.45,5.45,0,0,1,2,1.14A4.43,4.43,0,0,1,42.94,32,6.66,6.66,0,0,1,43.33,34.37ZM37.44,35a3.81,3.81,0,0,0-.79-1,1.39,1.39,0,0,0-.92-.35,1.44,1.44,0,0,0-.77.21,2.2,2.2,0,0,0-.6.54,3.41,3.41,0,0,0-.43.75,5,5,0,0,0-.29.85,5.38,5.38,0,0,0-.16.84,6.79,6.79,0,0,0,0,.73,2.19,2.19,0,0,0,.26,1.16,1,1,0,0,0,.91.4,1.74,1.74,0,0,0,.5-.08,2.72,2.72,0,0,0,.54-.27,4.39,4.39,0,0,0,.6-.46c.21-.2.45-.42.71-.69Z" transform="translate(0.05 0.07)"/></svg>