<svg xmlns="http://www.w3.org/2000/svg" viewBox="0 0 48 48"><defs><style>.a,.e{fill:none;}.b,.c{fill:#40d5b9;}.b,.e{stroke:#303030;}.b,.c,.e{stroke-miterlimit:10;}.c{stroke:#fff;}.d{fill:#fff;}.e{stroke-linecap:round;}</style></defs><rect class="a" width="48" height="48"/><polygon class="b" points="7.38 41.31 13.83 40.4 16.27 46.44 24.41 32.34 15.53 27.21 7.38 41.31"/><polygon class="b" points="40.62 41.31 34.17 40.4 31.73 46.44 23.59 32.34 32.48 27.21 40.62 41.31"/><path class="b" d="M26.13,2.63h0a2.56,2.56,0,0,0,3.49.86h0a2.55,2.55,0,0,1,3.86,2h0A2.54,2.54,0,0,0,36.16,7.9h0a2.54,2.54,0,0,1,2.47,3.58h0a2.55,2.55,0,0,0,1.27,3.36h0a2.55,2.55,0,0,1,.53,4.32h0A2.54,2.54,0,0,0,40,22.74h0a2.54,2.54,0,0,1-1.54,4.06h0a2.53,2.53,0,0,0-2,2.95h0a2.54,2.54,0,0,1-3.25,2.88h0A2.55,2.55,0,0,0,30,34.33h0a2.55,2.55,0,0,1-4.23,1h0a2.56,2.56,0,0,0-3.59,0h0a2.54,2.54,0,0,1-4.22-1h0a2.55,2.55,0,0,0-3.18-1.67h0a2.54,2.54,0,0,1-3.26-2.88h0a2.53,2.53,0,0,0-2-2.95h0a2.54,2.54,0,0,1-1.54-4.06h0a2.54,2.54,0,0,0-.44-3.56h0A2.55,2.55,0,0,1,8,14.85H8a2.55,2.55,0,0,0,1.27-3.36h0A2.54,2.54,0,0,1,11.73,7.9h0a2.55,2.55,0,0,0,2.69-2.38h0a2.55,2.55,0,0,1,3.85-2h0a2.55,2.55,0,0,0,3.48-.86h0A2.55,2.55,0,0,1,26.13,2.63Z" transform="translate(0.05 0.07)"/><circle class="c" cx="24" cy="18.94" r="12.75"/><circle class="d" cx="24" cy="18.94" r="10.65"/><polyline class="e" points="17.25 20.7 23.12 25.69 30.75 12.48"/></svg>