<svg xmlns="http://www.w3.org/2000/svg" viewBox="0 0 48 48"><defs><style>.a,.d,.e{fill:none;}.b{fill:#fff;}.c{fill:#40d5b9;}.d,.e{stroke:#303030;stroke-miterlimit:10;}.e{stroke-linecap:round;}</style></defs><rect class="a" width="48" height="48"/><path class="b" d="M44,3.13V18.31a1.8,1.8,0,0,1-1.75,1.85H36.42l-5,5.42-5-5.42H21.56a1.8,1.8,0,0,1-1.75-1.85V3.13a1.79,1.79,0,0,1,1.75-1.84H42.25A1.79,1.79,0,0,1,44,3.13Zm-6.06,7.71a4.11,4.11,0,0,0,0-.65,2,2,0,0,0-.16-.54,1.18,1.18,0,0,0-.38-.47A1.06,1.06,0,0,0,36.82,9h-3V5.7a1.08,1.08,0,0,0-.15-.55,1.1,1.1,0,0,0-.48-.42,2.07,2.07,0,0,0-.56-.15,5.63,5.63,0,0,0-1.36,0,2.22,2.22,0,0,0-.56.16,1.08,1.08,0,0,0-.65,1V9H27a1,1,0,0,0-.57.18,1.22,1.22,0,0,0-.36.44,1.9,1.9,0,0,0-.15.55,4,4,0,0,0-.05.65,4.17,4.17,0,0,0,.05.67,1.9,1.9,0,0,0,.18.54,1.13,1.13,0,0,0,.37.43,1,1,0,0,0,.56.17h3V16a1,1,0,0,0,.19.6,1.09,1.09,0,0,0,.46.35,2.26,2.26,0,0,0,.55.16,5.89,5.89,0,0,0,1.37,0,2.86,2.86,0,0,0,.55-.15,1.24,1.24,0,0,0,.48-.39,1,1,0,0,0,.16-.57V12.65h3a1,1,0,0,0,.55-.16,1.14,1.14,0,0,0,.4-.44,2.19,2.19,0,0,0,.17-.56A4,4,0,0,0,37.94,10.84Z" transform="translate(0.05 0.07)"/><path class="c" d="M30.67,4.73a2.22,2.22,0,0,1,.56-.16,5.63,5.63,0,0,1,1.36,0,2.07,2.07,0,0,1,.56.15,1.1,1.1,0,0,1,.48.42,1.08,1.08,0,0,1,.15.55V9h3a1.06,1.06,0,0,1,.54.16,1.18,1.18,0,0,1,.38.47,2,2,0,0,1,.16.54,4.11,4.11,0,0,1,0,.65,4,4,0,0,1,0,.65,2.19,2.19,0,0,1-.17.56,1.14,1.14,0,0,1-.4.44,1,1,0,0,1-.55.16h-3V16a1,1,0,0,1-.16.57,1.24,1.24,0,0,1-.48.39,2.86,2.86,0,0,1-.55.15,5.89,5.89,0,0,1-1.37,0,2.26,2.26,0,0,1-.55-.16,1.09,1.09,0,0,1-.46-.35A1,1,0,0,1,30,16V12.65H27a1,1,0,0,1-.56-.17,1.13,1.13,0,0,1-.37-.43,1.9,1.9,0,0,1-.18-.54,4.17,4.17,0,0,1-.05-.67,4,4,0,0,1,.05-.65,1.9,1.9,0,0,1,.15-.55,1.22,1.22,0,0,1,.36-.44A1,1,0,0,1,27,9h3V5.7a1.08,1.08,0,0,1,.65-1Z" transform="translate(0.05 0.07)"/><path class="b" d="M34,45.48c-2.55,1.22-6.26,1.14-10.36-.28A17.86,17.86,0,0,0,34,45.48Z" transform="translate(0.05 0.07)"/><path class="c" d="M26.21,34.62A11.31,11.31,0,0,1,29,32.37l8.91,5s1,1.39-.12,3.92Z" transform="translate(0.05 0.07)"/><path class="b" d="M13.47,35C5.61,28.57,2.38,13,2.38,13a6.55,6.55,0,0,1,3.06-3,5.15,5.15,0,0,1,1.39-.38l5.5,12.52a14.14,14.14,0,0,0-1.87,2s.17,2.38,4.74,7.28,9.26,5.72,9.26,5.72a7.4,7.4,0,0,1,1.75-2.6L37.76,41.3a11,11,0,0,1-1.6,2.54,6.08,6.08,0,0,1-2.06,1.61c-.41-.13-12.79-4.1-20.55-10.39A.27.27,0,0,1,13.47,35Z" transform="translate(0.05 0.07)"/><path class="c" d="M11.91,37.88a34.15,34.15,0,0,0,11.57,7.26c-3.73-1.16-8.15-3.59-12.75-8.39C11.11,37.12,11.5,37.5,11.91,37.88Z" transform="translate(0.05 0.07)"/><path class="c" d="M6.83,9.66a8.32,8.32,0,0,1,3.72.38l4.13,9a11.51,11.51,0,0,1-2.35,3.19Z" transform="translate(0.05 0.07)"/><path class="c" d="M2.38,13S5.61,28.57,13.47,35a.27.27,0,0,0,.08.07c7.76,6.29,20.14,10.26,20.55,10.39l-.07,0a17.86,17.86,0,0,1-10.36-.28l-.19-.06a34.15,34.15,0,0,1-11.57-7.26c-.41-.38-.8-.76-1.18-1.13l-.14-.15C-1.26,24.11,2.2,13.53,2.37,13,2.36,13,2.38,13,2.38,13Z" transform="translate(0.05 0.07)"/><path class="b" d="M1.47,15.56A8.68,8.68,0,0,1,2.37,13c-.17.51-3.63,11.09,8.22,23.58C2.32,28.21.77,19.24,1.47,15.56Z" transform="translate(0.05 0.07)"/><path class="d" d="M42.25,1.29H21.56a1.79,1.79,0,0,0-1.75,1.84V18.31a1.8,1.8,0,0,0,1.75,1.85h4.91l5,5.42,5-5.42h5.83A1.8,1.8,0,0,0,44,18.31V3.13A1.79,1.79,0,0,0,42.25,1.29Z" transform="translate(0.05 0.07)"/><path class="d" d="M37.9,10.19a2,2,0,0,0-.16-.54,1.18,1.18,0,0,0-.38-.47A1.06,1.06,0,0,0,36.82,9h-3V5.7a1.08,1.08,0,0,0-.15-.55,1.1,1.1,0,0,0-.48-.42,2.07,2.07,0,0,0-.56-.15,5.63,5.63,0,0,0-1.36,0,2.22,2.22,0,0,0-.56.16,1.08,1.08,0,0,0-.65,1V9H27a1,1,0,0,0-.57.18,1.22,1.22,0,0,0-.36.44,1.9,1.9,0,0,0-.15.55,4,4,0,0,0-.05.65,4.17,4.17,0,0,0,.05.67,1.9,1.9,0,0,0,.18.54,1.13,1.13,0,0,0,.37.43,1,1,0,0,0,.56.17h3V16a1,1,0,0,0,.19.6,1.09,1.09,0,0,0,.46.35,2.26,2.26,0,0,0,.55.16,5.89,5.89,0,0,0,1.37,0,2.86,2.86,0,0,0,.55-.15,1.24,1.24,0,0,0,.48-.39,1,1,0,0,0,.16-.57V12.65h3a1,1,0,0,0,.55-.16,1.14,1.14,0,0,0,.4-.44,2.19,2.19,0,0,0,.17-.56,4,4,0,0,0,0-.65A4.11,4.11,0,0,0,37.9,10.19Z" transform="translate(0.05 0.07)"/><path class="e" d="M10.85,32.16A26.78,26.78,0,0,0,13.47,35a.27.27,0,0,0,.08.07,24,24,0,0,0,6.18,4.25" transform="translate(0.05 0.07)"/><path class="e" d="M7.76,27.43a22.49,22.49,0,0,0,1.73,2.9" transform="translate(0.05 0.07)"/><path class="d" d="M6.83,9.66A5.15,5.15,0,0,0,5.44,10a6.55,6.55,0,0,0-3.06,3s0,0,0,0a8.68,8.68,0,0,0-.9,2.54c-.7,3.68.85,12.65,9.12,21l.14.15c.38.37.77.75,1.18,1.13a34.15,34.15,0,0,0,11.57,7.26l.19.06c4.1,1.42,7.81,1.5,10.36.28l.07,0a6.08,6.08,0,0,0,2.06-1.61,11,11,0,0,0,1.6-2.54c1.1-2.53.12-3.92.12-3.92l-8.91-5a11.31,11.31,0,0,0-2.76,2.25,7.4,7.4,0,0,0-1.75,2.6s-4.7-.82-9.26-5.72-4.74-7.28-4.74-7.28a14.14,14.14,0,0,1,1.87-2A11.51,11.51,0,0,0,14.68,19L10.55,10A8.32,8.32,0,0,0,6.83,9.66Z" transform="translate(0.05 0.07)"/><polyline class="d" points="6.88 9.72 6.88 9.73 12.38 22.25"/><line class="d" x1="26.26" y1="34.69" x2="37.81" y2="41.37"/></svg>