<svg xmlns="http://www.w3.org/2000/svg" viewBox="0 0 47.93 47.93"><defs><style>.a{fill:none;}.b{fill:#40d5b9;}.b,.c{stroke:#303030;stroke-miterlimit:10;}.c{fill:#fff;}</style></defs><rect class="a" width="47.93" height="47.93"/><circle class="b" cx="23.95" cy="23.93" r="21.12"/><path class="c" d="M35.34,22.71a4,4,0,0,0-.3-1,2.19,2.19,0,0,0-.73-.88,1.94,1.94,0,0,0-1-.31H14.62a1.87,1.87,0,0,0-1.08.34,2.21,2.21,0,0,0-.68.84,3.87,3.87,0,0,0-.29,1,8.49,8.49,0,0,0-.08,1.22,6.46,6.46,0,0,0,.1,1.27,3.35,3.35,0,0,0,.33,1,2.12,2.12,0,0,0,.71.82,1.89,1.89,0,0,0,1.06.32H33.22a2,2,0,0,0,1-.3,2.2,2.2,0,0,0,.75-.84,3.46,3.46,0,0,0,.33-1.07,8.48,8.48,0,0,0,.08-1.24A8.75,8.75,0,0,0,35.34,22.71Z"/></svg>