<svg xmlns="http://www.w3.org/2000/svg" viewBox="0 0 48 48"><defs><style>.a,.c{fill:none;}.b,.d{fill:#40d5b9;}.c,.d{stroke:#303030;stroke-miterlimit:10;}.e{fill:#fff;}</style></defs><rect class="a" width="48" height="48"/><polygon class="a" points="24 10.48 20.34 13.65 21.31 13.65 21.31 25.77 26.69 25.77 26.69 13.65 27.66 13.65 24 10.48"/><path class="b" d="M41.07,26.79H30.64V29.7H17.26V26.79H6.84a4,4,0,0,0-4,4V37a4,4,0,0,0,4,4H41.07a4,4,0,0,0,4-4V30.79A4,4,0,0,0,41.07,26.79Z" transform="translate(0.05 0.07)"/><path class="c" d="M30.69,26.79H41.07a4,4,0,0,1,4,4V37a4,4,0,0,1-4,4H6.84a4,4,0,0,1-4-4V30.79a4,4,0,0,1,4-4h10.4" transform="translate(0.05 0.07)"/><polygon class="d" points="19.31 15.65 19.31 27.77 28.69 27.77 28.69 15.65 33.02 15.65 24 7.83 14.97 15.65 19.31 15.65"/><circle class="e" cx="28.39" cy="35.9" r="1.81"/><circle class="e" cx="34.14" cy="35.9" r="1.81"/><circle class="e" cx="39.9" cy="35.9" r="1.81"/></svg>