<svg xmlns="http://www.w3.org/2000/svg" viewBox="0 0 48 48"><defs><style>.a,.d,.e{fill:none;}.b{fill:#40d5b9;}.b,.c,.d,.e{stroke:#303030;stroke-miterlimit:10;}.c{fill:#fff;}.d{stroke-linecap:round;}</style></defs><rect class="a" width="48" height="48"/><polygon class="b" points="43.33 47.09 10.53 47.09 10.53 14.8 16.94 8.04 43.33 8.04 43.33 47.09"/><polygon class="b" points="39.87 43.64 7.08 43.64 7.08 11.35 13.49 4.58 39.87 4.58 39.87 43.64"/><polygon class="c" points="36.7 40.46 3.9 40.46 3.9 8.18 10.31 1.41 36.7 1.41 36.7 40.46"/><circle class="b" cx="9.38" cy="11.65" r="1.44"/><circle class="b" cx="9.38" cy="17.45" r="1.44"/><circle class="b" cx="9.38" cy="23.26" r="1.44"/><circle class="b" cx="9.38" cy="29.06" r="1.44"/><circle class="b" cx="9.38" cy="34.87" r="1.44"/><line class="d" x1="12.98" y1="11.3" x2="31.82" y2="11.3"/><line class="d" x1="12.98" y1="17.01" x2="31.82" y2="17.01"/><line class="d" x1="12.98" y1="22.73" x2="31.82" y2="22.73"/><line class="d" x1="12.98" y1="28.44" x2="31.82" y2="28.44"/><line class="d" x1="12.98" y1="34.15" x2="31.82" y2="34.15"/><polyline class="e" points="10.47 1.53 10.47 8.27 3.9 8.27"/></svg>