<svg xmlns="http://www.w3.org/2000/svg" viewBox="0 0 48 48"><defs><style>.a{fill:none;}.b{fill:#fff;}.c{fill:#303030;}.d{fill:#40d5b9;}</style></defs><rect class="a" width="48" height="48"/><path class="b" d="M24,44.55A20.62,20.62,0,1,1,44.57,23.93,20.63,20.63,0,0,1,24,44.55Z" transform="translate(0.05 0.07)"/><path class="c" d="M24,3.82A20.12,20.12,0,1,1,3.84,23.93,20.14,20.14,0,0,1,24,3.82m0-1A21.12,21.12,0,1,0,45.07,23.93,21.11,21.11,0,0,0,24,2.82Z" transform="translate(0.05 0.07)"/><path class="d" d="M24.45,3.34a20.6,20.6,0,0,1,0,41.18Z" transform="translate(0.05 0.07)"/><path class="c" d="M25,3.86A20.1,20.1,0,0,1,25,44V3.86m-1-1V45a21.1,21.1,0,0,0,0-42.2Z" transform="translate(0.05 0.07)"/></svg>